
<svg version="1.1" id="workGrid" xmlns="http://www.w3.org/2000/svg" xmlns:xlink="http://www.w3.org/1999/xlink" x="0px" y="0px" viewBox="0 0 707 948" style="enable-background:new 0 0 707 948;" xml:space="preserve">
<style type="text/css">

  .st0{enable-background:new    ;}
  .st1{fill:#96BDCC;}
  .st2{fill:#FFFFFF;}
  .st3{fill:none;}
  .st4{font-family:'Code-Pro';}
  .st5{font-size:18;}

</style>
<g id="WhereArtIsPlaced_1_">
  <g id="AmericanStandard_1_">
    <g id="_x32_32x185_copy_2__x2B__Screen_Shot_2016-05-17_at_11.11.14_AM_2_" class="st0">
      <defs>
        <rect id="SVGID_1_" x="237" y="760" class="st0" width="232" height="185"/>
      </defs>
      <clipPath id="SVGID_2_">
        <use xlink:href="app/images/work-svg/#SVGID_1_"  style="overflow:visible;"/>
      </clipPath>
      <g style="clip-path:url(#SVGID_2_);">
        
          <image style="overflow:visible;" width="235" height="188" id="_x32_32x185_copy_2__x2B__Screen_Shot_2016-05-17_at_11.11.14_AM_xA0_Image" xlink:href="app/images/work-svg/F974E9E7EF85D586.png"  transform="matrix(1 0 0 1 235 758)">
        </image>
      </g>
    </g>
  </g>
  <g id="FDA_1_">
    <g id="Screen_Shot_2016-05-23_at_3.22.54_PM_xA0_Image_1_">
      
        <image style="overflow:visible;" width="232" height="185" id="Screen_Shot_2016-05-23_at_3.22.54_PM_xA0_Image" xlink:href="app/images/work-svg/F974E9E7EF85D58A.png"  transform="matrix(1 0 0 1 0 665)">
      </image>
    </g>
  </g>
  <g id="CityHarvest_1_">
    <g id="Screen_Shot_2016-05-17_at_2.20.14_PM_xA0_Image_1_">
      
        <image style="overflow:visible;" width="232" height="90" id="Screen_Shot_2016-05-17_at_2.20.14_PM_xA0_Image" xlink:href="app/images/work-svg/F974E9E7EF85D58D.png"  transform="matrix(1 0 0 1 0 855)">
      </image>
    </g>
  </g>
  <g id="FigNewtons_3_">
    <g id="Screen_Shot_2016-05-17_at_2.17.43_PM_xA0_Image_1_">
      
        <image style="overflow:visible;" width="232" height="90" id="Screen_Shot_2016-05-17_at_2.17.43_PM_xA0_Image" xlink:href="app/images/work-svg/F974E9E7EF85D58E.png"  transform="matrix(1 0 0 1 237 665)">
      </image>
    </g>
  </g>
  <g id="MPowerd_1_">
    <g id="Screen_Shot_2016-05-17_at_11.42.17_AM_xA0_Image_1_">
      
        <image style="overflow:visible;" width="232" height="185" id="Screen_Shot_2016-05-17_at_11.42.17_AM_xA0_Image" xlink:href="app/images/work-svg/F974E9E7EF85D58C.png"  transform="matrix(1 0 0 1 237 190)">
      </image>
    </g>
  </g>
  <g id="Oreo_1_">
    <g id="Screen_Shot_2016-05-17_at_11.39.20_AM_xA0_Image_1_">
      
        <image style="overflow:visible;" width="232" height="185" id="Screen_Shot_2016-05-17_at_11.39.20_AM_xA0_Image" xlink:href="app/images/work-svg/F974E9E7EF85D58B.png"  transform="matrix(1 0 0 1 474 475)">
      </image>
    </g>
    <g id="Rectangle_4_copy_9_2_" class="st0">
      <defs>
        <rect id="SVGID_3_" x="475" y="475" class="st0" width="232" height="185"/>
      </defs>
      <clipPath id="SVGID_4_">
        <use xlink:href="app/images/work-svg/#SVGID_3_"  style="overflow:visible;"/>
      </clipPath>
      
        <image style="overflow:visible;clip-path:url(#SVGID_4_);" width="707" height="948" id="Rectangle_4_copy_9_xA0_Image" xlink:href="app/images/work-svg/F974E9E7EF85D585.png" >
      </image>
    </g>
  </g>
  <g id="Jamaica_1_">
    <g id="Screen_Shot_2016-05-17_at_11.55.15_AM_xA0_Image_1_">
      
        <image style="overflow:visible;" width="469" height="280" id="Screen_Shot_2016-05-17_at_11.55.15_AM_xA0_Image" xlink:href="app/images/work-svg/F974E9E7EF85D587.png"  transform="matrix(1 0 0 1 0 380)">
      </image>
    </g>
    <g id="Rectangle_4_copy_11_2_" class="st0">
      <defs>
        <rect id="SVGID_5_" y="380" class="st0" width="469" height="280"/>
      </defs>
      <clipPath id="SVGID_6_">
        <use xlink:href="app/images/work-svg/#SVGID_5_"  style="overflow:visible;"/>
      </clipPath>
      
        <image style="overflow:visible;clip-path:url(#SVGID_6_);" width="707" height="948" id="Rectangle_4_copy_11_xA0_Image" xlink:href="app/images/work-svg/F974E9E7EF85D584.png" >
      </image>
    </g>
  </g>
  <g id="FigNewtons_2_">
    <g id="_x31_0_Fig_Newton_xA0_Image_1_">
      
        <image style="overflow:visible;" width="232" height="280" id="_x31_0_Fig_Newton_xA0_Image" xlink:href="app/images/work-svg/DE5CE859E57DCB9.png"  transform="matrix(1 0 0 1 474 665)">
      </image>
    </g>
    <g id="Rectangle_4_copy_10_2_" class="st0">
      <defs>
        <rect id="SVGID_7_" x="474" y="665" class="st0" width="232" height="280"/>
      </defs>
      <clipPath id="SVGID_8_">
        <use xlink:href="app/images/work-svg/#SVGID_7_"  style="overflow:visible;"/>
      </clipPath>
      
        <image style="overflow:visible;clip-path:url(#SVGID_8_);" width="707" height="948" id="Rectangle_4_copy_10_xA0_Image" xlink:href="app/images/work-svg/DE5CE859E57DCBF.png" >
      </image>
    </g>
  </g>
  <g id="FDACreatures_1_">
    <g id="Screen_Shot_2016-05-17_at_12.12.59_PM_xA0_Image_1_">
      
        <image style="overflow:visible;" width="232" height="185" id="Screen_Shot_2016-05-17_at_12.12.59_PM_xA0_Image" xlink:href="app/images/work-svg/DE5CE859E57DCB8.png"  transform="matrix(1 0 0 1 474 285)">
      </image>
    </g>
  </g>
  <g id="FDACannes_1_">
    <g id="Screen_Shot_2016-05-17_at_12.36.19_PM_xA0_Image_1_">
      
        <image style="overflow:visible;" width="232" height="90" id="Screen_Shot_2016-05-17_at_12.36.19_PM_xA0_Image" xlink:href="app/images/work-svg/DE5CE859E57DCBB.png"  transform="matrix(1 0 0 1 0 285)">
      </image>
    </g>
  </g>
  <g id="SeaWorld_1_">
    <g id="_x32_32x90">
      <g>
        <rect y="190" class="st1" width="232" height="90"/>
      </g>
    </g>
  </g>
  <g id="Lincoln_1_">
    <g id="Screen_Shot_2016-05-17_at_11.44.33_AM_xA0_Image_1_">
      
        <image style="overflow:visible;" width="232" height="280" id="Screen_Shot_2016-05-17_at_11.44.33_AM_xA0_Image" xlink:href="app/images/work-svg/DE5CE859E57DCA7.png"  transform="matrix(1 0 0 1 474 0)">
      </image>
    </g>
  </g>
  <g id="FDASmokeArmy_1_">
    <g id="Screen_Shot_2016-05-17_at_11.59.49_AM_xA0_Image_1_">
      
        <image style="overflow:visible;" width="469" height="185" id="Screen_Shot_2016-05-17_at_11.59.49_AM_xA0_Image" xlink:href="app/images/work-svg/DE5CE859E57DCB7.png" >
      </image>
    </g>
  </g>
</g>
<g id="RolloverTXT_1_">
  <g id="fda_x0D__2_">
    <rect x="10" y="9.9" class="st3" width="238.6" height="99"/>
    <text transform="matrix(1 0 0 1 10 22.4541)" class="st2 st4 st5">fda</text>
  </g>
  <g id="Lincoln_financial_x0D_">
    <rect x="483.9" y="12.6" class="st3" width="212.8" height="172.4"/>
    <text transform="matrix(1 0 0 1 483.9082 25.1543)" class="st2 st4 st5">Lincoln financial</text>
  </g>
  <g id="Seaworld">
    <rect x="10" y="199.9" class="st3" width="136.6" height="80.1"/>
    <text transform="matrix(1 0 0 1 10 212.4541)" class="st2 st4 st5">Seaworld</text>
  </g>
  <g id="mpowerd">
    <rect x="247" y="199.9" class="st3" width="215.2" height="80.1"/>
    <text transform="matrix(1 0 0 1 247 212.4541)" class="st2 st4 st5">mpowerd</text>
  </g>
  <g id="fda_x0D__1_">
    <rect x="484" y="294.9" class="st3" width="212.7" height="57.5"/>
    <text transform="matrix(1 0 0 1 484 307.4541)" class="st2 st4 st5">fda</text>
  </g>
  <g id="oreo">
    <rect x="484" y="484.9" class="st3" width="212.7" height="41.8"/>
    <text transform="matrix(1 0 0 1 484 497.4541)" class="st2 st4 st5">oreo</text>
  </g>
  <g id="FIG_NEWTONS">
    <rect x="484" y="676.7" class="st3" width="212.7" height="57.1"/>
    <text transform="matrix(1 0 0 1 484 689.2998)" class="st2 st4 st5">FIG NEWTONS</text>
  </g>
  <g id="fda">
    <rect x="10" y="674.9" class="st3" width="216.2" height="35.1"/>
    <text transform="matrix(1 0 0 1 10 687.4541)" class="st2 st4 st5">fda</text>
  </g>
  <g id="BUSCH_GARDEN">
    <rect x="247" y="674.9" class="st3" width="215.2" height="17.6"/>
    <text transform="matrix(1 0 0 1 247 687.4541)" class="st2 st4 st5">BUSCH GARDEN</text>
  </g>
  <g id="American_Standard">
    <rect x="247" y="765.9" class="st3" width="215.2" height="17.6"/>
    <text transform="matrix(1 0 0 1 247 778.4541)" class="st2 st4 st5">American Standard</text>
  </g>
  <g id="city_harvest">
    <rect x="10" y="864.9" class="st3" width="215.2" height="21.5"/>
    <text transform="matrix(1 0 0 1 10 877.4541)" class="st2 st4 st5">city harvest</text>
  </g>
  <g id="fda_x0D_">
    <rect x="10" y="294.9" class="st3" width="205.6" height="85.1"/>
    <text transform="matrix(1 0 0 1 10 307.4541)" class="st2 st4 st5">fda</text>
  </g>
  <g id="jamaica_x0D_">
    <rect x="10" y="389.9" class="st3" width="347" height="65.4"/>
    <text transform="matrix(1 0 0 1 10 402.4541)" class="st2 st4 st5">jamaica</text>
  </g>
</g>
</svg>
