<?xml version="1.0" encoding="utf-8"?>
<!-- Generator: Adobe Illustrator 19.1.0, SVG Export Plug-In . SVG Version: 6.00 Build 0)  -->
<svg version="1.1" id="Layer_1" xmlns="http://www.w3.org/2000/svg" xmlns:xlink="http://www.w3.org/1999/xlink" x="0px" y="0px"
	 viewBox="616.8 -1023.2 3263.4 2461.5" style="enable-background:new 616.8 -1023.2 3263.4 2461.5;" xml:space="preserve">
<style type="text/css">
	.st0{fill:#FFFFFF;}
</style>
<g>
	<path d="M3880.8,369.4c-11.1,0.4-21.8-1-31.8-6.5c-4.2-2.3-9.5-3.1-14.4-3.8c-7.1-1.1-9.2,0.8-9.7,7.7c-0.4,4.6-0.5,9.3-0.7,14
		c-0.8,19.3-1.3,38.6-6.7,57.3c-1.1,3.7-0.5,7.9-0.8,11.9c-0.2,2.3,0,4.9-0.9,6.9c-7.8,16.4-3.6,34.2-6.5,51.1
		c-1,5.6-1.2,11.3-2.4,16.8c-2.1,10.3-1.3,20.5,0.2,30.7c0.7,4.5,1.3,9.4,0.4,13.8c-3,13.2-2.8,26.4-2.7,39.8
		c0.1,8.2-1.6,16.4-2.5,24.7c-0.2,2-1,3.9-1.1,5.9c-1.5,16.2-3.2,32.4-4.3,48.7c-1,13.9-0.7,28-2.4,41.8c-1.1,8.4-4.4,16.7-7.7,24.6
		c-4.3,10.4-6.1,20.8-6.2,32c-0.1,22.9-1,45.9-2.1,68.8c-0.3,7.3-0.4,15-5.9,23.2c-2.1-6.4-4.1-11.3-5.3-16.3
		c-8.8-36.3-17.4-72.5-26.1-108.8c-2-8.4-4.2-17,3.4-25.1c-11.9-7-13.7-18.8-16.7-30c-4.9-18.3-10-36.6-14.8-54.9
		c-4.8-18-9.7-36-13.9-54.1c-4.5-19.4-15-35.3-27-50.6c-2.2-2.9-5-5.6-6.4-8.8c-4.8-11.1-14-18.4-22.2-26.7c-4.6-4.7-8.7-10-13-15
		c-8.9-10.3-17.6-20.7-26.7-30.7c-2.4-2.6-5.9-4.4-9.3-5.8c-2.2-0.9-4.9-0.5-7.3-0.6c-0.1,2.2-0.7,4.4-0.3,6.5
		c0.6,3.2,2.6,6.2-1.4,10c-6.9-7.2-13.7-14.3-20.4-21.5c-7.4-8-14.5-16.4-22.2-24.2c-1.7-1.8-5.6-3.1-7.8-2.4
		c-3.5,1.2-3.3,4.9-2.9,8.5c1.4,12.4,9.6,21.6,14.7,32.3c5.7,12.1,15.2,21.6,23.3,32.1c6.4,8.4,11.7,17.7,17.3,26.8
		c1.1,1.8,1.2,4.1,2.3,8.6c-4-2.4-6.3-3.4-8.1-4.9c-13.6-11.7-26.4-24-35.3-40.2c-4.3-7.8-10.2-15.5-18.6-20.5
		c-3.4-2-6.3-4.1-10-1.7c-3.8,2.5-1.7,5.7-0.6,8.9c4.7,13.2,10,25.9,17.3,37.9c4.4,7.2,5.8,16.1,8.5,24.3c0.1,0.3-0.7,1-1.6,2.1
		c-2.3-1.6-4.4-3.5-6.9-5c-5.9-3.4-10.8-0.8-10.7,6.1c0.1,9,0.8,17.9,1.3,26.9c0.5,8,0.4,15.9-2.6,23.5c-2.1,5.5-5.6,6.1-9.6,1.6
		c-1.5-1.7-2.6-3.8-3.7-5.9c-3.8-7-8.6-13.8-10.9-21.2c-2.8-9.5-8.3-18.3-9.9-27.8c-2-11.4-6.3-22.4-6.9-33.8
		c-1.1-22.6-8.6-42.6-19.9-61.9c-8.5-14.5-15.4-29.9-23.1-44.8c-1.8-3.5-3.1-8.5-8.2-7.1s-3.9,6.5-3.2,10.2
		c1.9,10.7,4.3,21.4,6.4,32.1c0.2,1.2-0.1,2.5-0.3,5.5c-3-2-5.5-2.9-6.9-4.6c-12.4-15.2-25-30.2-33.2-48.4
		c-4-8.8-8.4-17.4-12.9-25.9c-1.4-2.6-3.7-4.7-5.6-7c-11.2-13.2-22.5-26.2-33.5-39.5c-8.1-9.7-16.3-19.4-23.5-29.7
		c-11.2-16-22.3-32.1-30.4-50.1c-6.4-14.2-13.9-28.9-28.7-36.2c-15.3-7.5-24.9-20.7-36.4-32c-1.4-1.4-2.8-3-4.4-4
		c-3.1-1.9-6.4-1.3-7.4,2.1c-1.8,6.2-4.9,12-3.9,19.1c1.2,8.9-0.7,17.7-8.5,24.9c-7.9-6.6-14.4-13.7-18.9-22
		c-7.3-13.3-14-27.1-19.9-41.1c-5.8-13.7-9.7-28.2-15.5-41.9c-3.5-8.1-7.8-16.5-13.9-22.7c-10.9-11.1-18.8-24.1-26.4-37.3
		c-4.6-8.1-8.9-16.4-13.5-24.4c-1.2-2.1-3.2-3.7-5.3-6.1c-5,7.1-7.2,13.2-5,20.6c1.6,5.4,3.3,10.9,4.4,16.4
		c1.4,6.8-0.4,12.9-6.2,19.1c-6.1-6.4-11.8-11.8-16.9-17.8c-15.6-18.3-29.1-38-39.5-59.8c-1.5-3.2-3.8-6.5-6.6-8.3
		c-13.4-8.4-23.3-20.1-31.1-33.3c-8.9-15.1-16.8-31-24.3-46.9c-5.8-12.3-10.5-25.1-15.4-37.8c-1.2-3.1-1.5-6.7-2.2-10
		c0.9-0.4,1.7-0.8,2.6-1.2c2.1,2.7,4.5,5.2,6.1,8.2c10.4,18.6,20.6,37.2,31,55.8c2.4,4.3,5,8.7,8.3,12.3c2.2,2.4,5.9,3.5,10.6,6.1
		c0-6.5,0.6-11.1-0.1-15.5c-2-12.8-4.1-25.7-6.9-38.3c-1.3-6.1-3.4-12.4-6.8-17.5c-5.5-8.4-7.6-17.7-9.1-27.2
		c-1-6.3-3.6-11.2-8.3-15.4c-4.7-4.2-8.9-9.1-13.7-13.1c-3-2.5-6.5-4.9-10.2-5.9c-5.2-1.4-8-4.3-9.8-8.9c-1-2.4-2-5.1-3.9-6.8
		c-10-9.3-20.2-18.3-30.4-27.3c-0.9-0.8-2.4-1.1-4.1-1.8c-4.7,6.2-6.3,12.2-4.4,20.2c3.2,13.9,11.4,25.3,16.3,38.4
		c11.3,29.6,17,59.4,8.8,90.7c-2.1,8-0.6,15.2,6,20.9c4.8,4.2,9.6,8.3,14,12.8c7.2,7.3,14.1,14.9,21,22.4c0.6,0.6,0.5,1.8,0.6,2.7
		c-2.6,4.3-6.1,3.4-9.7,2.4c-28.1-8.2-55.4-18.8-82.1-30.9c-18.5-8.3-37-16.6-55.7-24.5c-8.2-3.5-18.9-3.1-21.6-14.6
		c-18.5-18.2-36.7-36.7-55.5-54.6c-10.4-9.9-23.4-13.6-37.8-11.9c0.6-3.6,1.3-7.2,1.7-10.8c0.7-6.7-2.2-11.5-7.9-14.7
		c-4.5-2.5-8.6-5.8-13-8.5c-3.3-2-6.7-4.4-10.3-5.4c-3.5-1-5.7,1.8-4.7,5.3c0.9,3.5,3.5,6.9,3.3,10.3c-0.6,11.1,6.5,16.8,14.4,21.9
		c5.2,3.4,10.8,5,16.8,1.6c-2.5,9,0.1,16.1,7.4,22.1c6.4,5.3,12.1,11.4,17.9,17.3c11.6,11.9,25.5,20.1,40.2,27.6
		c7.9,4,13.9,11.5,23.3,13c1.5,0.2,2.7,2.8,3.9,4.3c10.6,13.2,21.2,26.4,31.6,39.8c5,6.3,11.3,8.7,19.2,8.4
		c12.2-0.5,24.2,1.8,34.6,8c7.6,4.5,13.8,11.3,20.6,17.2c1.5,1.3,2.5,3.5,4.2,4.2c8.1,3.5,11.8,8.8,11.9,18.3
		c0.1,6.5,7,10.4,12.6,13.3c11.9,6,21.3,14.6,30,24.3c3,3.3,7.1,6,11.2,8c20.4,9.8,38.1,22.7,51.2,41.5c1.4,2,2.2,4.4,4,8.1
		c-4-0.4-6.2-0.4-8.2-0.8c-2.2-0.5-4.3-1.8-6.6-2.3c-7.6-1.6-10.3,0.5-11.3,8.3c-1.5,12.3-2.1,14.3-7.6,23.9
		c-4.9,0.6-8.6-2.4-12.2-5.2c-5-3.9-9.7-8.1-14.7-12c-3.3-2.6-6.6-5.8-11.9-4.5c-1.7,6.5,0.4,12.4,2.8,18.2c4.7,11.3,9.4,22.7,14,34
		c0.5,1.3,0.2,3,0.4,6.4c-10.4-8.8-18.9-16.9-25.8-26.7c-5-7-9.8-14.2-14.9-21.1c-1.9-2.5-4.4-4.5-6.9-6.9
		c-7.2,7.1-4.1,14.5-3.5,21.5c0.1,1.3,1.3,2.5,1.4,3.7c0,2.2,0.3,5.2-0.9,6.4c-1.1,1.1-4.5,1.1-6.2,0.2c-4.4-2.1-8.8-4.7-12.7-7.6
		c-9.2-7.1-18.5-14.1-27.2-21.9c-12.9-11.6-24.5-24.3-34.2-38.8c-4.2-6.4-9.1-12.3-14-18.2c-2.1-2.5-4.8-4.8-7.7-6.2
		c-24-11.6-41-30.4-54-53c-7-12-12-25.1-18-37.7c-4.2-9-2.6-18.3-1.7-27.5c0.4-4.6,1.4-9.2,1.6-13.9c0.9-18.2-4.2-34.2-18.2-46.7
		c-8.7-7.8-17.2-15.8-26-23.3c-3.4-2.9-7.6-4.7-11.5-7.1c-3.6,5.6,0.2,8.5,2,11.8c8.6,15.4,17.7,30.5,25.7,46.2
		c4.7,9.1,7.6,19.2,11.4,28.8c1.5,3.7,3,7.4,4.9,10.9c3.9,7.5,6.4,15.2,5.9,23.9c-0.9,15.2,7.2,28.2,11.2,42.2
		c2.6,9.2,5.4,18.7,6.1,28.1c0.6,7.7-1.3,15.8-3.2,23.5c-1.5,6.2-5.7,6.9-10.2,2.4c-5.6-5.6-10.9-11.6-16.3-17.5
		c-15-16.6-27.6-35-39.5-53.8c-8-12.6-14.9-26-21.1-39.5c-4.1-9-5.8-19.1-9.3-28.4c-2.4-6.4-5.4-12.9-9.5-18.4
		c-11.5-15.5-23.9-30.3-35.5-45.7c-2.9-3.8-4.6-8.7-6-13.3c-2.8-8.8-4.8-17.9-7.6-26.7c-4-12.7-7.9-25.3-5.2-39.1
		c2.6-13.5-2.8-25.2-11.5-34.9c-11.1-12.4-23-24.1-34.7-35.9c-3-3-6.9-7.1-11-3c-4.3,4.2,0.5,7.7,3,11.1
		c12.7,17.5,25.8,34.7,38,52.6c4.6,6.8,7.3,14.9,10.6,22.5c1.6,3.7,0.8,7.2-3.2,9.3c-5.7,3.1-10.4,2.9-13.5-0.9
		c-0.8-1-1.5-2.2-2.1-3.4c-9.2-18.3-23-33.3-35.8-49c-13.5-16.5-25-34.4-33.4-54.1c-4.1-9.7-13.9-24.6-24.8-30.9
		c1,12.7,5.2,24.6,1.8,37.4c-5.3-1.7-8-5.6-10.3-9.3c-6.1-9.9-11.6-20.2-17.7-30.1c-4.1-6.7-8.8-13.1-14-20.8
		c-2.4,3.8-4,6.4-5.9,9.6c-2-1.2-4.2-2.1-5.7-3.6c-16.8-18.1-32.5-37.1-44.2-59c-4.5-8.5-7.4-17.7-11.2-26.6
		c-4.2-9.7-9.2-18.5-20.7-21.2c-2.3-0.5-4.9-2.5-6.2-4.5c-8.8-13.7-21.3-23.9-33.7-33.9c-12.1-9.7-20.4-21.9-27.5-35.1
		c-8.3-15.5-15.3-31.7-22.8-47.6c-7.4-15.7-16-30.2-29.1-42.5c-12-11.2-21.7-25.2-31.7-38.4c-3.9-5.2-7.5-9.7-14-11.9
		c-3.7-1.3-6.7-5-9.7-8c-1.6-1.6-2.8-3.7-3.9-5.8c-4.1-7.7-10.2-11-19.2-12c-12.2-1.4-24.1-4.7-35.3-10.3
		c-6.2-3.1-12.8-7.7-20.2-3.8c-6-5.4-11.8-10.8-18.3-16.7c2.8-5.6,0.7-10.9-2.8-16.1c-2.6-3.9-4.4-8.2-6.9-12.2
		c-5.1-7.9-11-13.6-22-11.6c-4,0.7-8.9-3.1-14.1-5.2c-9.6,4-9.7,4.1-16.6-5.3c-2.7-3.6-5.3-4.9-9-1.5c-1.2,1.1-2.5,2.1-3.9,3.2
		c-21.2-5.3-38.3-17.4-53.9-31.5c-12.9-11.6-24.7-24.3-37.4-36.1c-16.8-15.7-33.9-31.1-50.8-46.6c-4.8-4.4-10.4-6.7-17-7.7
		c-7.2-1.1-14.2-3.5-21.3-5.4c-3.1-0.8-6.2-1.5-11.3-2.7c1.7,4.2,2.3,6.7,3.6,8.7c5.6,8.7,11.2,17.3,17.2,25.7
		c6.1,8.7,12.7,17.1,19.1,25.6c2.8,3.7,6.2,7.2,8.3,11.2c5.2,9.9,13.5,15.7,23.7,18.6c22.7,6.6,43.1,17.4,62.1,31.3
		c18.8,13.7,37.9,27.2,56.7,40.9c30.6,22.2,56.6,49.6,83.4,76c1.5,1.5,2.7,3.4,3.1,6.8c-2.7-0.7-5.4-1.1-8-2
		c-27.2-9.8-51.6-24.7-74.6-42.1c-7.5-5.6-14.7-11.4-22.2-17c-2.6-1.9-5.6-3.2-8.3-4.7c-7.4,10.2-10.4,11-20.9,4.3
		c-16.9-10.7-33.4-21.9-50.1-32.9c-2.3-1.5-4.7-2.8-7.1-4.2c-0.5,0.5-1,1-1.4,1.6c0.7,1.6,1.1,3.6,2.3,4.6c4.6,3.8,9,8.2,14.3,10.8
		c25,12.3,45,30.8,64.1,50.3c6.8,6.9,12.5,14.7,19.1,21.8c3.1,3.3,6.6,7,10.7,8.6c29.9,12,56.8,29.4,83.1,47.6
		c23.9,16.4,47.3,33.5,70.8,50.6c3.8,2.7,7,6.3,9.8,10.5c-36.6-12.1-66.3-37-101.2-52.7c0.8,1.2,1.3,2.7,2.4,3.6
		c13.5,11.8,27.2,23.5,40.6,35.4c3.8,3.4,8.6,6.4,9,13.1c-8.5,0.1-13.4-5.9-19.6-9.2c-6.3-3.3-12.9-5.8-19.6-8.7
		c-1.9,5.4,1.5,7.3,3.7,9.5c5.9,5.8,12,11.5,18.2,17.1c16.6,15.1,33.6,30.6,42.7,51c9,20.1,25.1,32.2,40.2,46
		c5.5,5.1,10.9,10.3,16.3,15.5c-0.4,0.6-0.8,1.2-1.2,1.8c-6.4-2.3-12.8-4.5-19.7-6.9c1.8,9.1,9,20.7,16.5,25.4
		c9.3,5.9,18.9,11.2,28.4,16.7c5.1,3,10.2,6,15,9.8c-4.4,0.9-7.6-1.9-11.2-3.6c-18.3-8.7-36.6-17.4-55.1-25.9
		c-3.3-1.5-7.3-1.7-12-2.7c0.6,3,0.5,4.4,1.1,5.4c4.9,8.7,9.9,17.3,14.9,25.9c2.3,4,5.9,5.8,10.4,6.9c27,6.6,49.3,21.3,68.5,41.2
		c0.4,0.4,0.5,1.2,1.1,2.9c-2.3-0.9-4-1.3-5.4-2.1c-17.2-10.2-34.2-20.5-51.5-30.6c-3.6-2.1-7.5-4.7-12.4-2c0,4.1,0,8.2,0,13.7
		c-6.1-3-11.2-5.6-16.3-8.1c4.5,9.8,10.2,17.2,22.2,16.3c12.4-0.9,22.4,5.4,32.2,11.9c1.4,0.9,2.9,1.8,3.9,3.1
		c5.2,6.9,16.3,5.8,19.4,17c2.2,8.1,10.6,14.3,15.3,21.9c4.7,7.6,8.4,15.9,12,24.1c1.8,4,2.4,8.6,3.6,12.9c-0.6,0.5-1.3,1-1.9,1.5
		c-2.8-1.4-5.8-2.5-8.3-4.2c-6-4.1-11.9-8.5-17.8-12.9c-4.1-3-8.1-5.8-14.5-2.3c1.5,2.9,2.4,5.8,4.1,7.9
		c13.9,17,28.4,33.6,41.9,50.9c9.3,11.9,21.4,13.4,34.8,12.1c0.3,0,0.7-0.1,1-0.2c20.1-5.6,38.8-1,57.2,7.2
		c22.7,10,43.6,23.1,63.6,37.5c27.4,19.8,50.5,44.4,75.2,67.2c2.1,1.9,3.8,4.3,6.2,7c-3,1.7-5.2,2.9-8.5,4.6c2.2,3.4,4.1,6.3,6,9.3
		c10.5,16.7,19.8,34.1,22,54.1c0.5,4.5,0.1,9.4-1.3,13.6c-1.4,4.3-0.2,6.9,2.3,9.9c5.4,6.3,10.8,12.7,15.9,19.3
		c3.1,4,7.3,5.5,12,6.3c21.1,3.8,41.2,10.9,60.2,20.8c18.3,9.6,35.7,20.5,52.4,33.5c-6.2,0.2-9-0.9-15.6-4.1
		c-26.9-13.1-53.5-26.7-81.8-36.9c-1.9-0.7-3.8-1.5-5.7-1.8c-5.4-0.8-7.6,1.7-6.1,6.9c0.7,2.2,1.9,4.3,2.8,6.4
		c3.1,7.2,4.6,14.7,2,22.4c-4.3,12.7,2.7,22.7,8.5,32.6c1.5,2.6,6.1,4,9.5,4.6c11.3,2.2,21.6,6,31.4,12.3c4,2.7,10.1,2.4,15.3,3.1
		c5.6,0.8,11.3,0.5,16.7,1.7c19.2,4.2,35.9,13.5,51.1,25.8c5.2,4.2,10.7,8,15.8,12.2c3.2,2.7,6,5.9,9.1,8.9
		c-2.6,4.9-6.5,5.3-9.9,4.5c-9-2-18-4.6-26.9-7.2c-6.4-1.9-12.6-4.2-19-6.1c-1.7-0.5-3.7,0.1-7.4,0.3c1.6,4.5,2.4,8.3,4.3,11.4
		c8,13.1,16.2,26,20.8,40.8c1.8,5.7,5.4,10.4,11,12.3c7,2.4,12.5,5.8,14.2,15.2c2.2-2.7,4-3.9,4.1-5.3c0.3-6,4.2-7.5,8.9-7
		c7.5,0.8,15.3,1.5,22.5,3.8c19.8,6.2,34,20.5,48.2,34.7c4.9,4.9,10.1,9.5,14.9,14.6c1.7,1.8,2.8,4.4,3.7,6.9
		c2.7,7.4,7.9,12.1,15,15.1c13.6,5.7,26,13.2,36.4,23.9c3.2,3.3,7.2,5.9,10.9,8.6c6.5,4.6,13.1,9.1,19.7,13.6
		c3.7,2.5,7.6,4.8,13,8.2c-7.5,0.9-12.5-1.7-17.3-3.6c-5.6-2.2-10.9-2.5-16.6-1.5c-5.9,1.1-11.7,2.3-17.6,3.3
		c-7.3,1.3-9.6,6.3-5.1,12.1c2.8,3.7,5.8,7.4,9.4,10.3c5.1,4.1,10.5,7.7,18.1,6.4c10.5-1.7,21,1.3,29.9,6.1
		c9.5,5.2,20,8.5,28.5,15.8c5.4,4.7,12.5,7.4,18.3,11.8c11.1,8.5,21.9,17.3,32.5,26.4c2.7,2.3,4.7,5.7,5.9,9c0.8,2-0.5,4.8-0.8,7.2
		c-2.1-0.3-4.4-0.3-6.3-1c-4.3-1.6-8.4-3.6-13.2-5.8c-7.7,14.3,1.2,24,7.6,34c-5.6,6.2-10.7,11.8-17,18.8c-1.1-0.4-3.9-1.2-6.5-2.1
		c-3.5-1.2-7.1-1.2-8.9,2.1c-0.9,1.7-0.2,5.2,1,7.1c9.5,14.3,11.6,30.9,15.3,47.1c0.5,2.2,0.3,4.7-0.4,6.9c-0.4,1.2-2.8,3-3.5,2.7
		c-6.3-2.5-13.3-1.3-19.5-6.2c-17.3-14-31.2-30.5-43.8-48.6c-6-8.7-13-16.9-20.8-24c-9.3-8.5-15.3-19.2-22-29.4
		c-6.2-9.4-11.5-19.4-17.1-29.2c-0.7-1.1-1.3-2.4-1.6-3.7c-3.9-16.1-11.5-30.3-22-43c-1.3-1.5-2.4-3.9-4-4.3
		c-8.4-2.4-15.5-7.3-23-11.4c-3.8-2.1-5.2-0.3-7.5,8.3c-2.1-1-4.4-1.6-5.9-3.1c-10.6-10.1-21.3-20.1-29.3-32.6
		c-3.2-4.9-7.1-9.6-15.3-10.5c1.4,13,10.6,23.3,10.4,38.3c-5.1-4.5-9.3-7.2-12.3-10.9c-12.9-15.8-23.7-32.9-31.3-51.9
		c-3.6-8.9-5.7-18.4-9.7-27.1c-3.1-6.8-7.9-12.9-12.3-19c-6.6-9.2-13.7-17.9-20.2-27.1c-6.7-9.4-15.6-16.2-25.5-21.8
		c-2.7-1.5-5.5,0.7-5,4c0.4,2.6,1.3,5.2,2.6,7.5c9.7,17.4,19.7,34.7,29.4,52.2c10.1,18.4,20,36.8,29.6,55.4
		c1.9,3.6,2.2,8.1,3.3,12.6c-5.6,0.8-7.9-2.3-9.8-5.2c-14-21.5-27.9-42.9-41.5-64.6c-3.3-5.3-5.6-11.3-8.2-17.1
		c-3.5-7.9-8.8-13.2-16.9-17.3c-19.5-9.8-36.4-23.3-50.4-40.2c-14.1-16.9-23.7-36.1-28.7-57.6c-2.6-11.3-2.7-22.4,0.3-33.6
		c0.4-1.5,1.4-2.9,2.6-5.2c8.4,4.1,13.4,11.3,19.6,17c6.2,5.9,12.2,12,18.3,17.9c5.3-2.4,5.2-6.2,4.2-9.7
		c-2.1-7.8-5.1-15.1-11.7-20.4c-5.4-4.4-10.7-9.1-15.5-14.1c-4.9-5-10.1-8.7-17.9-6.8c-0.7-2.4-1.5-4.2-1.7-6
		c-0.8-6.2-4.3-10.1-9.6-13.1c-10.2-5.7-20.2-11.5-30.2-17.5c-3.7-2.2-6.7-5.5-10.4-7.8c-1.4-0.9-4.3-1-5.4-0.2s-1,3.5-0.9,5.3
		c0.1,1.2,1,2.5,1.7,3.6c12.5,19.3,19,41.1,25.8,62.6c2.7,8.5,4.1,17.5,5.1,26.4c2.8,25.5,5,51,1.5,76.7c-2,15.2-7.6,28.1-17.7,39.4
		c-5.7,6.3-8.3,6.7-13.3-0.3c-8.6-11.9-17.7-23.6-24.4-36.5c-9.3-17.6-17.8-35.9-24.4-54.7c-7-20.1-12.5-40.9-9.8-62.7
		c2-16,6-31.4,15.8-44.6c5.2-7,12.8-10.4,20.4-14c11.1-5.2,11.9-9.9,4.1-19.6c-5.9-7.2-11.1-14.9-16.5-22.4
		c-3.6-5.1-4.4-10.9-4.4-17.1c0-3.8-0.4-8.5-2.6-11.3c-6.6-8.3-14.2-15.9-21.6-23.5c-1.2-1.3-3.4-1.6-5.9-2.7c0,2.8-0.4,4.7,0.1,6.3
		c2.9,9.5,6.2,19,9.1,28.5c3.2,10.4,3.8,21,1.3,31.6c-1.5,6.4-4.2,8.1-10,5.1c-13.9-7.1-27.5-14.7-41.3-22.1
		c-1.5-0.8-2.8-1.8-4.3-2.4c-3.2-1.2-5.2,0-5.6,3.4c-0.2,1.3,0.1,2.7,0.3,4c3.7,21,7.3,42,11.1,62.9c2.3,12.8,4.9,25.5,7.1,38.3
		c0.5,3.2,0.1,6.5-1.2,10.2c-1-1.9-2.5-3.7-3-5.7c-9-36.2-17.8-72.4-26.7-108.6c-2.2-8.7-4.3-17.4-6.9-26c-0.9-3-3.1-5.9-5.2-8.3
		c-5.5-6.3-11.5-12.1-16.9-18.4c-17-19.7-29.3-42-35.9-67.2c-1.3-4.8-1-9.9-1.7-14.9c-0.9-7.2-3.4-10.1-10.6-11
		c-36.5-4.6-71.7-15-106.8-25.4c-26.6-7.9-52.1-18.5-75.7-33.3c-4.6-2.9-10.2-5.1-12.2-11.8c1.6-1.5,3.1-3.3,5-4.5
		c23.2-15.7,48.8-24.1,76.8-25.3c3.1-0.1,6.2-1,11.2-1.9c-2.7-3.9-4.1-6.4-5.8-8.5c-18.2-22.4-30.4-47.6-37.1-75.6
		c-1.2-5-3.4-10.2-6.4-14.4c-9.7-13.7-16.7-28.8-23.1-44.2c-1.6-4-2-8.4-3.1-12.6c-0.6-2.4-1.4-4.7-2.5-8.4
		c-3.4,4.3-1.4,7.6-1.6,10.6c-0.5,8.6-1.2,17.2-1.3,25.7c-0.1,4.9-0.5,10.2,1.1,14.5c5.5,14.6,11.8,28.9,17.9,43.4
		c0.7,1.8,1.4,3.6,0.9,6.2c-1.3-1.9-2.9-3.7-3.9-5.8c-5.3-10-10.4-20.1-15.6-30.2c-2-3.9-4.2-7.2-9.7-7.2c-2.4,0-5.1-2.4-7.2-4.2
		c-1.7-1.5-2.5-3.9-3.9-5.7c-3.6-4.5-5.8-4.5-9.4,0c-2.1,2.5-4,5.1-6.6,8.6c-20.4-17.1-29.3-41.6-44.7-61.4c-6,2-6.5,7.6-8.4,11.9
		c-1.5,3.3-1.8,7.1-3.1,10.5c-3.4,8.5-12.4,10.5-18.3,3.8c-19.5-22.4-33.7-47.7-41.7-76.4c-2.1-7.3-4-14.7-5.9-22.1
		c-4.4-17-18-24.8-33-26.4c-20.5-2.2-33.8-11-42.3-29.7c-7.6-16.8-13.1-33.7-8.6-52c5.9-23.8-4.4-41.3-20.1-57.2
		c-4-4-7.6-8.4-11.7-12.2c-5.7-5.3-7.3-5.6-14.1-1.7c-10.2,5.7-20.2,11.7-30.2,17.6c-7.1,4.3-9.4,3.6-12.7-4.2
		c-14.1-33.9-19.9-68.9-14.4-105.5c0.6-3.9-0.1-9-2.3-12.2c-11.6-17.1-23.4-34-36.1-50.3c-4.9-6.4-12.2-11-18-16
		c-1.8,0.8-2.7,0.9-3,1.3c-9,12.5-12.3,13.1-25.2,4.6c-9.5-6.2-17.8-13.7-25-22.7c-14.9-18.7-26.6-38.9-34.9-61.3
		c-3-8.2-9.4-15.1-14.5-22.4c-6.5-9.2-13.3-18.2-20.1-27.3c-1.2-1.6-2.1-3.5-3.6-4.7c-10.1-8.2-16.3-19.2-22.8-30.1
		c-2.5-4.3-6-8-8.8-12.1c-2.2-3.2-3.9-6.8-5.9-10.2c70,0.1,140,0.1,210,0.2c6.6,7.4,13.2,14.8,19.9,22.2
		c6.6,7.3,10.5,17.4,21.2,20.6c-9.2-15.7-21.4-29.1-33.1-42.8c15.3,0,30.7,0,46,0c9,9.6,15.6,20.8,20.3,33c3,7.6,7.6,13.8,13.1,19.8
		c16.8,18,33.3,36.2,49.7,54.6c5.8,6.4,10.5,13.8,16.2,20.2c14.9,16.6,29.7,33.3,45.1,49.3c11.5,12,23.9,23.2,36,34.5
		c1.8,1.7,4.9,4.1,6.7,3.6c6.7-1.9,11.6,1.1,16.8,4.2c1.7,1,4.1,0.8,6.8,1.2c0.4-6.2-3.9-8.2-6.7-11.2c-2.9-3.2-8.7-3.9-8.8-10.2
		c5.3-1.8,10.3-2.4,13.9,2.1c3.6,4.5,7.7,7.1,13.4,7.5c1.5,0.1,3.6,0.9,4.4,2.1c5.4,8.4,15,8,23.1,12.3c0.3-5.7-2.2-8.8-5.9-10.5
		c-10.1-4.7-16.3-13.5-23.2-21.5c-6.5-7.6-12.9-15.3-20.2-22.1c-5.9-5.5-11.6-10.6-15.7-17.8c-2.3-4.1-6.2-9.1-10.2-10.1
		c-11.4-2.8-19.6-9.9-27-17.9c-11.5-12.5-22.5-25.4-33.1-38.6c-13.6-17.1-24.3-35.7-29.3-57.3c-2.2-9.6-6.4-18.1-16.1-22.6
		c-2-0.9-3.6-2.9-5.4-4.4c673.8,0.4,1349.8,0.9,2025.8,1.4C3881.5-557.3,3881.2-93.9,3880.8,369.4z M3369.1-181.6
		c-4.3,1.3-8.6,4.1-12.2-0.3c-4.7-5.8-11.3-6.2-18-7.2c-12.1-1.9-24.3-3.9-36.2-7c-12.2-3.2-24-7.6-36-11.5
		c-3.6-1.2-7.9-2.2-9.9,1.5c-1.2,2.3-0.3,6.3,0.8,9.1c1.9,4.9,5.2,9.4,7,14.3c3.4,9.4,9.1,17.1,17,22.9c13.4,9.9,26.8,19.8,40.6,29
		c11,7.4,22.8,13.7,34.1,20.7c5.1,3.1,9.8,6.9,14.7,10.2c2.4,1.7,4.9,3.7,7.6,4.5c9.8,2.8,15.7,8.7,20.1,18.1
		c3.7,8,10.2,14.6,15.7,21.7c0.9,1.1,2.9,2,4.4,2c5.1-0.1,6.6,3.5,8.3,7.2c3.5,7.5,8.8,13.3,17.1,15.6c3.6,1,5.1,3.4,6.8,6.5
		c3.4,6,6.7,12.6,11.7,16.9c6.2,5.2,9.4,11.6,13.1,18c-3.4,4.7-6.3,8.7-9.4,13.1c-1.5-1.6-2.3-2.2-2.8-3c-0.7-1.1-1.5-2.5-1.5-3.7
		c0.9-14.4-11.4-22.8-15.8-34.8c-2.2-6.1-5.6-6.3-11.1-3.3c-8.2,4.5-9.4,4.4-16.5-1.9c-4.2-3.8-8.1-7.9-12.3-11.7
		c-2.1-1.9-4.4-3.7-6.4-5.3c-4.6,2.5-4.4,5.8-3.5,9.1c0.8,2.9,1.9,5.7,2.8,8.5c5.3,16.2,9.4,32.6,8.7,49.9c-0.2,4.2-0.1,8.7-5.5,12
		c-6.6-7-13.7-13.5-19.7-21c-22.2-27.5-41.3-57.2-58.3-88.1c-8.6-15.5-14.8-32.5-14.8-50.3c0-13.4-5.4-21.2-16.5-26.6
		c-1.5-0.7-2.8-2-4.3-2.4c-2.2-0.6-4.6-1.2-6.8-1c-6.9,0.5-13.8,1.3-20.7,2c-3.7,0.4-5.7,2.3-4.6,6c0.9,3.2,2.3,6.2,3.6,9.3
		c5.7,13,14,25.1,15.2,39.9c0.2,2.1,1.9,4.1,3.2,6.1c10.3,16.3,20.8,32.5,30.9,49c5.2,8.5,9,17.6,8.5,28.8c-2.9-1.1-5.2-1.6-7.1-2.7
		c-15.7-9.4-31.3-19-44.8-31.6c-17.2-16.2-33.9-32.8-47.3-52.6c-10.1-14.8-17.8-30.6-22-47.8c-2.5-10.2-7.1-18.1-14.4-25.5
		c-9.5-9.8-17.9-20.6-26.6-31c-3.6-4.3-5.3-8.9-2.2-14.7c1.2-2.2,0.9-6.4-0.5-8.4c-3.2-4.5-7.3-8.4-11.4-12.3
		c-3.4-3.2-7.2-5.8-10.8-8.7c-3.1-2.5-6-5.4-9.3-7.5c-11.2-7.2-22.6-14.1-34-21c-2.5-1.5-5.3-3-8.2-3.5c-4.4-0.8-7.1,3.2-4.7,7
		c1.8,2.7,4.4,4.9,7,7c9.4,7.8,18.8,15.4,28.3,23.1c0.5,0.4,1,0.9,1.4,1.5c8.7,11.3,17.8,22.4,26,34.1c14,20,23.5,42.5,34.8,63.9
		c1.3,2.5,2.5,5.9,1.9,8.5c-1.8,8.3,1.8,14.8,5.6,21.7c2.3,4.3,4.6,9,5.2,13.8c1.1,8.6,5.6,14.7,11.3,20.5c4,4,8,8,11.7,12.2
		c11.7,13,25,23.8,40.9,31.3c7.3,3.4,19.1,14.1,21.8,19c-10.7,5.3-12.6,11.5-4.9,21c4.5,5.6,10.3,10.3,16.1,14.7
		c6.8,5.1,14.6,8.8,20.4,16.5c-2,1.1-3.4,2.6-4.6,2.4c-2.9-0.6-5.6-1.9-8.4-3c-9.6-3.5-19.3-7.1-29-10.5c-3.4-1.2-6.5-0.5-8.7,2.8
		c-2.2,3.3-1.4,6.2,0.2,9.3c3.4,6.6,7.7,12.3,13.6,16.9c7.4,5.7,15.4,10.9,21.4,17.8c11.3,12.9,23.3,24.6,38.2,33.1
		c6.9,3.9,7.7,5.4,6.5,13.7c-0.9,5.8-0.8,11.2,2.7,16.3c0.7,1.1,0.4,2.8,0.6,4.3c-3.9-1.1-6-3.7-8.6-5.3c-2.6-1.5-6.2-3.3-8.7-2.6
		c-3.5,1-3.7,5-3,8.6c2,9.6,5.6,18.5,12.5,25.7c4.9,5.1,11.6,6.2,18.2,6.4c2,0.1,4.4-2.3,6.1-4c1.2-1.1,1.6-3.1,3.2-6.5
		c5.6,9.2,9.8,17.1,14.9,24.4c3.5,5.1,7.9,9.7,12.4,14c4,3.9,8.6,7.3,13,10.9c3.3,2.8,6.3,5.8,9.7,8.4c5.5,4.2,11.4,8,16.9,12.4
		c10.4,8.4,20.9,16.8,22,31.7c0.1,1.8,1.3,4.3,2.7,5.2c8.6,5.5,17,12.3,26.5,15.5c6.6,2.2,11.3,4.6,14.3,10.6
		c0.4,0.9,0.8,1.8,1.4,2.7c3.5,5.1,7.2,6.4,10.7,3.8c3.1-2.4,3.3-6.1,0-10.6c-1.7-2.4-3.9-4.6-6.1-6.5c-12.8-11.1-25.7-22-38.6-33
		c-2.3-2-5.7-3.4-5.2-9c5.3,1.9,10.5,2.6,14.3,5.3c19.6,13.8,38.8,28.1,58.1,42.3c1.3,1,2.4,2.4,3.6,3.4c5.5,4.7,10.9,9.6,16.7,14
		c7.9,6,16.2,11.6,24.2,17.5c2.9,2.1,5.8,4.6,2.6,9c-11.7-7.5-23.1-14.8-34.6-21.9c-3.1-1.9-6.3-4.1-9.7-5.1c-2.9-0.8-7.4-1-9.2,0.6
		c-1.6,1.4-1.1,6.2-0.2,9c5.6,16.5,15,30.1,31,38.5c6.6,3.4,6.7,6.6,1.5,12.4c-0.9,1-1.7,1.9-3.1,3.4c1.6,6.2,2.3,12.9,5,18.7
		c4.2,9,10,17.2,14.8,25.9c4.2,7.6,11.3,11.1,19,13.5c6.6,2.1,9.4-0.7,8.3-7.6c-0.8-5.2-2-10.3-3-15.3c12.4-3.7,16.2-2.9,21.7,6.8
		c5.4,9.6,15,13.9,22.9,20.4c1.8,1.5,5.2,1.9,7.6,1.5c5.5-1,7.8,1.6,9.7,6.2c1.4,3.4,3.6,6.4,5.5,9.6c1.7-2.9,1.8-5.1,1.3-7.2
		c-1.6-6.1-4-12.1-5.1-18.3c-2.3-12.4-8.4-22-18.1-29.9c-8.3-6.7-7.5-9.3,2.5-13c0.6-0.2,1-0.9,1.8-1.7c1.7-9,0.1-18.2-2.8-27.1
		c-5.6-17.4-11.9-34.6-17.7-52c-6.4-18.9-12.3-38-19-56.8c-5.3-14.7-12.3-28.8-17.2-43.6c-3.8-11.4-7.4-22.5-13.6-33
		c-6.3-10.6-10.1-22.6-8.7-35.4c0.6-5.6-1-10.3-4.3-14.9c-4.2-5.8-7.7-12.1-12-19c11-0.5,8.3,11.5,17,15.3
		c-3.8-12.9-7-23.7-10.3-34.4c-1-3.2-2.2-6.2-3.1-9.4c-3.9-13.7-7.3-27.6-12-41.1c-2-5.8-6-11.1-10-15.9c-10-12-20.4-23.7-27.9-37.6
		c-1.6-2.9-3.4-5.8-5.8-8.1c-9.3-8.9-15.7-19.8-21.9-30.8c-2.6-4.7-5.7-8.9-11.2-10.9c-3.8-1.3-5.6-3.9-5.7-8.3
		c-0.1-2.9-1.8-6.5-4-8.3c-12.7-10.7-26.6-18.7-43.9-19.2c-8.2-0.3-9.9-4.1-5.4-10.9c0.9-1.4,2.1-2.5,3.3-3.7
		c8.2-8.6,8.3-10.8,0.6-20c-6.6-7.9-13.4-15.7-20.1-23.6C3378.3-170.7,3373.9-176,3369.1-181.6z M3049.6-320.7
		c1,12.1,0.9,12.1,10.2,19.4c3.4,2.7,6.8,5.3,10.4,7.7c16.8,10.8,33.4,21.9,50.5,32.1c6.7,4,14.5,6.2,22,8.7
		c3.6,1.2,7.2,0.2,9.7-3.4c4.3-6.2,10.6-7.4,17.6-7.1c4.6,0.1,9.4,0.4,13.9-0.5c4.8-1,8.6,0,12,3.1c12.3,11.2,24.6,22.5,36.6,33.9
		c4.1,3.9,7.1,8.8,11.1,12.9c5.4,5.6,8.9,4.6,11.3-2.8c0.7-2.2,1.3-4.5,1.7-6.8c1-6.6,4.6-11.7,8.8-16.5
		c11.9-13.7,11.9-13.7,4.1-29.8c-0.7-1.5-1.4-3-2.3-4.4c-8.7-15-16.2-30.6-20.3-47.6c-1.2-5.1-2.6-10.9-5.8-14.8
		c-11.8-14.3-23.6-28.9-39.6-39.1c-1.4-0.9-3.4-0.8-7.3-1.6c2.6,5.5,3.9,9.6,6.2,13c10.4,15.4,16.7,32.5,21.4,50.2
		c1.8,6.7,2.6,13.7,3.1,20.7c0.4,5.6-0.9,11.1-6.5,15.8c-2.9-2.7-6.1-4.7-7.9-7.6c-5.8-9.3-11.1-18.9-16.6-28.4
		c-3.3-5.7-6.5-11.6-10.3-17c-3.8-5.4-8.2-10.4-12.6-15.4c-1.8-2-4.4-3.3-7.5-5.5c-3.5,10.4,7.8,18.8,0.6,27.9
		c-1.6-0.7-2.9-1-3.9-1.7c-20-13.8-35.2-32.4-49.9-51.3c-3.4-4.4-6.7-9.2-9-14.3c-5.9-13.1-13.3-25.1-22-36.7
		c-7.5-10.1-14.2-21-19.8-32.2c-5.6-11.3-9.8-23.3-13.8-35.2c-2.6-7.7-7.8-11.7-14.7-14.7c-3.9,4-1.4,7.2,0.3,10.3
		c5.7,10.6,10.7,21.4,13.6,33.2c2.3,9.2,7.1,17,12.6,24.7c6.6,9.1,12.1,19.1,17.7,28.8c1.4,2.4,3.1,5.4-0.7,8.7
		c-3.3-1.2-6.9-2.7-10.7-3.7c-6.1-1.8-8.5-0.6-11.1,5.1c-0.7,1.5-1.2,3.1-1.7,4.7c-1.4,4-3.5,5.9-8.2,4.9c-6-1.2-12.2-1.5-19.4-2.4
		c-4.3,8.7,4.3,19.8-3.7,29.7c-2.7-1.6-5.8-2.7-8.1-4.8c-16.8-15.2-32.7-31.4-45.2-50.4c-4.3-6.5-10.3-9.3-17.2-10.6
		c-5.4-1-7.4,1.5-5.7,6.9c2.5,8,6.4,15.2,12.4,21.4c12.2,12.7,24.1,25.8,35.9,38.8c6.2,6.9,11.3,15.1,18.4,20.8
		C3022.2-334.5,3031.3-320.1,3049.6-320.7z M2796.2-242.1c-0.3,8.7-3.6,15.3-10,20.5c-9.3,7.7-13.7,7.7-20.2-2.6
		c-8.9-14-17.4-28.3-24.6-43.2c-6.1-12.5-15.4-21.5-26.2-29.3c-6-4.3-9-2.8-11.8,4.5c-2.7,6.9-0.4,15.2-5.8,21.5
		c-0.8,1,0.2,3.9,0.9,5.7c1.4,3.7,3.3,7.3,4.7,11c4.6,12.1,9.8,24,13.3,36.4c2,6.8,4.8,12.6,10.5,16.3c9.7,6.5,17.7,14.6,25.4,23.4
		c18.4,21,37.9,41.1,56.9,61.5c5.9,6.3,11,7.9,18.7,4.2c5.2-2.5,10-2.6,15.4-1.8c9.5,1.4,19.1,2.4,28.7,3.5c8.9,1.1,11.6-2,9.5-10.9
		c-0.2-1-0.5-1.9-0.8-2.9c-7.1-21.6-11-43.8-13.5-66.3c-0.4-3.3-0.8-6.8-2.4-9.6c-11.4-20.8-17.4-43.7-25.9-65.7
		c-5-13-8.1-26.7-16.3-38.4c-1.7-2.4-2.7-5.3-3.6-8.1c-4.3-13.1-12.7-21.4-26.5-24.3c-6.5-1.4-12.8-3.7-19.1-5.6
		c-2.5-0.8-5-1.9-7.6-2.2c-3.7-0.5-5.9,1.6-5,5.4c1,3.9,2.5,7.6,4,11.3c7.5,17.7,15.5,35.3,22.4,53.2
		C2791.2-264.2,2793.3-253,2796.2-242.1z M2960.6-221.1c-2.3-10-9.3-15.3-15.7-20.9c-6.7-5.9-13.9-11.3-20.7-17.2
		c-5-4.4-10.7-8.5-14.2-13.9c-7.1-11.2-13-23.2-19.2-34.9c-0.9-1.7-0.9-3.8-1.3-5.8c-2.1-12.6-8-24.2-10.3-36.7
		c-0.1-0.6-0.6-1.2-0.9-1.8c-9.3-15.6-24.3-25.1-38.4-35.5c-0.2-0.1-0.6,0.2-1.5,0.5c-2.2,8.9,8.1,14.8,6.1,25.8
		c-3.8-4.5-7-7.7-9.3-11.4c-3.9-6.1-6.5-13.3-11-18.9c-19.4-24.2-38.3-48.7-55.3-74.5c-1.7-2.5-3.6-5.6-7.8-5.3
		c-0.1,1.3-0.5,2.4-0.2,3.2c4.1,12.3,8.2,24.6,12.4,36.9c1.7,5.1,3,9.9,1.2,15.5c-1.5,4.6-1,9.9-1.3,14.8
		c-0.4,7.4,2.7,13.3,9.3,16.4c7,3.3,11.2,9.2,16.4,14.3c4.9,4.9,9.8,9.8,14.7,14.8c9.1,9.2,19.1,17.8,27.2,27.9
		c7.5,9.3,13.7,19.5,23.6,26.6c2.2,1.6,3.4,4.9,4.4,7.6c3.7,11,12.4,17.7,20.9,24.6c5.9,4.8,12.6,8.8,17.4,14.5
		c8.9,10.8,18.3,20.8,28.9,30C2943.5-217.6,2950.9-217.4,2960.6-221.1z M2542.1-445.1c-0.3,2.5-0.7,5-0.9,7.5
		c-0.3,4.1-2.5,6.9-6.4,4.8c-6.4-3.4-10-0.2-13.4,4.4c-2.4,3.2-5.4,4.7-9.4,4.4c-5.6-0.4-11.6,0.5-13.5,6.1
		c-2.1,6.1,3.8,9.1,7.8,12.5c9.6,8.1,19.2,16.3,28.6,24.8c2.4,2.2,3.9,5.4,5.9,8.2c-0.5,0.7-1,1.3-1.5,2c-8.1-2.6-16.3-5.2-24.4-7.8
		c-0.1,3.7,0.5,6.1,2,7.5c15.8,15,31.8,29.9,47.7,44.8c5.6-3.4,6.6-7.1,5.2-12.4c-1.3-5.1-2.5-10.6-1.9-15.7
		c1.2-10.2,2.9-20.4,5.8-30.2c1.9-6.5,2.3-12.2-1.1-18.1C2564.3-417.4,2555.1-431.9,2542.1-445.1z M2421.5-144
		c0.4-1,0.8-1.9,1.2-2.9c-2.5-2.4-4.8-5.2-7.7-7.1c-15.7-10.6-31.3-21.4-47.4-31.3c-11.3-6.9-23.1-13.2-35.1-18.6
		c-5.8-2.6-12.8-3-19.3-3.8c-4.4-0.5-8.6,0.5-10.7,5.3c-1.9,4.5,0.5,7.6,3.3,10.7c12.2,13.6,24.4,27.2,36.6,40.7
		c3.3,3.7,6.7,7.4,10.4,10.7c8.9,7.6,25.4,9.1,35.4,2.9c7.1-4.4,14.7-5.8,22.8-6.1C2414.5-143.7,2418-143.9,2421.5-144z
		 M3054.4-215.8c-0.5-3.6-0.3-6.3-1.4-8.5c-3.1-6.2-6.2-12.5-10.1-18.2c-5.2-7.7-12.6-14.2-16.3-22.4c-3.8-8.5-4.1-18.6-6.4-27.8
		c-0.9-3.7-2.2-7.9-4.7-10.7c-9.1-9.8-14.5-21.3-17.8-34.1c-0.9-3.3-2.8-6.8-5.2-9.3c-10.7-11.3-25.1-13.8-39.6-15.8
		c-0.3,0-0.8,0.9-1.5,1.8c2.4,8.7,12,11.5,17,19.2c-6.1,2.5-5.7,6.3-3.2,11.2c6.8,13.3,13.2,26.7,17.8,41.1
		c3.1,9.7,9.4,18.2,18.8,23.9c3,1.8,6,4.3,8.1,7.2c6,8.3,11.1,17.3,17.3,25.4C3033.6-224.4,3042.4-218.6,3054.4-215.8z M3203-35.1
		c-3-1.7-6.6-3.8-10.3-6c-11.2-6.5-22.2-13.3-33.6-19.4c-6.9-3.7-12.4,0.3-10.4,7.9c1.6,6.2,4.4,13.1,8.8,17.5
		c5.9,5.8,10.2,12,13.6,19.3c0.8,1.8,1.9,3.6,3.4,4.9c8.9,7.6,16.5,16.2,22.6,26.2c1.8,3,6.2,4.7,9.8,6.2c1.8,0.8,5,0.5,6.5-0.7
		c4.4-3.5,9.7-7,11.8-11.8c2.7-6.1,6.1-7.6,12.1-7.8c8.4-0.2,11.1-6,5.9-12.6c-3.8-5-8.3-9.5-12.9-13.8
		C3223.1-32,3215.8-39.4,3203-35.1z M3179.4-440.2c-0.5,0.6-1,1.3-1.5,1.9c1.1,2.2,2,4.7,3.5,6.7c15.2,20.2,30.4,40.3,45.7,60.5
		c1,1.3,2.1,2.6,3.5,3.5c2.9,1.8,5.9,1.6,7.7-1.6c1.3-2.3,2.3-4.8,3-7.3c1.6-5.2,4.7-9.1,9.4-13c2.9,4.6,5.3,8.6,7.8,12.5
		c6.7,10.7,12.6,22,20.3,31.9c6.5,8.3,14.9,15.1,22.5,22.5c4.9,4.8,9.3,6,12.2,3.5c3.2-2.9,1.4-6.8-3.7-12.6
		c-6.3-7.2-13.3-14.5-17-23c-5-11.4-12.6-20.2-21-28.7c-6.3-6.3-13.3-11-19.9-11c-6.9-5-11.9-8.6-16.9-12.2
		c-4.1-2.8-8.2-5.6-12.4-8.3c-12.2-7.9-24.5-15.9-36.8-23.7C3184-439.8,3181.5-439.7,3179.4-440.2z M2671.7-437.2
		c0.8,3.9,0.8,5.9,1.6,7.6c2.9,6,6.2,11.8,9,17.8c5.1,11.2,10,22.5,15,33.7c0.7,1.5,1.5,3.1,2.7,4.1c4.9,4.1,4.1,9,3.1,14.6
		c-1,5.8-1.3,11.9-0.6,17.7c0.8,6.6,2.9,13,4.7,19.4c2.4,8.7,8.5,15,15,20.7c3.6,3.2,7.2,1.5,7.9-3.1c0.3-1.9-0.2-4-0.3-5.9
		c-0.6-10.1,2.6-19,8.6-26.9c2-2.6,4-5.3,5.4-8.3c3.8-8.1,3.1-10.4-3.6-16.4c-18.1-16.3-35.3-33.4-47.2-55.1
		c-1.9-3.5-4.4-6.6-6.9-9.8C2682.9-431.5,2678.9-434.9,2671.7-437.2z M3295.2,144.3c-6,1.6-8,4.9-6.8,9.4c1.1,4.4,2.5,9.1,5.2,12.5
		c4.5,5.7,9.1,11.1,13,17.3c14.6,23.4,29.6,46.5,44.5,69.6c2.1,3.3,4.2,8,7.4,9.1c6,2.1,7.8,6.7,10.1,11.4c1.3,2.7,2.4,5.8,4.6,7.6
		c2,1.7,5.5,3.2,7.7,2.6c2.1-0.6,4.3-3.9,4.9-6.4c3.2-13-2.3-23-11.5-31.8c-3.1-2.9-6.4-6.1-8-9.9c-7.3-17.5-20-31.2-31.4-45.9
		c-4.9-6.2-10.8-11.6-16.4-17.3c-5.7-5.9-12.1-11.2-15.5-19.2C3301.5,149.8,3297.7,147,3295.2,144.3z M3014.1-211.1
		c-8.6-0.4-11.1,2.2-8.6,10.7c1.4,4.9,4.3,9.7,7.4,13.8c4.4,5.9,9.4,11.1,11,18.7c0.5,2.3,2.7,4.9,4.8,5.9c4.8,2.2,6.7,6.2,8.6,10.5
		c2.9,6.7,6.7,12.9,12.2,18c5,4.6,10.4,9.5,9.2,17.7c-0.2,1.1,1,2.4,1.4,3.7c3.2,11.1,11.5,18.4,19,26.4c9.2,9.7,14.4,9.4,21.2-2.3
		c0.8-1.4,1.6-2.9,2.1-4.5c2.7-8.4-1.3-15.6-9.5-19c-5.1-2.1-9.6-5.6-14.2-8.6c-3.8-2.5-7.4-5.4-11.3-7.7c-3.6-2.1-7.4-4.2-7.2-8.8
		c0.7-15.7-8.6-27-17.3-38c-4-5.1-7.3-9.3-8.4-16C3032.7-201.9,3023-210.7,3014.1-211.1z M3137.6-122.6c0.4-6.4-0.9-11.6-4.9-16.1
		c-10.2-11.4-20.6-22.7-30.2-34.5c-8.9-10.9-20.4-16.8-33.4-20.6c-8.5-2.4-13.6,2.1-10.3,10.4c4.5,11.4,10,22.5,16.4,32.9
		c2.7,4.5,8.2,7.7,13.1,10.4c8.4,4.7,17.6,8,25.9,12.8C3121.5-123,3129.1-122.9,3137.6-122.6z M2906,95.6c4.7-2.1,4.8-5.7,3.8-9.4
		c-5.5-20.1-10.5-40.4-16.9-60.3c-1.6-5-7.5-8.7-11.5-12.9c-9.5,1-13.1-5.8-16.6-12.7c-0.6-1.2-1.4-2.5-2.4-3.1
		c-2.4-1.3-5.6-3.5-7.6-2.8c-3.5,1.1-4.4,5.2-2.8,8.4c2.5,5.3,5.8,10.3,8.7,15.4c1.9,3.3,5.2,6.7,5.3,10.1
		c0.2,10.5,4.5,19.2,10,27.6c5.6,8.6,11.1,17.3,16.8,25.8C2896.3,87.2,2900,92.6,2906,95.6z M2475.1-39.7c-2.1-3.9-2.9-6-4.2-7.7
		c-14.8-18.2-32.2-33.4-52.2-45.7c-13.8-8.5-27.3-17.6-41-26.3c-2-1.3-4.3-2-6.4-3c-0.5,0.6-1.1,1.2-1.6,1.8
		c1.5,2.3,2.7,4.9,4.5,6.9c9.9,10.8,20,21.3,29.9,32.1c9.5,10.4,19.9,19.4,33.4,24.6c4,1.5,7.5,4.2,11.3,6.3
		c5.8,3.2,11.6,6.4,17.6,9.3C2468.3-40.5,2470.8-40.5,2475.1-39.7z M2366.1-762.2c-7,6.2-14.1,12.5-20.8,18.4
		c1.3,3.5,2.1,5.8,3.1,8.7c-5-0.3-8.8-7.1-13.6,0.3c8.7,6.7,17.2,13.4,25.9,19.9c1.3,1,3.5,2.1,4.6,1.6c8-3.3,12.1,2.8,17.3,6.5
		c2.7,1.9,5.5,3.9,8.6,5.1c1.9,0.7,5.1,0.8,6.2-0.3c1.2-1.1,1.1-4.2,0.8-6.3c-0.3-1.9-1.5-3.7-2.3-5.5c-5.7-11.6-11.7-23.2-17.1-35
		C2376.1-754.5,2372.3-758.7,2366.1-762.2z M2749.8-520.2c9.4,20.5,23,37.5,38.3,56.1c2.3-13,2.6-23.5-4.9-32.8
		c-7.5-9.3-15.9-18-23-27.5c-3.8-5.1-7.5-7.8-13.6-5.6c-6.2-19.9-14.3-27.6-26.5-26c1.7,13.9,11.8,32.1,22.4,39.7
		C2744.6-517.4,2746.8-518.6,2749.8-520.2z M2697.3-219.9c0.4-0.9,0.9-1.7,1.3-2.6c-1.3-1.7-2.4-3.6-3.9-5.1
		c-7.6-7.4-15.1-14.8-22.9-21.9c-1.7-1.6-4.5-2.4-6.9-2.9c-10.5-2.1-21.4-2.7-28-13.7c-3-5.1-8.9-6.1-11-3.5
		c-3.6,4.3-0.8,8.4,1.7,11.7c7,9.3,14.2,18.4,21.6,27.3c3.1,3.8,7.1,5.7,12.4,3.3c1.8-0.8,4.5-0.3,6.6,0.2c6.7,1.8,13.3,4.1,20,5.9
		C2691-220.4,2694.2-220.3,2697.3-219.9z M2957.5-253.6c0.1,8.5,3.9,15.8,9.7,20.7c3,2.5,6.5,4.7,9.1,7.6c6.3,6.9,13.5,6.3,21.6,1.4
		c11-6.6,11-17.9,0.4-24.4c-8.7-5.4-17.6-10.6-26.4-15.7c-5.3-3.1-7.5-2.7-10.7,2.2C2959.3-258.9,2958.2-255.4,2957.5-253.6z
		 M2198.8-262.8c0.8,12.4,8.5,24.3,17.9,28.7c10.2,4.8,20.4,9.8,30.7,14.4c2.4,1.1,5.4,1,8.1,1.4c0-2.8,0.3-5.7-0.2-8.4
		c-0.3-1.8-1.7-3.6-2.9-5.1c-8-10.2-16-20.4-24.2-30.5c-1.9-2.3-4.1-4.5-6.5-6.1c-4-2.7-6.6-1.5-8.2,3.2c-1,2.9-1.9,5.8-3.1,9.2
		C2205.8-258.7,2202.6-260.6,2198.8-262.8z M2618.9-515.6c-0.5,0.7-1,1.3-1.6,2c2.4,3.3,4.4,7.1,7.4,9.8c14,12.7,28.3,25,42.6,37.4
		c1.5,1.3,3.4,2.1,5.3,2.8c4,1.5,7.5-0.1,8.2-4.3c0.4-2.5,0.4-5.6-0.8-7.7c-4.3-7.8-8.8-15.6-13.9-22.9c-1.7-2.4-5.3-4.7-8.1-4.8
		c-11-0.4-20.5-5.2-30.3-9.2C2624.9-513.6,2621.9-514.5,2618.9-515.6z M3455.4-176.6c-1.5,8.3-1.6,8.3,1.2,14.2
		c10.6,23.5,17.6,48,20.4,73.5c0.7,6.4,3.9,10.7,9.6,12.6c2.9,1,7.2,1.4,9.3-0.1c1.8-1.4,1.6-5.7,1.8-8.8c0.1-1.6-0.7-3.2-1.2-4.8
		c-4.8-15.6-11.1-30.5-19.4-44.6c-5.4-9.1-10.2-18.6-10.9-29.6C3465.9-170.1,3462.2-174.4,3455.4-176.6z M2161-435.3
		c-1.7-2.9-2.3-4.5-3.4-5.7c-9.4-10.7-18.8-21.5-28.5-31.9c-9.1-9.7-19.2-18.4-31.4-24c-1.5-0.7-3.3-0.7-6.7-1.4
		c7.2,11.9,13.6,22.3,19.9,32.7c0.3,0.6,0.9,1,1.4,1.4c8.6,7.7,17.2,15.6,26,23.2C2144.3-435.9,2151.5-434.2,2161-435.3z
		 M2927.1-467c0.2-3,0.4-3.7,0.2-4.2c-7.1-16.9-14.1-33.7-21.4-50.5c-1.1-2.6-3-6-5.3-6.7c-7.4-2.5-15.1-4-23.9-6.1
		c0.6,3.4,0.5,5.5,1.4,7.1c10.5,18.2,22,35.7,35.6,51.7C2916.7-472.2,2921.7-470.4,2927.1-467z M3304.5-284c0.2,0.7,0.3,1.7,0.7,2.6
		c5.9,11.5,10.1,24.4,18.2,34.1c7,8.3,18.4,13.2,28.1,19c2.8,1.7,5-1,4.7-4.3c-0.2-1.5-1.2-3-2.1-4.4c-4.2-6.7-8.3-13.6-12.8-20.1
		c-1.8-2.6-4.5-4.6-6.9-6.8c-3.6-3.3-7.3-6.4-10.8-9.8c-4.5-4.3-8.7-9.1-13.5-13.1C3307.4-289,3304.5-287.3,3304.5-284z
		 M2860.3-420.8c-0.6,0.6-1.3,1.1-1.9,1.7c0.1,1.3-0.3,2.7,0.2,3.7c7.2,14.2,14.5,28.4,21.8,42.5c0.4,0.9,1.2,1.6,1.8,2.4
		c3.7,4,7.8,2.2,12,1.1c4.1-1.1,6.5-3.8,6.3-7.8c-0.3-7.3-1.2-14.2-8.5-19.1c-8-5.3-15-12-22.6-17.9
		C2866.7-416.6,2863.4-418.6,2860.3-420.8z M3141.6-507.5c-1.8,5.8,0.4,10.1,2.9,14.4c3.6,6.3,7,12.7,10.3,19.2
		c3,5.8,7.1,10.1,13.3,12.7c7.6,3.2,14.8,7.4,22.2,10.9c2.7,1.3,5.8,1.8,8.7,2.7c0.5-0.7,0.9-1.4,1.4-2.1c-1.6-2.2-3-4.8-5-6.7
		C3177.7-473.4,3161.1-491.8,3141.6-507.5z M3131.2-111.6c1.6,15.9,24.7,39.5,39.9,41c5-9.5,4.3-14.5-2.9-21c-2.7-2.4-5.1-5.2-8-7.5
		c-5.2-4.1-10.4-8.3-16-11.7C3140.3-113.1,3135.7-114.6,3131.2-111.6z M2758.4-613.3c0.5-0.4,1-0.9,1.6-1.3
		c-11.5-19.9-18.3-41.4-22-63.8c-1.6-9.2-7.2-13.8-13.4-18.7c-1.2-0.9-3.8-0.8-5.4-0.1c-1,0.4-1.8,2.9-1.4,4.2
		c1.9,7.7,3,15.9,6.6,22.7c8.7,16.8,18.6,33,28.1,49.4C2754.1-618.2,2756.4-615.9,2758.4-613.3z M2396.3-818.7
		c-9.5,7.8-10.9,12.5-6.9,21.9c4.8,11.3,9.7,22.6,14.6,33.8c1,2.3,2.6,4.3,4.4,7.2c2.4-6.8,5-12.3,6.1-18.1c0.8-4,0.3-8.6-1.1-12.4
		c-2.1-5.9-5.4-11.4-8.3-17C2402.3-808.5,2399.3-813.5,2396.3-818.7z M2483.8-673.9c-3.9,14.3,8.7,30.6,22.3,29.9
		c6-0.3,8.6-3.8,5.7-9.3C2505.9-664.7,2496.8-672,2483.8-673.9z M2740.8-573.8c0.9,7.4,5.5,11.2,11.2,13.2
		c9.7,3.6,18.8,8.1,27.1,14.4c2.5,1.9,5.5,4.2,9.8-0.2c-10.2-10.9-23.5-17.5-35.2-26C2750.4-574.9,2746.2-576.7,2740.8-573.8z
		 M3143.1-382.6c0.9-13.5-17.9-39.3-31.2-41c6.3,14,15.8,25,24.3,36.6C3137.9-384.8,3139.2-381.4,3143.1-382.6z M2493.8-342
		c1.8,4,2.8,7.5,4.7,10.3c5.5,7.9,11.2,15.7,17.2,23.1c1.6,1.9,5.6,4.2,7.1,3.4c3.9-1.9,1.6-5.6,0.5-8.7c-0.1-0.3-0.2-0.7-0.4-0.9
		c-8.3-9-16.5-18-24.9-26.9C2497.6-342.2,2496.3-341.9,2493.8-342z M2522.4-513.5c2.3,8.7,5.9,16.6,11.6,23.4
		c1.2,1.4,4.6,2.5,5.9,1.7c2-1,4-3.6,4.4-5.8C2546.4-504.2,2534-515.4,2522.4-513.5z M2020.2-866c-0.7,10.1,8.6,28.7,16.5,33.1
		C2039.9-846.8,2035.8-855.3,2020.2-866z M2727.9,310.5c-0.3-9.6-3.4-18.3-7.7-20.9c-2-1.2-5.5-2.2-7.1-1.3
		c-1.5,0.9-2.3,4.9-1.5,6.9c2.3,5.8,5.3,11.4,8.5,16.7c0.9,1.4,3.8,2.4,5.6,2.2C2726.8,314,2727.6,311.2,2727.9,310.5z M2436.9-48.4
		c4.9,10.5,12.5,17.1,19.9,23.8c0.8,0.7,3.8,0.5,4.4-0.4c1-1.4,1.6-4,0.9-5.3c-4.2-8.1-9.7-15.1-18.4-18.7
		C2442.3-49.5,2440.2-48.7,2436.9-48.4z M3171.8-416.4c-3-12.6-11.1-21.7-20.3-23.3C3149.3-427.6,3158.6-416.6,3171.8-416.4z
		 M2460.7-367.6c5.4-14.3-0.3-26.4-12.7-29.1C2447.5-385.1,2453.2-376.9,2460.7-367.6z M2833.6-455c-5,1.9-4.3,4.7-2.9,7.1
		c3.9,6.9,8.1,13.7,12.4,20.4c0.9,1.3,2.9,1.9,4.7,2.9c2.3-5,2.3-9.3-0.4-13C2843-443.5,2838.4-449.1,2833.6-455z M3064.3-256.8
		c7.9-8.2,7.4-17.7-0.9-22.7C3053.3-266.1,3053.3-264.8,3064.3-256.8z M3216.5-183.6c0.1,6.1,4.5,11.7,8.4,11.7
		c4.4,0.1,8.4-3.9,8.3-8.1c-0.1-4.3-5.3-8.6-10.5-8.6C3218.9-188.5,3216.6-186.7,3216.5-183.6z M2369.1-854.2
		c0,13.3,7.9,20.8,19.3,18.4C2383.7-843.7,2379.4-851.1,2369.1-854.2z M3787.9,561.3c-5.4,0.1-9.2,3.7-8.8,8.6
		c0.3,3.7,2.4,6.2,6.2,6.6c3.6,0.3,10-5.8,10.3-9.5C3795.9,563.4,3792.9,561.2,3787.9,561.3z M2407.9-418.9
		c3.6,9.3,7.1,16.6,13,22.7c4.7-3.1,4.8-6.4,3.2-10C2421.5-412.5,2417.8-417.7,2407.9-418.9z M3447.8-192
		c-1.6-10.3-7.2-17.4-13.1-24.3c-1.1-1.2-3.7-1.1-6.2-1.8C3431-207.8,3439-196.9,3447.8-192z M2417.8-814.5
		c-0.7,0.3-1.4,0.6-2.1,0.9c1.1,7.5,3.6,14.4,9.3,20c7.4-6.8,7.6-8,1.9-13.6C2424.2-809.9,2420.9-812.1,2417.8-814.5z M2586.6-379.3
		c2.5,4.4,4.9,9.1,7.8,13.4c0.6,0.9,3.5,1.5,4.2,0.9c1.3-1,2.9-3.6,2.5-4.6c-2.1-4.8-4.6-9.4-7.4-13.8c-0.6-0.9-3.2-1.2-4.3-0.7
		C2588.3-383.4,2587.8-381.4,2586.6-379.3z M2863.6-525.4c2.6-12.7-0.2-16.1-10.7-14.3C2853.9-529.3,2855-527.8,2863.6-525.4z
		 M3038.1-551.1c-2.4,9.3,3.3,14.9,17.3,17.1C3050.9-541.8,3045.8-547.3,3038.1-551.1z M3363-441.8c2,5.7,9.1,12.6,16.5,16.6
		C3379.3-436.2,3375.4-440.4,3363-441.8z M2926.2-573.3c-0.1,5.1,5.8,10.9,9.3,10.1c1.6-0.4,3.8-2.7,4-4.3c0.4-3.9-4.1-8.5-8-8.3
		C2929.4-575.8,2927.5-574,2926.2-573.3z M2951.2-531.6c1.2-9.4-1.7-12.7-10-12C2941.1-537.2,2944.4-533.7,2951.2-531.6z
		 M1654.4-950.9c-1-9.4-5.4-13.3-13.8-12.6C1644.7-958.8,1646.3-952.3,1654.4-950.9z M3010.1-538.9c-2.9-10.2-5.8-12.8-13.8-12.3
		C2997.8-543.7,3003.5-541.3,3010.1-538.9z M3381.7-338.8c0.2-6.5-3.2-13.2-6.8-13.1c-0.8,0-1.9,0.8-2.3,1.5
		C3370.9-346.9,3375.3-341.4,3381.7-338.8z M3419.9-218.6c4.4-7.1,3.6-9.1-4.9-12.7C3412.2-225.7,3414.9-222.3,3419.9-218.6z
		 M2325.3-865.2c-3.5-4.9-4.3-10.1-10.1-11.1C2314-867,2314.7-866.1,2325.3-865.2z M2805.5-524.9c0.7-8.2-1.6-13.1-5.5-14.3
		c-1-0.3-2.8,0.2-3.4,0.9c-0.7,0.8-1.1,2.9-0.6,3.6C2798.4-531.8,2801.2-529.2,2805.5-524.9z M2290.4-698c0.8-0.7,1.6-1.3,2.5-2
		c-0.8-2.3-1-5.1-2.5-6.8c-1-1.2-3.8-1-5.7-1.4c-0.2,1.7-1.1,4-0.3,5.1C2285.9-701.1,2288.3-699.7,2290.4-698z M2338.5-902.3
		c-1.8-6.4-2.9-10.9-9.8-12C2329.6-908.5,2330.5-904,2338.5-902.3z M2766.1-604.8c-0.9,0.7-1.8,1.5-2.7,2.2c1.2,5.2,5,7.9,11.4,8.1
		C2771.8-597.9,2769-601.4,2766.1-604.8z M2744.7-614.2c-3.1-1.9-6.2-3.7-10.3-6.2C2736.1-612,2736.6-611.7,2744.7-614.2z
		 M2960.5-599.1c-0.4,1.1-0.8,2.2-1.2,3.3c3,1.9,5.6,4.9,12.3,0.9C2966.7-596.7,2963.6-597.9,2960.5-599.1z M2901.2-444.3
		c-0.1,4.7,2,6.8,6.3,8.3C2908.2-441.1,2905.9-443.1,2901.2-444.3z M3350-396.5c-0.8,5.4,1.7,7,5.7,8.6
		C3356.5-392.5,3355.1-394.8,3350-396.5z M3728.1,575.8c7.3-0.6,7.3-0.6,8.4-6.7C3733.6,571.5,3731.7,573,3728.1,575.8z
		 M3207.3-489.3c0.7-0.6,1.4-1.1,2.1-1.7c-0.1-3.4-1.9-5-7.7-5.2C3204.3-492.9,3205.8-491.1,3207.3-489.3z M2797.8-109
		c1.8,1.3,2.7,2.5,3.6,2.5c0.9,0,1.8-1.2,2.6-1.9c-0.8-0.8-1.5-2.1-2.4-2.3C2800.8-110.8,2799.7-109.9,2797.8-109z M3356.6-488.5
		c-0.8,1.3-1.6,2.2-1.4,2.6c0.2,0.8,1.1,1.6,1.8,1.8c0.5,0.2,1.3-0.7,1.9-1.1C3358.3-486,3357.7-487,3356.6-488.5z M3320-506.6
		c-0.4,0.2-0.8,0.4-1.2,0.6c0.8,1.5,1.5,3.1,2.3,4.6c0.4-0.2,0.9-0.4,1.3-0.7C3321.6-503.6,3320.8-505.1,3320-506.6z M3331.2-498.4
		c-0.6,1-1.5,2-1.3,2.3c0.3,0.7,1.4,1.4,2.1,1.3c0.5,0,1.5-1.3,1.4-1.8C3333.2-497.2,3332.2-497.6,3331.2-498.4z M3060.5-674
		c0.4-0.6,0.9-1.2,1.3-1.9c-1.6-0.9-3.1-1.8-4.7-2.7c-0.3,0.6-0.7,1.3-1,1.9C3057.6-675.7,3059.1-674.9,3060.5-674z"/>
	<path d="M617.7-761.1c9.5,19.4,18.7,39,28.6,58.2c11,21.3,22.6,42.3,33.9,63.4c5.2,9.7,10.3,19.4,15.5,29.1c3.2,6,7.8,10.7,13.8,14
		c21.8,12,40.6,27.8,57.7,45.7c12.7,13.3,24.4,27.3,32.5,44.1c4.8,10,8.6,20.2,8.5,31.5c0,7.5,3.6,12.6,10.2,17
		c28.7,19.3,58.8,36.8,84.3,60.4c19.1,17.6,37,36,52.3,57.4c13.9,19.4,31.2,36.2,54.3,45.9c11.3,4.7,21.8,11.4,32.2,17.9
		c18.5,11.7,37.2,23.4,54.9,36.2c14.2,10.3,27.1,22.5,40.7,33.8c4.6,3.8,9.4,7.4,14,11.2c3.8,3.1,7.5,6.2,11.2,9.3
		c-0.4,0.7-0.9,1.4-1.3,2c-9.9-5-20.2-9.4-29.7-15.1c-59.2-35.4-118.1-71.2-177.2-106.7c-9.4-5.7-18.9-11.1-28.3-16.8
		c-1.8-1.1-3.3-2.7-5.5-4.6c4.2-1.4,7.4-2.5,12.4-4.2c-3.4-4.1-5.5-7.4-8.3-9.8c-19.9-17.2-40.2-33.9-59.7-51.6
		c-13.8-12.5-26.3-26.4-39.5-39.5c-3.4-3.4-7.4-6.3-11-9.5c-5.7,6.4-6.5,10-2.9,15.7c1.9,3,4.8,5.5,7.4,8
		c5.8,5.5,11.9,10.7,17.4,16.4c5.6,5.8,6,11.3,0.1,16.5c-5.9,5.3-6.2,10.5-2.8,16.8c2.2,4.1,4.5,8.1,7,12.1
		c4.8,7.5,11.3,11.8,20.8,11.3c6-0.3,11.8,1.1,17.4,6.5c-5.3,3.6-10,6.9-15.4,10.6c-1,4.2,1.6,8.1,4.3,11.9
		c6.9,9.4,13.8,18.8,20.9,28c19,24.5,37.9,49,57,73.2c17.6,22.2,35.6,44,53.2,66c4.8,6,9.4,12.1,14.2,18c6.9,8.6,15.7,14,26.2,17.4
		c6,2,12.4,4,17.7,10.7c-4.7-0.8-7.8-1.2-12.6-2c0.4,4.3,0,8,1.3,10.9c1.7,3.9,4.2,7.7,7.2,10.6c16,15.5,32.3,30.8,48.5,46.2
		c4.7,4.4,10.3,6.2,16.5,5.6c6.6-0.7,9.1-5.9,5.4-11.4c-1.5-2.2-3.4-4.2-5.3-5.9c-16.2-14.3-32.5-28.6-48.7-42.9
		c-2.4-2.2-4.8-4.4-6.4-8c4.4,1.8,8.7,3.5,13.1,5.3c4.6,1.9,9.2,3.7,13.6,6c25.3,13.3,45,34,67.5,51.2c7.6,5.8,16.2,11,25.1,13.9
		c30.4,10,58.4,24.2,83.8,43.7c15.9,12.1,31.7,24.2,47.5,36.4c1.2,0.9,2,2.3,3,3.4c-0.3,0.6-0.7,1.2-1,1.8c-3.2-1.2-6.6-2.2-9.7-3.6
		c-31.4-14.8-60.1-34.2-89.8-52.2c-2.3-1.4-4.7-2.6-7.1-3.7c-0.8-0.4-1.9-0.1-4.4-0.1c1.5,3.1,2.2,6,3.9,8
		c12,14.2,24,28.5,36.3,42.4c8.2,9.2,16.9,18,25.4,26.9c6.4,6.7,12.3,14,21.5,17.5c2.5,1,3.9,4.9,5.6,7.6c3.3,5.3,5.8,11.4,9.9,15.9
		c7.2,7.8,25.2,7.5,33.1,0.3c3.2-2.9,3.3-5.9,0.1-8.4c-3.1-2.4-6.6-4.3-10.2-6.1c-4.6-2.2-9.4-4-15.1-6.4c4.2-4.2,8-3.2,11.4-2.7
		c7.6,1.2,15.1,2.9,22.6,4c4.6,0.7,9.4,1.5,13.9,0.8c6.8-1.1,12.4,1.4,18.1,4.2c7.7,3.8,15.4,7.6,23.4,10.8
		c14.2,5.7,29.4,9.4,42.8,16.6c14.2,7.7,28.6,9.2,44.1,9.2c25.6,0,50,6.2,73.6,16.1c1.7,0.7,3,2.1,5.3,3.7
		c-4.6,2.9-8.4,1.8-12.1,0.9c-14.9-3.5-29.8-7.2-44.7-10.7c-3.7-0.9-7.6-1.1-12.2-1.7c0.7,12.6,11.5,16.5,16.5,25.6
		c-2.3-0.4-4.8-0.4-6.9-1.3c-17-6.8-33.8-14.1-51-20.5c-6.4-2.4-13.5-2.8-20.3-4.3c-2.8-0.6-6.4-1-8-2.9c-4.6-5.4-10.8-7.7-17-10
		c-7.8-2.9-15.7-5.6-23.6-8.3c-4.2-1.4-7.8-1-10.2,3.4c-2.3,4.3-2.7,8.6,1.1,11.9c3.2,2.7,7.1,5.3,11.1,6.2
		c12.2,2.7,23.6,9.5,36.9,6.8c1.8-0.4,4.2,2.5,6.3,4c4.2,3.2,8.3,6.5,12.5,9.7c7.3,5.7,15.1,10.9,22,17.2c5.8,5.2,11.3,7.7,19.6,6.7
		c11.1-1.4,22.8-1.7,33.8,0.1c10,1.7,19.4,6.6,29,10.5c10.2,4.1,20.3,8.3,30.1,13.1c9,4.4,17.4,9.7,26.3,14.3
		c17.6,9.2,35.4,18.2,53,27.6c2.6,1.4,5,4.3,6.2,7c2.9,6.2,6.4,11.5,12.1,15.5c4.5,3.3,9.1,5,14.7,5.2c5.6,0.2,11.3,1.1,16.8,2.2
		c3.8,0.7,7.1,2.9,7.1,7.2c0.1,11.4,8,15.1,17,17.6c12.5,3.4,25.2,6.4,37.8,9.4c12.9,3.1,25.8,6.2,38.7,9.2
		c7.6,1.8,15.1,1.6,21.6-2.6c1.2,0.5,2.1,0.5,2.4,1c9.8,14.3,25.4,14.4,40.2,15.9c15.5,1.6,31.1,3,46.7,3.9
		c7.6,0.5,15.3-0.4,22.9-0.5c4.9,0,9.9,0,14.8,0.7c7.9,1,15.8,2.6,23.7,3.6c2.6,0.3,5.5,0.1,7.9-0.8c10.7-4.2,21.5-3.2,32.5-1.5
		c8.5,1.3,17.2,2.8,26.2-2c2.2,11.5,12.5,14.9,19.8,21.2c4,3.5,8.4,6.5,12.2,10.2c5.6,5.5,9.8,11.6,7,20.4c-1.5,4.7,1,8.1,5.4,10.5
		c6.1,3.3,12.2,6.8,18,10.8c2.8,2,5.2,4.9,7.1,7.9c3.3,4.9,6.1,10.2,9.1,15.3c0.3,0.6,0.9,1,1.2,1.6c7.2,16.5,21.2,27,33.8,38.7
		c7.1,6.6,15.8,10,24.9,11.8c6.7,1.3,11.6,4.3,15.4,10c9.1,13.5,19,26.6,22.6,43c2,9,0.8,10.5-8.1,11.7c-5.5,0.7-11,2.3-16.5,2.7
		c-3.8,0.3-7.7-0.9-11.6-1.4c-3.2,5.7-2.8,7.8,2.9,10.3c5.5,2.3,11.3,4,16.9,5.9c21,7.2,39.7,18.6,57,32.3c5.5,4.3,11,8.6,16.3,13.2
		c6.4,5.5,5.4,9.2-2,13.4c-18.3,10.4-38.2,9.4-58.1,8.5c-6.3-0.3-12.5-2.1-18.7,0.7c-1.3,0.6-3.3,0.3-4.8-0.1
		c-16-4.3-31.9-9.3-48-13.1c-13.3-3.1-26.9-4.7-40.3-7c-6.6-1.1-13.1-2.3-19.6-3.8c-6.4-1.5-7.6-4.1-4.8-10.1c1.3-2.7,3.2-5,5-7.4
		c2.8-3.7,5.9-7.2,8.6-11c8-11,7-18.2-3.6-26.4c-6.6-5.1-13.6-9.7-19.9-15.1c-6.1-5.2-11.5-11-17.2-16.6c-2.6-2.6-4.9-5.4-7.7-7.8
		c-3-2.6-6.4-3.5-10.1-1.1c-3.6,2.4-4.2,5.8-3.4,9.7c0.5,2.3,1.5,4.4,2,6.7c0.5,2.2,0.6,4.4,1,7.6c-3-0.4-5.3-0.2-7.2-1
		c-19.9-7.7-39.2-16.5-56.6-29.2c-6-4.4-13.3-7.8-20.6-9.6c-25.3-6.1-51.2-8.5-77.1-10.9c-5.6-0.5-11.3-1-16.9-1.6
		c-7.6-0.8-13.6,2.5-15.9,9.3c-2.3,6.6-6.6,8.6-12.6,9.3c-1.3,0.1-2.6,0.5-3.9,0.7c-4.7,0.5-9.5,0.9-10.7,6.9
		c-1.3,6.3,1.5,13.1,7.2,16.1c19.6,10.5,39.4,20.9,59,31.4c8.8,4.7,17.1,10.5,26.2,14.3c8.4,3.5,17.6,5.6,26.7,7.1
		c6.9,1.2,9.6-2,9.8-9.1c0.1-2.3,0.1-4.6,0.1-6.9c0-0.3,0.3-0.6,0.6-1.1c6.7,0,13.6-0.2,20.4,0.1c10.3,0.4,20.7,0.2,30.8,2
		c17.6,3.2,35.6,6.7,47.1,22.8c1.9,2.7,3.3,5.7,5,8.6c1.8,3.1,3.5,6.2,5.4,9.8c3.7-1.4,6.6-2.6,9.6-3.8c1.8,3.9-1,5-2.9,6.6
		c-3.9,3.1-8.2,5.8-11.5,9.4c-7.7,8.7-6.4,18.7,3.7,29c3.2,3.3,7,6.2,11,8.5c10,5.9,20.4,11.2,30.5,17c2.4,1.4,4.3,3.6,7.4,6.4
		c-2.6,1-3.7,1.9-4.8,1.8c-5.3-0.2-7.1,2.8-7.3,7.4c-0.3,7.9,1.3,15.1,5.9,21.7c3,4.3,6.2,8.9,7.9,13.8c3.9,10.8,13,17.6,19.1,26.6
		c8.6,12.7,17.2,25.3,25.9,37.9c1.1,1.6,2.4,3.1,4,5.3c3.2-2,6.2-3.8,9.1-5.5c1.2,0.5,2.2,0.6,2.9,1.2c7.9,6.3,10.1,5.9,12.6-3.5
		c4.2-15.7,3-31-4.3-45.7c-4-8-7.7-16.2-11.4-23.8c1.8-4.4,5-4.2,7.9-3.4c11.7,3.3,23.6,4,35.7,3.8c5.3-0.1,8.4,2.1,10.6,7.2
		c1.4,3.4,4.4,6.6,7.5,8.8c19.1,13.4,37.4,27.9,52.7,45.5c11.1,12.7,20.5,27,29.6,41.2c10.8,16.8,19.9,34.7,24.9,54.3
		c1.1,4.2,2.3,8.4,3,12.6c1.1,5.9,1.6,11.7-2.1,17.3c-2,3.2-2.4,7.3-3.7,11.5c-7.9-1-13.5-5.2-19.1-9.1c-4.6-3.2-9-6.9-13.1-10.8
		c-7.5-7.1-16.9-10.5-26.1-14.3c-3.1-1.3-5.3-0.1-6.7,2.5c-1.1,2-1.9,4.3-2.6,6.5c-1.5,4.5-4.2,6-9.1,5.5c-8.7-0.8-10,1-10.9,9.9
		c-1.1,10.8,3.5,20.3,6.6,29.9c6.8,21.5,9.8,43.4,8.6,65.8c-0.2,3.8-1.9,7.4-3.6,13.3c-6.4-7-11.6-12.3-16.3-18
		c-17.5-21.5-31.2-45.5-42.2-70.9c-3.7-8.5-8.5-15.8-16-21.2c-16.3-11.8-30.3-26-42.2-42.1c-4.7-6.4-8.1-13.7-12.5-20.4
		c-2.8-4.3-6.3-8.2-9.5-12.3c-3.7,4.4-7.4,7.4-9.3,11.4c-1.9,4-2.4,8.8-2.4,13.3c0,3.2,1.7,6.4,3.1,9.4
		c10.8,22.5,15.6,46.7,18.5,71.2c0.9,7.1-0.3,14.7-1.8,21.7c-1.7,7.8-6.5,9.1-13.5,5c-1.4-0.8-2.9-1.7-4.1-2.9
		c-11.7-11.3-24-22.2-34.8-34.3c-13.3-14.9-25.4-30.8-38-46.3c-13.7-16.8-21.5-36.6-28.6-56.7c-3-8.5-7.2-13.8-16.5-16.5
		c-13.9-4.1-27.5-9.8-40.8-15.6c-6.3-2.7-11.7-7.5-17.8-11c-10.2-6-20.6-0.4-21.1,11.4c-0.2,5.3,0.1,10.7-0.6,16
		c-1,7.4-5.4,9.3-12.3,6.3c-10-4.3-20.8-7.4-30-13c-18.2-10.9-37.6-20.3-50.8-38.1c-10.3-13.9-22.2-26.6-32-40.8
		c-20.3-29.4-34.6-61.4-39.8-97.1c-1.4-9.8-2.2-19.8-3-29.7c-0.6-7.7-3.3-14.3-9-19.4c-19.2-17.1-34.1-37.5-44.9-60.6
		c-5-10.7-10.5-21.4-12.3-33.4c-1.1-7.6-10.6-15.8-18.4-16.2c-2.6-0.2-5.4,1.7-9.2,3.1c-1.6-2.5-3.7-5.4-5.4-8.4
		c-2.5-4.3-4.4-9.1-7.4-12.9c-12.7-15.8-25.2-31.9-39-46.8c-8.1-8.8-17.1-16.7-24.2-26.4c-1-1.3-2.4-2.4-3.8-3.2
		c-8.3-4.7-16.7-9.2-23.8-16c-2.1-2-6.7-1.5-10.2-1.5c-2.5,0-5,1.1-7,1.6c-1-0.7-1.4-0.8-1.5-1.1c-3-13-12.1-20.8-23-27.3
		c-5.8-3.5-11-8.1-16.5-12.3c-0.6,0.4-1.1,0.9-1.7,1.3c0.5,2,0.6,4.3,1.6,6c6,10,12.1,19.8,18.2,29.6c1,1.7,2.5,3.1,3.4,4.8
		c7,12.5,7.1,12.5,19.9,9.9c12.1,16.8,12.1,16.8,18.1,18.8c1.7-2.6,3.4-5.3,5-7.9c4.6-1.1,5.9,2.3,7.8,4.9
		c6.2,8.6,12.5,17.1,18.5,25.9c2,3,3.7,6.4,4.6,9.8c4.4,16,8.8,31.9,8.5,48.8c-0.1,5.8,1.9,11.8,3.4,17.6c2.1,8,4.6,16,7,23.9
		c2.9,9.6,10.4,15.2,17.9,20.8c4.8,3.5,9.8,6.9,14.5,10.6c1.4,1.1,2.3,2.9,4.3,5.7c-3.6,0-5.7,0.3-7.7-0.1c-3.2-0.7-6.3-2.1-9.6-2.9
		c-6.9-1.7-8.9-0.6-11,6.2c-0.6,1.9-0.8,3.9-1.4,5.8c-2.3,8.1-7.2,9.7-12.7,3.4c-5.9-6.8-10.9-14.3-16.2-21.5
		c-6.9-9.5-13.6-19.7-25.2-23.3c-14.2-4.4-24.3-15.7-38.1-20.6c-2.8-1-5.4-2.7-7.9-4.3c-1.6-1-2.9-2.6-4.1-3.7
		c0.2-1.2,0.2-2,0.5-2.4c7.2-8.8,7.4-12.4-0.5-20.4c-6-6.1-13-11.3-19.7-16.8c-7.5-6.1-15.3-11.8-22.6-18c-4.6-3.9-9.1-6.3-15.4-4.8
		c-3.1,0.7-6.6-0.2-9.9-0.4c-5.9-0.4-7.6,0.6-7.9,6.2c-1,19.3,5.4,35.5,21.4,46.9c8.5,6.1,12.5,10.2,16.4,20.2
		c4.5,11.4,20.3,21.6,32.2,20.8c9.1-0.6,12.8,2.4,16.7,10.8c3,6.6,7.6,12.4,11.3,18.6c2.3,4,5,7.9,6.3,12.2
		c2.5,8.4-0.5,12.7-8.9,14.4c-11.2,2.2-12.7,4-10.8,15c0.7,4.1,2.1,8.6,4.5,11.9c5.7,8.1,12.3,15.7,18.4,23.5
		c1.4,1.8,3.2,3.7,3.8,5.8c4,16.3,13.7,29.5,22.9,42.9c7.1,10.4,14.1,21,21.7,31.1c3.3,4.4,7.7,8.3,12.3,11.5
		c9.6,6.6,18.9,13.4,26.5,22.5c6.8,8.1,14,16,23.5,21.5c2.8,1.6,5.4,5.3,6,8.5c1.8,10,6,18.7,11.3,27.3c6.1,9.8,10.5,20.7,15.7,31.1
		c1,2.1,2.1,4.3,3.7,5.9c4.6,4.5,6.2,9,5.1,15.9c-1.3,7.7,2.7,15.2,7.8,21c8.9,10.2,18.1,20.3,27.9,29.8c4.7,4.6,10.7,7.9,16.4,11.3
		c2.3,1.4,5.4,1.4,8.5,2c2.7-6.9-0.5-11.3-3.6-15.6c-10.2-14-20.4-27.9-30.6-41.9c-1.5-2-2.4-4.5-4.1-8c3.2-0.3,5.4-0.9,7.4-0.7
		c22,3,40.4,12.7,54.8,29.8c3.8,4.6,8.4,8.5,12.1,13.2c8.2,10.4,16.2,21,24.1,31.7c8.9,12.1,16.6,25,27.9,35.1
		c7,6.3,15.1,10.3,24.4,9.6c19.9-1.5,38.2,4.2,56.3,10.9c27.1,9.9,48.4,28.1,69.6,47.2c13.8,12.4,24.1,27.3,36.2,40.9
		c2.7,3,4.3,7.1,6.5,10.8c-5,3.6-6.9,0-9.2-1.9c-10.3-8.9-20-18.8-31-26.7c-17.8-12.8-36.3-24.7-54.9-36.3
		c-12.4-7.7-25.5-14.3-38.5-21c-3.4-1.8-7.4-2.3-10.8-3.3c-5.2,5.5-4.5,10.3-1.4,15.4c10.6,17.3,21.2,34.5,31.8,51.8
		c2.4,4,5.7,7.7,7.1,12c5.5,16.9,19.2,25.7,32.8,34.7c16.8,11.1,31.7,24.1,45.1,39.1c15.3,17.2,28.9,35.7,41,55.2
		c8.4,13.5,14.9,28.2,22.1,42.5c2.5,5,4.9,10.2,6.7,15.6c0.8,2.5,1,6.2-0.4,8.2c-2.2,3.2-5.2,0.5-7.9-0.8
		c-22.5-11.1-40-28.4-57.2-46c-8.6-8.8-16.6-18.1-25.3-26.8c-3-2.9-6.9-5.2-10.9-6.8c-5.1-2.1-10.6-3.2-17.2-5c-1,3-2.4,6.3-3.2,9.6
		c-2.2,9-7.2,12.3-15.2,7.9c-11.1-6-22.1-12.5-31.9-20.4c-11-9-20.6-19.7-30.9-29.7c-0.7-0.7-1.4-1.7-2.2-2
		c-2.1-0.6-4.9-1.8-6.2-0.9c-1.3,0.8-2,4.3-1.4,6c3,7.7,6.6,15.2,10.1,22.7c2.7,5.7,5.4,11.3,8.4,16.8c3.4,6.1,7.1,12,10.6,18
		c1.2,2,3.1,3.8,3.6,5.9c5.4,19.9,15,38.4,17.6,59.2c2.3,18.8,6.1,37.4,8.5,56.2c1.8,14.2,2.2,28.6-1.3,42.7
		c-2.5,10.2-6.3,11.8-14.5,5.5c-10.5-8.1-21.8-15.6-30.9-25.1c-10.9-11.5-20.5-24.5-29.5-37.6c-6.5-9.6-10.6-20.8-16.7-30.6
		c-3.8-6-8.7-12-14.5-16c-19.6-13.5-34.9-30.6-46.5-51.3c-9.1-16.3-17.8-32.8-26.9-49c-8-14.4-11.7-30.3-17.3-45.6
		c-2-5.5-4.5-11.3-8.3-15.7c-14.7-17-26.1-36.1-38.2-54.9c-5-7.8-8.9-16.3-13.2-24.6c-6.6-12.7-13-25.5-19.9-38.1
		c-4.3-8-4.5-7.2-13-5.5c-4.6,0.9-10.2,0.4-14.4-1.5c-23.5-10.3-42.8-25.6-55-48.6c-10.7-20.1-20.5-40.6-21.7-63.8
		c-0.8-15.6-1.1-31.3-0.5-46.9c0.6-15.3,3.5-30.3,9.9-44.6c1.7-3.7,1.2-8.5,1.4-12.8c0.4-14.4,2.5-28.4,8.2-41.9
		c3.7-8.7,3-17.9-1.7-26.1c-9.2-15.8-18.9-31.3-28.8-46.7c-1.8-2.8-5.4-4.7-8.4-6.6c-6.4-4.1-13-7.8-19.5-11.8
		c-1.7-1-3.1-2.6-4.9-3.3c-3.4-1.4-5.9-0.3-6.7,3.5c-0.2,1-0.6,2.2-0.2,2.9c4.3,8.9,0.3,17.1-1.2,25.9c-1.6,9.4-0.6,19.3-1,28.9
		c-0.2,3.8,0.9,8.9-4,10.3c-5.2,1.5-7.5-3.3-10-6.7c-4.6-6.1-8.6-12.7-13.2-18.7c-2.2-2.9-4.9-6.1-8-7.3
		c-13.4-5.1-24.5-14.5-38.7-18.3c-13.9-3.7-24-13.9-33-24.9c-6.8-8.2-13.2-16.8-20.2-24.8c-3.2-3.7-6.9-7.4-11.2-9.6
		c-5.5-2.9-8.9-0.4-9.5,5.7c-0.8,7.7,1.6,14.4,6.7,20.3c9.3,10.8,18.5,21.9,27.9,32.6c12.6,14.2,20.1,31.3,27.4,48.5
		c3.7,8.8,6.2,18.2,9.4,27.3c8,22.7,9.2,46.2,8.5,70c-0.1,5.3-0.1,10.7-0.5,16c-0.7,9.1-5,11.8-13.2,8.2
		c-11.4-4.9-21.8-11.4-30.7-20.2c-1.7-1.6-3.3-3.3-5.1-4.8c-6.4-5.6-12.1-5-14.3,3.3c-0.3,0.9-0.8,1.8-1.3,2.7c-3.4,6-5.6,7-11,2.8
		c-8.7-6.7-16.8-14.1-25.1-21.3c-3-2.6-5.5-5.8-8.6-8.4c-4.8-3.9-7.8-3.4-9.9,2.3c-3.2,8.4-5.5,17.1-8.4,25.6
		c-3.7,10.6-6.2,21.8-13.9,32.2c-2.4-2.1-5-3.5-6.6-5.6c-11.4-16.4-22.6-32.9-33.8-49.4c-6.2-9.1-12.6-18-18.6-27.2
		c-12.9-20-20.9-42.3-29.1-64.5c-2.2-5.9-4-12-6.3-17.9c-2.2-5.7-4.2-6.6-9.7-3.5c-3.4,1.9-6.2,1.7-9.5,0.6
		c-19.5-6.5-35.5-18.4-49.3-33c-10-10.6-19.1-22.3-27.6-34.1c-6-8.3-11.2-17.4-15.3-26.8c-6.7-15.7-16.8-28.8-28.3-40.8
		c-16.1-16.9-27.4-36.9-36.9-57.9c-11.9-26.2-20.7-53.5-25.7-81.7c-2.5-14-2.3-28.5-3.1-42.8c-0.2-4.3,0.1-8.7,0.4-13
		c0.8-10.6-1.9-19.8-7.4-29.3c-14.9-25.4-23.5-53.1-22-82.8c0.8-16.5-3.5-30.8-12.6-44.1c-0.8-1.1-1.2-2.6-2.3-3.3
		c-13.2-8.9-22.6-22.6-37.6-29c-0.6-0.2-1.3-0.1-3.1-0.2c-6.9,8.8-0.5,20.4-4.9,31.5c-2.1-2.5-4-4.1-5-6.2
		c-7-13.1-11.2-27.2-12.6-41.9c-1-10.6-5.9-18.9-12.2-26.8c-3.7-4.6-7.9-6.3-14-4.9c-10.2,2.3-10.1,1.9-16-7.1
		c-2.8-4.3-3.8-10.1-11.2-12.5c0,3.2-0.3,5.6,0,7.9c1.4,9.9-0.2,19.3-5.1,28c-3.3,5.9-6.5,6.2-10.4,0.8c-5-7.1-9.4-14.5-14.2-21.8
		c-9.5-14.5-19.2-28.8-28.5-43.4c-5.4-8.4-10-17.3-15.2-25.7c-3.6-5.9-7.4-11.8-11.8-17.2c-3.2-3.9-4.4-7.5-4.5-12.6
		c0-6.2-1.7-12.4-3.2-18.5c-0.8-3.3-3-6.3-7-5.9c-3.9,0.4-5.6,3.3-6.2,6.8c-0.4,2.2-0.7,4.4-1.3,8.3c-4-1.9-7.3-2.9-10-4.8
		c-19.7-13.7-39.2-27.7-59-41.2c-6.6-4.5-13.9-7.8-20.8-11.7c0-6,0-12,0-18c3.4,3.1,7.4,5.4,11.4,2.1c4-3.4,0.5-7.2-0.9-10.7
		c-3.4-8.5-7-16.9-10.5-25.4c0.1-178,0.3-356,0.4-534c15.1,26.8,21.7,35.1,29.9,37.6c-0.4-7.5-12.8-32.2-29.9-59.6
		C617.6-701.1,617.7-731.1,617.7-761.1z M1050.8-38.3c-0.9,0.4-1.8,0.8-2.7,1.2c0,2.8-0.3,5.7,0.1,8.4c0.8,5.2-0.7,8.6-6.3,9.1
		c-4.7,0.4-6.2,3.8-6.5,7.5c-1.1,12.3-1.3,24.7,4.3,36.2c4.3,8.6,8.6,17.3,13.5,25.6c10.5,18.1,21.3,36.1,32.1,54
		c11.3,18.8,22.3,37.8,34.3,56.2c15,23.2,29.9,46.3,41.8,71.3c2.6,5.4,5.1,10.9,8,16.1c1.7,3,3.5,6.6,9,5.8
		c1.6-10.8,5-21.5,0.9-32.2c-4.3-11.1-9.6-21.9-14.4-32.9c-5.3-12.2-10.7-24.6-10.3-38.2c0.3-12,2.2-23.7,5.7-35.3
		c2.7-8.7,4.9-18.6,3.5-27.3c-2-12.7-7.6-24.7-17.4-34.1c-26.8-25.9-53.4-52-80.1-78C1061.4-29.6,1056-33.8,1050.8-38.3z
		 M757.4-372.9c1.5,3.1,2.4,6.3,4.3,8.6c6.4,7.6,13.5,14.7,19.7,22.4c16.6,20.4,32,41.8,43.9,65.3c6,11.7,9.1,24.9,13,37.6
		c1.4,4.7-0.9,7.1-5.8,6.9c-6.6-0.3-13.3-0.8-19.8-2c-15.5-3-28-11.8-40.4-21c-2.1-1.6-5.2-1.7-7.9-2.5c-0.7,2.4-2.2,4.9-2.1,7.3
		c0.5,14.4,2.6,28.4,8.2,41.9c3,7.3,5.9,15.2,6.4,23c0.8,11.5,0.9,22.6,9.5,31.6c0.6,0.7,0.9,1.8,1.1,2.8
		c4.9,16.2,16.2,29,24.3,43.4c2.4,4.3,5.7,7.9,6,13.3c0.1,1.3,2,2.6,3.1,3.9c2.3-4.2,4.3-7.6,6-11.1c1.8-3.5,3.8-7.1,5-10.8
		c3.2-9.4,2.2-13.2-5.5-19.1c-6.1-4.7-12.6-8.7-18.8-13.2c-1.9-1.4-3.2-3.4-6.1-6.5c4.5-0.4,6.8-1.1,8.8-0.7
		c8.5,1.6,17,3.2,25.3,5.4c9.4,2.4,10.6,2.5,15.8-5.4c8.4-12.8,16-26.1,24.8-38.7c5.6-7.9,8-16.1,6.6-25.4c-1.4-9.4-1-19-7.3-27.5
		c-28.2-38.8-55.9-77.9-83.7-117.1C783.9-372,773.1-376.3,757.4-372.9z M1710.2,384.3c0.7,7.8,1.1,15.5,2.2,23
		c1.9,12.5,13.8,23.1,26.1,24.7c16.7,2.1,32.3,7.3,45.8,18c13.7,11,26.3,23.4,41.6,32.3c7.1,4.1,10.9,2.8,12.7-5.2
		c3-12.7,0.6-23.5-9.5-32.5c-6.1-5.6-11.5-12-16.9-18.3c-10.4-12.4-18.4-25.9-21.3-42.2c-1-5.8-3.4-11.4-5.7-16.9
		c-2.7-6.5-5.4-13-8.9-18.9c-2.8-4.7-6.2-10.6-10.7-12.4c-15.7-6.2-31.8-12.1-48.2-15.4c-10.3-2.1-20.8-3.9-31-6.5
		c-1.6-0.4-3.2-0.9-4.8-1.2c-6.8-1.2-10.2,2.4-8.3,9.1c0.6,2.2,1.7,4.4,3.2,6.2c7.7,9.5,15.6,18.9,23.4,28.4
		C1706.5,364.4,1715.1,371.9,1710.2,384.3z M1992.3,778.9c2-6,3.5-9.5,4.2-13.1c1.5-9.2,2-18.6,4.1-27.6c2.1-8.9,0-16.2-4.9-23.5
		c-10.5-15.8-20.9-31.6-30.9-47.7c-10-16-19.5-32.4-29-48.7c-3.3-5.6-7.3-10.3-13.1-13.3c-19.5-10.1-38.9-20.3-58.6-30
		c-3.7-1.8-8.3-2.3-12.5-2.2c-4.9,0.2-8.2-1.2-11.3-4.9c-8.1-9.8-19.3-15.1-30.3-20.5c-4.9-2.4-8.5-0.2-9.5,5.2
		c-1.2,6.6,0.1,13,4.4,17.9c10,11.2,22.1,20.2,35.5,26.8c5.7,2.8,11.6,5.1,16.2,9.3c12.6,11.7,26,22.4,36.9,36.1
		c8.3,10.5,16.2,20.9,22.8,32.5c2.4,4.3,6.5,7.5,9.5,11.5c2.2,2.8,4.3,5.8,6.1,9c2.2,4,3.7,8.5,6,12.5c8,13.8,16.1,27.5,24.2,41.2
		c3.5,5.9,6.9,11.8,10.5,17.8c3.3-1.6,5.6-2.7,8-3.8C1984.2,768,1987.5,772.5,1992.3,778.9z M1721.8,1007.3c1,0.9,1.7,1.3,1.9,1.8
		c5.5,13.5,10.6,27.2,18.8,39.3c0.7,1.1,1,2.5,1.4,3.7c7.2,19.2,14.2,38.5,23,57.1c3.8,8.1,6.8,16.5,10.4,24.7c0.9,2,2.5,3.8,4,5.5
		c3.1,3.7,6.3,7.4,9.6,11c1.5,1.6,3.9,4.2,4.9,3.9c2.1-0.7,4-3,5.2-5.1c1-1.9,0.8-4.5,1.3-6.8c2.1-9,3-18.6,6.6-27
		c7.3-16.8,4.7-31.5-5.7-45.9c-6.6-9.1-11.9-19.2-18.4-28.3c-13.5-18.9-21.7-40.3-29.7-61.8c-2.8-7.5-6.1-15.9-14.6-17.9
		c-9.6-2.3-14.4-7.3-15.6-16.7c-0.1-0.9-0.7-1.9-1.3-2.7c-7.6-10.9-15.1-21.9-22.9-32.6c-1.6-2.2-4.5-3.5-6.4-4.9
		c-1.6,0.9-2.4,1.1-2.7,1.6c-6.8,11.5-10.8,24.1-12.2,37c-1.3,11.6,1.8,23.2,8.6,33.2c5.4,7.9,11,15.7,16.2,23.8
		C1708.7,1006.8,1713.7,1011.6,1721.8,1007.3z M1339.2,252.2c-6.4,7.7-6.8,14.1-2.3,22.6c2.2,4.1,5.2,8,6.2,12.4
		c2.7,11.7,6.7,22.8,12,33.7c7.6,15.6,17.7,28.7,30.9,39.9c2.3,1.9,4.2,4.3,6,6.7c10.4,14,25.3,20,41.6,23.2c5.6,1.1,8-2.5,5.6-7.9
		c-0.9-2.1-2.5-3.9-3.8-5.8c-3.4-4.9-6.8-9.8-10.1-14.8c-0.4-0.7-0.1-1.9-0.1-2.9c2.5-0.8,4.9-1.5,8.3-2.6
		c-1.2-4.6-2.2-8.7-3.2-12.8c-1.6-6.1-3.9-12.1-4.8-18.3c-1.4-9.5-2.3-19.2-2.6-28.8c-0.4-11.5-3.1-21.6-12.4-29.3
		c-3.3-2.7-6.1-6.2-8.7-9.6c-10.9-14.1-24.9-24.9-39-35.5c-2.1-1.6-6.4-2.9-7.9-1.8c-2.2,1.6-4.1,5.7-3.6,8.2
		c0.9,4.6,2.8,9.7,5.9,13.2c7.9,9,16.7,17.2,25,25.8c3.5,3.7,7.5,7.3,7.2,15.1c-8.8-4.6-16.4-8.7-24.1-12.7c-6,9.5,3.9,16.7,2.5,26
		c-5.9-3.3-10.1-5.6-9.4-11.8C1359.7,268.9,1349.8,260.5,1339.2,252.2z M972.7,139.4c-9.2,6.7-9.6,6.9-8.5,11.9
		c2.7,12.2,9.3,22,20.1,28.5c11.9,7.2,24.3,13.6,36.1,21.1c6.1,3.9,12.2,6.6,19.2,7.6c10.1,1.5,20.5,1,30.3,5
		c4.8,1.9,7.6-1.4,6.4-6.6c-0.8-3.5-1.9-7.4-4.1-10.1c-7.8-9.8-12.3-21.2-17.4-32.4c-5.1-11.2-10.2-22.4-14.8-33.8
		c-3.3-8-5.7-16.3-8.8-24.4c-2.3-5.9-4.6-11.9-11-14.8c-15.5-6.9-31-13.8-46.5-20.6c-3.6-1.5-7.5-2.9-12.2,1.3
		c2.5,2.7,4.6,5.5,7.1,7.7c9.1,7.8,18.5,15.2,27.5,23.1c9.6,8.5,16.6,19,22.4,30.3c1,2,2.1,4.7,1.5,6.5c-2.4,7.8,1.2,12.5,7.1,16.8
		c4.2,3.1,8.7,6.7,10,13.7c-2.5-0.7-4.3-0.7-5.5-1.5c-11.4-7.4-22.8-14.9-33.9-22.6c-2.3-1.6-4.9-4.4-5.3-7
		c-1.5-10.7-9.6-15.4-17.3-20.5c-3-2-6.2-4.4-10.1-2.1c-2.5,1.5-2.7,8.1-0.4,12.1c1,1.7,2.5,3.1,3.7,4.7
		C969.6,135.2,970.9,137,972.7,139.4z M1064.9,357.9c-0.9-3.5-1.6-6.3-2.2-9.1c-0.5-2.6-0.4-5.5-1.4-7.8
		c-7.7-17.4-19.1-31.9-34.7-42.9c-1.5-1.1-4.9-1.4-6.1-0.5c-1.2,1-1.2,4.1-1,6.2c0.1,1.9,1,3.8,1.8,5.7
		c6.8,15.5,13.3,31.2,20.5,46.5c2,4.3,5.7,8.2,9.4,11.4c3.3,2.9,4.8,5.8,5.5,10c1.1,6.8,2.3,13.9,5,20.1
		c7.4,16.7,15.5,33.1,23.6,49.5c2,4.1,5,7.9,7.9,11.5c3.9,4.7,6.1,4.6,10.7,0.4c2-1.8,3.9-3.7,5.5-5.8c4.4-5.8,10.1-9.4,16.9-11.8
		c10.4-3.7,11.7-7.1,6.7-16.9c-1.4-2.6-3.2-5-5.1-7.4c-13.4-17-26.8-33.9-40.2-50.8C1082.1,359,1075.9,353.2,1064.9,357.9z
		 M1999.5,449c-0.2-1.8-0.2-3.1-0.5-4.3c-1.6-6.5-7-9.3-12-12.6c-10.5-7-21.9-13-31-21.5c-12.5-11.8-24.1-24.8-31.9-40.6
		c-2.3-4.8-6.1-7.6-11.6-8.3c-7.9-1-15.7-2.8-23.7-3.4c-4.1-0.3-8.7,0.4-12.6,1.9c-6,2.4-11.2,3.7-16.4-1.6
		c-1.7-1.7-4.7-2.4-7.3-2.9c-5.4-1.2-7.5,0.4-7.8,5.8c-0.1,2.3-0.3,5.2,1,6.7c4,4.8,8.1,9.7,13.1,13.4c4.5,3.3,9.4,7.8,16.4,4.5
		c1.5-0.7,4.6,0.7,6.2,2c9.8,8,19.4,16.2,28.9,24.5c9.4,8.2,19.7,14.9,31.3,19c11.9,4.2,23.4,9,34.1,15.8c2.9,1.8,6.7,2.8,10.1,3
		C1990,450.7,1994.2,449.7,1999.5,449z M1131.1-30.1c-3.5,1.7-7.8,2.4-8.8,4.6c-1.1,2.3,0.4,6.3,1.7,9.1c1.4,2.9,3.8,5.5,6.2,7.7
		c6,5.7,12.2,11.2,18.5,16.7c25,21.9,50,43.7,75,65.6c6.5,5.7,12.7,11.8,19.7,16.8c5,3.6,10.9,6.5,16.8,8.3c5.1,1.6,8.3-2.8,6.2-7.8
		c-1-2.4-2.8-4.5-4.6-6.4c-5-5.3-10.1-10.7-15.5-15.6c-24.1-21.9-48.3-43.7-72.4-65.7c-10.1-9.1-20.1-18.4-30.6-27.1
		C1139.9-26.5,1135.4-27.9,1131.1-30.1z M1560.6,309.7c4.3,2.6,8.4,5.3,12.7,7.7c5.1,3,10.2,6.4,15.7,8.5c6.6,2.5,10.2,0.2,9.8-6.5
		c-0.6-9.2-1.9-18.5-4.4-27.3c-2-7.2-7.5-12.3-14.8-15.1c-10.2-3.9-20.3-7.9-30.5-12c-7.7-3.1-15.2-6.6-22.9-9.5
		c-7.8-2.9-13,1.1-10.9,9.1c1.4,5.1,4.8,10.1,8.5,14.1c4,4.3,6.9,8.5,7.8,14.5c0.8,4.8,2.3,9.8,4.7,14
		C1542.2,317.6,1550.5,318.6,1560.6,309.7z M1159.3,377.7c0.5,1.2,1,3.5,2.3,5.3c2.9,4,5.9,8,9.4,11.6c9.5,9.7,19.3,19.2,28.9,28.8
		c10.8,10.9,21.6,21.6,29.6,34.8c2.6,4.2,5.8,8.1,9.4,11.6c1.6,1.5,5.1,2.7,6.9,1.9c3.7-1.6,2.3-5.5,0.7-7.7
		c-3.7-5.4-8-10.5-12.2-15.5c-4-4.8-9.3-8.9-12.1-14.3c-7.8-15-14.7-30.5-21.7-45.8c-3.7-8.1-8.9-13.8-18.3-14.7
		c-4.9-0.5-9.8-1.8-14.6-2.8C1162.5,369.9,1159.6,371.9,1159.3,377.7z M1462.4,218.2c-1.2,8.2-0.9,10.6,3,15.2
		c6.3,7.3,12.9,14.3,19.5,21.3c1.8,1.9,4,3.5,6.3,4.8c4.9,2.7,10,6.3,15.6,1.8c3.6-2.9,2.5-11.6-2.8-17.2
		C1492.7,232.2,1478.8,224.1,1462.4,218.2z M976.7,243.7c-0.7,4-2,6.8-1.6,9.4c1.6,12.1,3.5,24.1,5.7,36.2c0.4,2.5,1.8,5.2,3.6,6.9
		c1.2,1.1,4.6,1.7,5.9,0.8c9.1-6.4,12.4-19.6,6.9-29.2c-3.9-6.9-8.8-13.2-13.6-19.5C982.3,246.6,979.9,245.8,976.7,243.7z
		 M1146.5,365.4c2.3,0,3.3,0,4.3,0c6.2-0.3,10.8-2.9,13-9c2.1-5.7,0.6-10.5-4.7-14.9c-3-2.5-6.3-4.9-9.8-6.8c-7.2-3.9-9.4-3-10.5,5
		c-0.7,4.9-2.8,7.6-7.1,9.7c-2.3,1.1-5.7,4.8-5.2,5.9c1.2,3,3.8,6.4,6.7,7.5C1137.7,364.7,1142.8,364.8,1146.5,365.4z M1199.6,282.7
		c-9.8,3.9-11.5,5.1-12.3,10.5c-1.5,10.4-0.1,20.6,4.6,30c1.3,2.6,4.8,6.4,6.7,6c2.9-0.5,6.6-3.5,7.7-6.4c5-12.7,4.2-25.3-3.3-37
		C1202.2,284.6,1200.7,283.7,1199.6,282.7z M895.6-216.9c-3.1,6.9-1.8,11.5,0.6,15.4c8.5,13.8,17.5,27.3,26.2,40.9
		c0.2,0.3,0.4,0.6,0.6,0.8c3.4,3.6,7.2,3.1,9.6-1.3c2.7-4.8,2.4-9.5-1.1-13.9c-9.3-11.6-18.6-23.2-28.1-34.7
		C901.6-212.1,898.9-213.9,895.6-216.9z M930.4,19.9c-0.7,2.5-1.7,4.1-1.6,5.6c0.9,12.9,6,23.9,16.1,32c2.5,2,5.9,3.1,9.1,3.7
		c4.7,0.9,8.1-1.4,8.5-6.1c0.3-2.7-0.3-6.4-2-8.3c-8.1-8.8-16.7-17.1-25.3-25.5C934.4,20.7,932.8,20.7,930.4,19.9z M1458.5,431.6
		c-5.3-12.7-14.1-19.4-22.1-26.5c-1.5-1.4-4.7-0.8-7.1-1.2c0.1,2.5-0.8,5.5,0.3,7.3c4.5,7.9,10.6,14.6,18.9,18.6
		C1451,430.8,1453.9,430.7,1458.5,431.6z M1343.7,175.1c4.3,9.5,11.2,15.8,18.7,21.4c1.3,1,2.9,2.2,4.3,2.2c2.1,0.1,5.1-0.1,6.2-1.4
		c1.1-1.3,0.9-4.4,0.1-6.2C1369.7,184,1354.6,175.5,1343.7,175.1z M1309.1,192.3c-2.9,14.1,3.1,23.1,16.2,25.1
		C1327.9,205.2,1322.5,196.2,1309.1,192.3z M1501.2,268.9c-5,3.1-4.3,7.1-2.3,10.6c2.4,4.2,5.4,8.3,8.7,11.8
		c1.5,1.5,5.2,2.9,6.6,2.1c1.6-0.9,2.8-4.4,2.5-6.6C1515.8,277.1,1509.5,271.9,1501.2,268.9z M1855,1148.6c3.2-9.1,0-14.7-3.3-19.7
		c-3-4.5-4-11.5-11.5-12.1c-3.2,4.6-3,9.1-0.5,12.7C1844,1135.6,1849,1141.1,1855,1148.6z M696.6-408.2c0.4,10.7,7.4,15.2,13.4,20
		c1.3,1,5.7-0.5,7.5-2.1c0.9-0.8,0.2-5.4-1.2-6.7C711-401.9,705.1-406,696.6-408.2z M1278,197.1c-2.6,10.6,2.6,24.1,11,28.4
		C1291.9,216.5,1286.5,202.3,1278,197.1z M1011.6,41.3c-5.2,9.5-2.7,18.3,6.4,22.2C1023.1,54.3,1020.5,45.2,1011.6,41.3z
		 M1522.4,473c-1.2,11.7,3.8,18.9,14,21.2C1537.7,486,1532.7,478.1,1522.4,473z M1315.3,144.7c-1.8,9.7,0.1,13.6,5.4,14
		c1.4,0.1,3.5-0.5,4.2-1.6c0.7-1,0.7-3.5-0.1-4.3C1322.4,150.2,1319.4,148.1,1315.3,144.7z M1310.9,278.9c-2.2,9-1,12,6,16.6
		C1320.4,287.5,1319.2,283.9,1310.9,278.9z M1466.3,314.8c3.1-8.1,0.7-11.5-8.4-12.8C1457.6,308.4,1460.6,312.3,1466.3,314.8z
		 M1235.7,543.5c4-6,2.3-9.5,0-12.6c-0.7-1-2.7-1.2-4.1-1.7c-0.6,1.7-2.2,3.7-1.7,4.9C1231,536.9,1233.1,539.4,1235.7,543.5z
		 M1217.8,302.7c4.1-7.8,3.8-9-3.2-14.3C1212.1,293.8,1212.3,298.2,1217.8,302.7z M697.3-486.4c1.9-7.1,1.7-7.3-5-9.8
		C691.7-488.7,691.7-488.7,697.3-486.4z M1249.7,157.2c0.4-7-1.1-10.7-7-12.3C1243.4,151,1243.4,151,1249.7,157.2z"/>
	<path d="M617.8-957.1c8.5,7.5,16.5,15.7,25.6,22.2c14.4,10.3,24.9,24.1,34.9,38.1c4.9,6.9,10.1,10.7,18.5,11.6
		c29.2,3.1,57.8,9.4,85.8,18.4c22.7,7.2,43.5,18.3,60.9,34.9c8.2,7.8,16.1,15.9,23.4,24.4c6,7.1,12.5,12.5,22,14.4
		c4.4,0.9,8.7,3.2,12.8,5.4c20.5,10.6,38.1,25.4,56.4,39.2c10.3,7.8,20.8,15.4,31.2,23.2c8.5,6.4,16.9,12.9,25.3,19.4
		c3.4,2.6,7.5,4.8,5.7,10.4c-1.7,5.5-4.9,9.5-10.8,10.5c-7.4,1.2-14.7,0.5-21.5-2.8c-18.9-9-37.8-18.2-56.7-27.4
		c-5-2.4-9.9-5-16.3-8.3c-1.1,5.1-2.3,8.7-2.6,12.5c-0.9,9.4-2.7,11.9-12.1,12.1c-7.2,0.2-14.5-1.1-21.8-1.8c-2.2-0.2-4.4-0.5-7.7-1
		c2.7,6.6,5.9,11.2,10.4,15.4c27.8,25.3,55.5,50.9,83.1,76.4c4.8,4.4,9.7,8.8,14.2,12.9c-0.6,1.8-0.6,2.7-1,3
		c-8.8,6.4-9.4,8.9-2.6,17.3c3.9,4.9,8.6,9.2,13.3,13.4c7.7,6.8,15.9,13.2,23.6,20c5.9,5.2,13,5.3,19.8,3.9c3.1-0.6,6.8-3.6,8-6.4
		c0.8-2-1.4-6.3-3.5-8.3c-9.1-8.8-18.7-17-28.1-25.5c-2.3-2.1-4.6-4.4-6.9-6.6c0.3-0.7,0.6-1.4,0.9-2.2c4.3,0.8,8.8,1.2,12.9,2.5
		c17,5.3,32.3,14.2,46.6,24.5c20.5,14.8,40.7,30,61,45.1c4.3,3.2,8.3,6.6,12.2,10.3c8.5,8.1,18.6,14,27.7,21.1
		c15.4,12,34.1,16.3,50.7,25.1c13.2,7,25.6,15.4,38.1,23.6c5.1,3.4,9.6,7,16.3,6.1c5.3-0.7,7.2,3,7.9,7.1c0.9,5.4,3.5,9.3,8.3,11.8
		c4.6,2.4,7.3,1.7,10-2.8c1.2-2,2-4.2,2.8-6.4c3.9-9.6,10.4-12.8,20.6-10c14.4,4,28.7,8.5,42.1,15.3c4,2,8.8,3.6,13.3,3.7
		c22.2,0.3,43.9,4.2,64.8,10.8c18.8,5.9,36.3,15.2,51.3,28.1c9.9,8.4,19.1,17.6,28.4,26.7c2.8,2.8,5.3,6,7.5,9.3
		c4.5,6.9,2.9,10.6-4.7,13.6c-12.2,4.9-24.9,4.1-37.5,3.1c-29.7-2.4-57.4-11.5-82.5-27.8c-2.5-1.6-5.1-3.2-7.7-4.6
		c-6.3-3.6-18-1.7-22.8,3.6c-2.7,3-1,12.3,3.4,16.4c1.9,1.8,4.3,3.2,6.6,4.5c26.1,14.3,49.9,32.1,73,50.6
		c10.3,8.2,18.6,19,27.6,28.8c1.6,1.7,2.1,4.4,3,6.6c-0.5,0.6-1,1.2-1.5,1.8c-3.8-1.5-8-2.5-11.4-4.6c-24.4-15-48.6-30.3-72.9-45.5
		c-2.9-1.8-5.9-3.3-10.1-5.6c-0.5,9.7,1.8,16.9,5.1,23.7c3.9,8,5.7,16.5,4.7,25.2c-1.6,14.3,3.9,25.4,14.7,34.2
		c15.7,12.8,32,25.1,47.4,38.3c12.9,11,24.8,23.1,37.1,34.8c1.1,1,1.4,2.7,2.1,4c-4,3.4-6.8,0.7-9.5-0.9c-16.4-10.2-33-20.1-48.9-31
		c-42.7-29-85.1-58.6-127.4-87.9c-2.4-1.6-4.5-3.6-6.4-7.4c2.3-0.3,4.6-0.5,6.9-0.9c3.8-0.7,8-0.8,11.4-2.5c4.8-2.3,5.3-6.1,1.3-9.6
		c-10.1-8.7-20.5-17.1-31-25.2c-2-1.5-6.1-2.1-8.2-1c-5.4,2.9-8.9,0.4-12.5-2.7c-19.9-16.7-39.9-33.3-59.6-50.1
		c-7.5-6.4-6.9-9,2.9-15.2c-8.6-11.4-19.6-20.5-28.8-31.1c-9.1-10.5-19.5-19.8-30.6-28c-7.7,6.2-7.7,6.8-4.8,14.4
		c3.8,10,11.7,16.9,18,25c6,7.6,12.2,14.9,18.2,22.5c1.2,1.5,1.9,3.5,2.7,5.3c4.7,11,9.1,22.1,14.3,32.9c2.6,5.3,6.1,10.4,10,14.8
		c2.7,3,6.7,5.7,10.7,6.7c11.2,3,19.8,9.9,27,18.1c8.8,9.9,16.5,20.9,24.2,31.7c5.7,8,5.4,8.2,15.2,9.5c0.8,12.6,6.4,23.3,13.8,33.4
		c2.2,3.1,3.7,7.1,4.2,10.9c2,14.6,10.2,24.2,22.9,30.6c20,10,38.4,21.9,54.9,37.5c16.9,15.9,30.2,34.1,38.3,55.3
		c9.3,24.2,16.8,49.3,10.8,76c-0.4,1.9-1.1,3.7-2,6.6c-7.9-1.2-14.9-3.8-21.2-8c-25.8-17-46.1-39-60.7-66.3
		c-2.2-4.1-4.4-8.2-6.9-12.2c-1.6-2.6-3.6-5-8.6-3.1c0.5,5.5,1.1,11.3,1.7,17c1,10.3,2.4,20.5,3.1,30.8c0.7,10.1-3.3,19-8.6,27.2
		c-6.2,9.5-13.1,10.3-21.4,3.3c-35.2-29.4-59.4-66.2-73.5-109.7c-4.2-13-7.1-26.3-2.9-40.1c2.7-9.1,0.4-17.7-4.7-25.7
		c-3.9-6.2-7.6-12.6-10.6-19.2c-4.5-9.9-11.9-17.7-19.1-25.4c-8.8-9.4-14.8-20.6-19.8-32.2c-2.1-5-2.5-11-2.6-16.6
		c-0.1-7-3-11.8-8.1-16.3c-12.4-11-24.4-22.6-36.6-33.9c-2.5-2.4-5.2-4.6-9.7-8.5c-0.9,6.1-1.7,9.8-2.1,13.5
		c-1.3,12.6-2,25.2-3.8,37.7c-1.2,8.5-4.8,9.5-11.1,3.5c-20.6-19.5-37.6-41.5-47.8-68.1c-4.5-11.6-10.5-22.2-17.3-32.5
		c-7-10.5-13.1-21.7-19.7-32.4c-1.8-2.9-4.1-5.6-7-9.4c-2.3,4.3-3.8,7-5.7,10.6c-3.3-1.2-6.4-2.1-9.3-3.5
		c-28.9-14.6-57-30.6-82.2-51c-10-8-18.8-18-26.5-28.4c-12.5-16.8-24.6-34-35.1-52.1c-17.4-30.1-25-62.9-21.7-97.9
		c0.5-5.6,1-11.3,1-17c0-6-2.5-10.8-7.9-14.1c-17.7-10.6-35.3-21.3-53-32c-1.1-0.6-2.4-0.8-3.9-1.3c-3.6,3.8-2.3,7.4-0.3,11
		c4.2,7.6,8.9,14.9,12.5,22.7c5.1,11.2,9.8,22.5,13.9,34.1c1.9,5.5,2.6,11.6-0.5,18.4c-9.3-2.8-17.2-7.7-24.1-13.7
		c-15.9-13.8-30.2-29.1-42.8-46c-11.6-15.5-23.8-30.5-31.2-48.6c-2.5-6.2-5-12.4-7-18.7c-2.2-6.8-6.4-11.5-12.8-14.4
		c-6.1-2.7-12-5.9-18.1-8.5c-3.2-1.3-6.7-1.8-10.2-2.7c-2.4,5.6,0.1,8.8,2.6,11.8c7.8,9.6,15.9,18.9,23.3,28.7
		c17.6,23.4,35.6,46.6,48.8,72.9c0.9,1.7,1.4,3.6,2.5,6.2c-6.2,0.6-9.3-3.3-12.1-6.4c-13.1-14.7-25.8-29.6-38.7-44.5
		c-17.4-20.1-34.8-40.4-52.4-60.3c-2-2.3-5.5-3.2-8.3-4.7c0-10,0-20,0-30c3.6,5.3,7.4,10,14.1,11.9c10.5,2.9,20.9,6.4,31.5,9.3
		c3.9,1.1,8.4,2.5,12.5-3.1c-10-8.2-20.1-15.9-29.6-24.4c-9.8-8.8-19-18.4-28.5-27.7C617.8-877.1,617.8-917.1,617.8-957.1z
		 M1037.8-415.3c0.7-0.3,1.4-0.6,2.1-0.9c0.2-3.8,0.9-7.7,0.4-11.5c-1.6-12.2-0.4-23.9,5.3-35c1.1-2.1,1.8-4.3,2.5-6.5
		c3.6-11.4,1.9-16.2-8.5-22.4c-4.2-2.5-7.5-5.3-8.2-10.5c-0.4-3.1-1.6-5.8-6.9-5.9c-0.3,7.2-0.5,14.3-0.9,21.4
		c-0.4,7.4-0.9,8.8-8.2,10.2c-7.1,1.4-8.5,5.7-6.8,11.7c0.8,2.9,1.3,5.9,2.7,8.5c6.2,11.4,12.6,22.7,19.3,33.7
		C1032.3-419.6,1035.4-417.7,1037.8-415.3z M760.3-765c-0.7-1.5-1-2.9-1.8-3.8c-18.2-18.9-36.4-37.8-54.8-56.6c-1.3-1.3-3.9-1.3-6-2
		c-1.1,9.8,3.2,24.6,9.3,32.4c4.3,5.5,8.7,10.9,13.1,16.3c7.1,8.7,27,16.4,38.4,14.8C758.8-763.8,759-764.1,760.3-765z
		 M1040.7-524.5c0.9,1.7,1.8,4.8,3.7,6.9c8.2,9.1,16.5,18.2,25.3,26.7c5.2,5,11.4,9.1,17.5,13.2c5.4,3.6,9.3,3.1,12.5-0.5
		c3-3.4,2.9-6.8-1.5-11.4c-11.9-12.6-23.9-25-36.2-37.1c-3-2.9-7-5.1-11-6.6C1046.3-535.3,1040.9-530.7,1040.7-524.5z M1301.9-378.7
		c-0.7-8.4-9-18.4-16.6-19.8c-4.9-1-7.3,1.5-7.2,6.6C1278.4-382.2,1289.8-374.6,1301.9-378.7z M1241.8-412.4
		c2.2,8.7,1,16.1,8.5,19.3c5.7,2.4,11.5,2.7,16.7-2.9C1262.8-406.7,1253.6-409.3,1241.8-412.4z M1246.3-352.2
		c0.5-0.3,1.4-0.5,1.4-0.8c0.1-0.5-0.4-1.1-0.7-1.7c-0.7,0.3-1.3,0.7-2,1C1245.4-353.2,1245.9-352.7,1246.3-352.2z"/>
	<path d="M1401.9-1022.5c3.6,7,8.3,12.3,16.5,14.7c21.4,6.3,40.3,17.7,57.9,30.9c23.4,17.6,46.3,35.9,68.4,55.2
		c20.1,17.5,38.6,36.7,58,54.9c8.5,8,17.7,15.2,26.4,22.9c2.7,2.5,6.5,4.8,5.5,9.8c-5.1,1.6-8.1-1.6-11.1-3.8
		c-9.6-7.1-18.7-14.9-28.4-21.9c-18.3-13.2-36.4-26.8-55.6-38.8c-15.8-9.9-33.8-15.5-52.2-19.5c-5.1-1.1-10.3-2.2-15.7-3.3
		c0.2-5.3,4-7.3,6.7-9.9c6.1-5.9,6.5-9.6,0-15.6c-5.6-5.2-11.5-10.2-17.8-14.5c-12.3-8.5-25-16.5-37.5-24.7
		c-1.4-0.9-2.9-2.1-4.4-2.2c-2.1-0.2-4.7,0-6.2,1.2c-1,0.8-1.4,4-0.7,5.3c7.1,12.8,8.7,27.2,12.1,41.1c2.6,10.4,8.8,16,19.6,16.5
		c2.9,0.1,5.7,1,8.1,1.4c0.5,1.6,1,2.4,0.8,2.8c-6.1,10.4-4.4,19,4.7,27.3c9.3,8.5,17.5,18.2,26.4,27.2c3.3,3.2,7.3,5.7,11.1,8.4
		c11.4,8,22.9,15.9,34.3,23.9c3.4,2.3,4.8,5.5,3.6,9.5c-1.3,4.6,1.1,7.2,4.2,10.2c10.9,10.3,22,20.4,31.8,31.8
		c10.3,11.9,17.9,25.7,21.8,41.1c1,3.9-0.7,9.5-3.1,13.1c-6.1,9.4-5.5,18.5-2.5,28.6c6.6,22,12.6,44.1,18.7,66.3
		c5.1,18.3,4.7,37,3.6,55.6c-0.4,6.1-3.2,12.2-5.7,17.9c-2,4.8-5.2,5.4-9.6,2c-6-4.7-11.7-9.9-17.2-15.2c-3.4-3.3-6-6.7-11.6-6.7
		c-2.6,0-5.5-2.2-7.7-4c-22.2-19-41.4-40.5-56.9-65.3c-9.7-15.5-19.7-30.9-29.2-46.5c-12.2-20.1-20.1-42-25.7-64.7
		c-2.5-10.3-4.2-20.9-6.3-31.3c-2.3-11.4-0.5-22.6,1.5-33.7c0.8-4.6,1.9-9.1-1.2-14.8c-3.4,2.1-6.6,3.6-9.1,5.9
		c-9.3,8.6-20.6,11.9-32.7,13.1c-6.1,0.6-11.9-0.1-17.2-3.6c-5-3.3-10.4-5.9-15.5-9.1c-4.4-2.8-8.5-3.4-13.1-0.6
		c-2.5,1.6-5.4,2.6-7.8,4.4c-6.4,4.7-12.2,3.8-18.2-0.8c-18-13.8-35.9-27.8-49.2-46.4c-10.7-14.9-20.9-30.1-25.5-48.3
		c-2.4-9.7-6.1-19.1-7.8-28.8c-2.6-14.4,1-27.3,10.6-39.1c8.9-10.8,18.4-20,31.5-25.3c1.6-0.7,2.7-2.7,4-4.1
		C1325.9-1022.6,1363.9-1022.5,1401.9-1022.5z"/>
	<path d="M3160,1426.8c3.7-1.3,7.4-2.9,11.2-3.7c83.8-17.4,167.6-34.7,251.3-52.1c66.8-13.9,133.7-27.7,200.3-42.3
		c68.3-14.9,136.4-30.7,204.5-46.1c1.9-0.4,3.8-1.1,5.6-1.9c6.9-3.1,7.9-4.8,6.6-12.4c-2.7-16.1-5.9-32.1-8.1-48.3
		c-2.5-18.1-3.9-36.4-6-54.6c-0.4-3.9-1.9-7.6-2.9-11.5c-0.8-3.4-1.6-6.7-2.3-9.6c1.6-1.1,2.1-1.6,2.7-1.9c3.5-1.6,10-3.2,9.9-4.7
		c-0.1-6.2,2.3-13.4-4.1-18.5c-2.6-2-4.6-4.8-6.6-7.4c-3.9-5.2-4-9.7-0.7-12.3c3-2.5,6.7-1.3,10.9,3.7c1.1,1.3,1.7,3,3,4
		c2.6,2,5.2,4.4,8.2,5.4c8.6,3,14.6-2.4,12.8-11.3c-0.5-2.5-2.6-4.7-3-7.3c-0.7-3.8-1.7-8.1-0.5-11.5c4.9-14.7,10.6-29.2,15.7-43.8
		c1.6-4.7,2.5-9.6,3.6-14.5c1-4.1,2-8.1,7.7-6.8c-0.1,136.5-0.2,273.1-0.3,410C3640,1427.2,3400,1427,3160,1426.8z"/>
	<path d="M617.1-19.1c2.1,2.9,4.7,5.7,6.2,8.9c5.1,10.4,14,15.5,24.3,19.2c36.9,13.3,66.9,35.5,84.3,71.5c3.7,7.6,4.8,16.5,6.8,24.9
		c1.1,4.7-1,8.6-4.7,11.4c-4,3-6.1,6.8-6.7,11.8c-0.1,1.3-0.2,3.1-1.1,3.8c-7.6,6.3-4.6,14-2.7,21.2c5.1,19.3,5.6,38.9,3.7,58.4
		c-1.1,11.8-4.7,23.4-7.4,35.1c-1.1,4.7-3.7,5.8-8.3,4.4c-0.9-0.3-1.7-1.1-2.7-1.3c-2.4-0.5-4.9-0.8-7.4-1.1c-0.4,2.8-1.6,5.8-1,8.3
		c2,8.1,4.3,16.1,7.4,23.8c7,17.5,8.3,35.5,7.2,54c-0.5,9-1,17.9-2.1,26.8c-1.2,9.2-3.6,10.4-11.8,6.7
		c-27.5-12.3-53.9-26.2-74.3-49.2c-3.5-3.9-6.6-8.3-9.9-12.4C617,198.2,617,89.6,617.1-19.1z"/>
	<path d="M771.9-1023c3.7,6.7,9.2,12.9,10.9,20c3.7,15.4,12.8,26.4,23.9,36.9c4.5,4.2,10.3,8.4,11.6,18.1c-4.8-3.2-8.1-5-11-7.3
		c-8.3-6.6-16.5-13.4-24.7-20.2c-7.9-6.5-17.2-7.8-26.9-8.1c-2.1,4.4,0.6,6.6,2.9,9c8.3,8.6,16.8,17.1,24.9,25.9
		c10.2,11,20.1,22.3,25,36.9c1.1,3.3,1.7,6.8,3.1,12.5c-22-10.4-41.1-21-59.7-35.7c-1.1,4.3-1.9,6.7-2.3,9.1c-0.5,2.9-0.4,6-1.2,8.8
		c-2.8,9.4-5.8,10.9-15.1,7.9c-1.2-0.4-2.6-0.5-5.4-1.1c-0.3,0.6-1,1.8-1.5,3c-2.3,5.1-5.8,4.6-9.8,2.2c-6-3.6-12.2-6.9-17.9-10.9
		c-19.1-13.2-38.1-26.8-57.2-40c-7.6-5.3-15.6-10-23.5-15c0-2,0-4,0-6c9.2,3.6,18.9,6.5,27.7,11c13,6.7,25.4,14.6,38.1,21.8
		c1.7,1,3.9,1.2,5.9,1.7c0.5-0.6,1-1.1,1.5-1.7c-1.4-2.3-2.7-4.8-4.2-7c-8.6-11.9-17.5-23.5-25.7-35.6c-2.7-4-5.3-5.7-9.8-4.5
		c-11.4,3.2-22.4,1.6-33.4-1.8c0-10,0-20,0-30C669.2-1023,720.6-1023,771.9-1023z"/>
	<path class="st0" d="M1853.9-1022.1c1.8,1.5,3.3,3.4,5.4,4.4c9.7,4.5,13.9,13,16.1,22.6c5,21.6,15.8,40.2,29.3,57.3
		c10.5,13.3,21.6,26.2,33.1,38.6c7.4,8,15.6,15.1,27,17.9c4.1,1,7.9,6,10.2,10.1c4,7.2,9.8,12.3,15.7,17.8
		c7.3,6.8,13.7,14.5,20.2,22.1c6.9,8.1,13.1,16.8,23.2,21.5c3.7,1.7,6.2,4.8,5.9,10.5c-8.1-4.3-17.7-3.9-23.1-12.3
		c-0.8-1.2-2.8-2-4.4-2.1c-5.7-0.4-9.8-3-13.4-7.5s-8.6-3.9-13.9-2.1c0.1,6.3,5.9,7,8.8,10.2c2.7,3,7.1,5,6.7,11.2
		c-2.7-0.4-5.2-0.2-6.8-1.2c-5.2-3.1-10.1-6-16.8-4.2c-1.8,0.5-4.9-1.9-6.7-3.6c-12.1-11.4-24.5-22.5-36-34.5
		c-15.4-16.1-30.3-32.7-45.1-49.3c-5.8-6.4-10.5-13.8-16.2-20.2c-16.4-18.4-32.9-36.6-49.7-54.6c-5.5-5.9-10.2-12.1-13.1-19.8
		c-4.7-12.2-11.2-23.4-20.3-33c10,0,20,0,30,0c5.8,11.1,19.8,24.5,27.9,25.7c-2.7-8.9-5.3-17.3-7.9-25.7
		C1844.6-1022.2,1849.2-1022.2,1853.9-1022.1z"/>
	<path d="M1839.9-1022.2c2.6,8.4,5.2,16.8,7.9,25.7c-8.1-1.1-22.1-14.6-27.9-25.7C1826.6-1022.2,1833.2-1022.2,1839.9-1022.2z"/>
	<path class="st0" d="M1743.9-1022.2c11.7,13.7,23.9,27.1,33.1,42.8c-10.7-3.2-14.6-13.2-21.2-20.6c-6.6-7.4-13.2-14.8-19.9-22.2
		C1738.6-1022.2,1741.2-1022.2,1743.9-1022.2z"/>
	<path d="M1935.2,265.7c26.6,1.4,53,4.7,78,14.8c13.8,5.5,26.9,12.9,40.2,19.6c4.9,2.5,4.9,6.3-0.1,8.7
		c-14.4,6.9-29.2,11.9-45.5,13.6c-23.6,2.4-46.4-1.7-69.4-5.2c-19.1-2.8-38.2-5.4-57.3-7.5c-6.2-0.7-12.6,0.2-18.9,0.8
		c-8,0.7-9.7-1.1-6.7-8.8c4.8-12.5,13.7-21.1,26-26C1898.8,268.9,1916.6,265.1,1935.2,265.7z"/>
	<path d="M2057.1,349.1c10.7-9.1,21-12.3,32.2-13c22-1.3,42.6,3.2,63,12c22.8,9.9,41.4,25.1,59.2,41.6c9.8,9,18.8,18.7,27.9,28.4
		c3.1,3.2,6.6,6.7,5.4,12.5c-5.7,1.2-10.7-0.7-15.4-2.8c-10.9-5-21.5-10.4-32.3-15.6c-9.2-4.4-18.6-8.6-27.7-13.1
		c-4.8-2.4-9.1-5.6-13.9-7.9c-23.3-11.2-46.7-22.5-70.2-33.4c-5.7-2.6-12.1-3.7-18.1-5.5C2064.4,351.6,2061.7,350.7,2057.1,349.1z"
		/>
	<path d="M1865.5,895.4c-4.1,3.1-6.9,0.5-9.5-1.3c-25.2-17.4-50.2-35-75.5-52.3c-8.2-5.6-17.2-10.1-25.8-15.2
		c-16.7-10.1-33.2-20.7-50.2-30.4c-10.3-5.9-21.3-10.7-32.8-16.3c1.3-1.5,2.3-3.2,3.7-4c6.7-3.6,13.9-4.5,21.3-3.4
		c30.8,4.4,57.7,16.9,80.9,37.9c9.9,8.9,21.4,16,30.5,25.5c12.2,12.8,24.8,24.9,38.3,36.3c6.2,5.3,11.3,11.9,16.7,18.1
		C1864.5,891.7,1864.9,893.8,1865.5,895.4z"/>
	<path d="M2400.4,803.6c-3-0.5-6.2-0.6-9-1.7c-23.3-8.9-45.6-19.9-67.4-32c-9.3-5.1-18.4-10.7-27.9-15.4
		c-15.4-7.8-31.1-15-46.6-22.5c-2.8-1.4-5.4-3.1-9.1-5.1c2.7-2.3,3.9-3.9,5.5-4.7c13.9-7.6,28.1-9,43.1-3.2
		c16.1,6.2,32.3,11.8,46.7,21.8c13.3,9.3,28.2,16.5,39.6,28.4c8.2,8.6,15.9,17.8,23.7,26.9c1.2,1.4,1.6,3.4,2.4,5.2
		C2401.2,802,2400.8,802.8,2400.4,803.6z"/>
	<path d="M1553.7-823.3c8.9,4.3,17.2,8.4,24.7,13.6c26.3,18.3,50.1,39.6,72.6,62.5c10.9,11.1,20.3,23.6,30.3,35.6
		c4.7,5.6,9.5,11,13.7,17c9.7,13.8,19.3,27.8,28.6,42c2.3,3.5,3.3,7.8,5.3,12.4c-5.7,0.5-8-2.7-10.5-5.7
		c-11.9-13.9-23.7-27.8-35.6-41.7c-2.2-2.5-4.2-5.4-7-7.1c-15.3-9.7-25.4-24.1-35.8-38.4c-5.8-8-12.9-15.3-20.1-22.1
		c-19.9-18.7-40.1-37-60.3-55.4C1556.1-813.7,1552-816.2,1553.7-823.3z"/>
	<path d="M1403.8-149.9c-12.9-6-23.7-11.7-32.8-19.9c-11.1-10-21.5-20.7-32.6-30.8c-4.3-4-9.4-7.3-14.4-10.4c-3.3-2-5.8-4-6.6-8.1
		c-0.8-4.1-2.4-8.1-4-12.9c7.7,1.7,15.9,0.1,23,5.3c10.9,8,23.2,14.7,32.8,24.1c11.1,10.8,20.1,23.7,29.8,35.9
		C1402.4-162.7,1403.8-157.6,1403.8-149.9z"/>
	<path d="M1760.1,270.6c-26.7-3.5-51.6-6.7-76.5-10.1c-1.5-0.2-2.8-1.3-4.4-2C1690.2,246.6,1745.5,257.7,1760.1,270.6z"/>
	<path d="M1591.4,650.4c18.6,6.8,34.3,14.7,48,26c4.4,3.6,11.6,5.6,12,13.8c-2.3,0-4.4,0.6-5.9-0.1
		C1632.6,684,1596.5,658.1,1591.4,650.4z"/>
	<path d="M2733.3,204.7c19.2,4.9,36.5,13.6,53.2,28C2774.8,231.3,2755.2,220.9,2733.3,204.7z"/>
	<path d="M2152.2,721.7c-6.2-3.2-11.8-3.7-12.7-10.4C2147.3,711.2,2148.5,712,2152.2,721.7z"/>
	<path d="M2166.3,675.3c-2-2.2-4.2-3.6-4.2-4.8c0.1-1.8,1.8-3.5,2.9-5.3c1.6,1.2,4.3,2.3,4.5,3.7
		C2169.7,670.6,2167.8,672.6,2166.3,675.3z"/>
	<path class="st0" d="M3369.1-181.6c4.8,5.6,9.2,10.9,13.7,16.2c6.7,7.9,13.5,15.6,20.1,23.6c7.7,9.3,7.6,11.5-0.6,20
		c-1.1,1.2-2.4,2.4-3.3,3.7c-4.5,6.8-2.8,10.7,5.4,10.9c17.3,0.5,31.2,8.5,43.9,19.2c2.2,1.8,3.9,5.5,4,8.3c0.1,4.5,1.9,7,5.7,8.3
		c5.5,2,8.5,6.2,11.2,10.9c6.2,11.1,12.6,22,21.9,30.8c2.4,2.3,4.2,5.2,5.8,8.1c7.5,13.9,17.9,25.6,27.9,37.6c4,4.8,8,10.1,10,15.9
		c4.6,13.5,8,27.4,12,41.1c0.9,3.2,2.1,6.3,3.1,9.4c3.2,10.7,6.4,21.5,10.3,34.4c-8.7-3.8-6.1-15.8-17-15.3c4.3,6.9,7.8,13.2,12,19
		c3.3,4.6,4.9,9.3,4.3,14.9c-1.4,12.8,2.4,24.8,8.7,35.4c6.2,10.5,9.8,21.6,13.6,33c4.9,14.8,11.9,28.9,17.2,43.6
		c6.8,18.8,12.7,37.9,19,56.8c5.9,17.3,12.1,34.6,17.7,52c2.9,8.8,4.5,18,2.8,27.1c-0.9,0.8-1.3,1.5-1.8,1.7
		c-10.1,3.7-10.8,6.3-2.5,13c9.8,7.9,15.9,17.5,18.1,29.9c1.1,6.2,3.5,12.1,5.1,18.3c0.5,2.1,0.4,4.3-1.3,7.2
		c-1.9-3.2-4.1-6.3-5.5-9.6c-1.9-4.5-4.2-7.2-9.7-6.2c-2.4,0.4-5.8,0-7.6-1.5c-7.9-6.5-17.5-10.7-22.9-20.4
		c-5.5-9.7-9.3-10.4-21.7-6.8c1,5,2.2,10.1,3,15.3c1.1,6.9-1.6,9.7-8.3,7.6c-7.7-2.4-14.8-5.9-19-13.5c-4.8-8.7-10.5-16.9-14.8-25.9
		c-2.7-5.8-3.5-12.5-5-18.7c1.3-1.5,2.2-2.4,3.1-3.4c5.2-5.8,5.1-9-1.5-12.4c-16-8.4-25.3-22-31-38.5c-1-2.8-1.4-7.5,0.2-9
		c1.8-1.7,6.3-1.4,9.2-0.6c3.4,0.9,6.6,3.1,9.7,5.1c11.5,7.2,22.8,14.5,34.6,21.9c3.2-4.4,0.2-6.9-2.6-9c-8-5.9-16.3-11.5-24.2-17.5
		c-5.8-4.4-11.2-9.3-16.7-14c-1.3-1.1-2.3-2.5-3.6-3.4c-19.3-14.2-38.5-28.5-58.1-42.3c-3.8-2.7-9-3.4-14.3-5.3
		c-0.5,5.6,2.9,7,5.2,9c12.9,11,25.8,21.9,38.6,33c2.3,1.9,4.4,4.1,6.1,6.5c3.3,4.5,3.2,8.2,0,10.6c-3.5,2.6-7.2,1.3-10.7-3.8
		c-0.6-0.8-0.9-1.8-1.4-2.7c-3-6-7.7-8.4-14.3-10.6c-9.5-3.2-17.8-9.9-26.5-15.5c-1.4-0.9-2.6-3.4-2.7-5.2
		c-1.1-15-11.6-23.4-22-31.7c-5.4-4.4-11.4-8.1-16.9-12.4c-3.4-2.6-6.5-5.6-9.7-8.4c-4.3-3.6-8.9-7-13-10.9
		c-4.4-4.4-8.8-8.9-12.4-14c-5.1-7.3-9.3-15.2-14.9-24.4c-1.6,3.5-2,5.4-3.2,6.5c-1.8,1.7-4.1,4.1-6.1,4c-6.6-0.2-13.4-1.3-18.2-6.4
		c-6.9-7.2-10.5-16.1-12.5-25.7c-0.7-3.5-0.6-7.6,3-8.6c2.5-0.7,6.1,1,8.7,2.6c2.7,1.5,4.7,4.2,8.6,5.3c-0.2-1.4,0.1-3.2-0.6-4.3
		c-3.5-5.1-3.6-10.5-2.7-16.3c1.2-8.4,0.5-9.8-6.5-13.7c-14.9-8.5-27-20.2-38.2-33.1c-6-6.9-14.1-12.1-21.4-17.8
		c-6-4.6-10.2-10.3-13.6-16.9c-1.6-3.2-2.4-6.1-0.2-9.3c2.3-3.3,5.3-4,8.7-2.8c9.7,3.4,19.3,7,29,10.5c2.8,1,5.5,2.4,8.4,3
		c1.1,0.2,2.6-1.3,4.6-2.4c-5.8-7.7-13.7-11.4-20.4-16.5c-5.8-4.4-11.6-9.1-16.1-14.7c-7.6-9.5-5.8-15.7,4.9-21
		c-2.6-4.9-14.5-15.6-21.8-19c-16-7.4-29.3-18.2-41-31.2c-3.8-4.2-7.8-8.2-11.7-12.2c-5.7-5.8-10.2-12-11.3-20.5
		c-0.6-4.8-2.9-9.5-5.2-13.8c-3.7-6.8-7.3-13.3-5.6-21.7c0.6-2.6-0.6-6-1.9-8.5c-11.3-21.5-20.9-43.9-34.8-63.9
		c-8.2-11.7-17.3-22.8-26-34.1c-0.4-0.5-0.9-1-1.4-1.5c-9.4-7.7-18.9-15.3-28.3-23.1c-2.5-2.1-5.2-4.3-7-7c-2.4-3.7,0.3-7.7,4.7-7
		c2.8,0.5,5.6,2,8.2,3.5c11.4,6.9,22.7,13.8,34,21c3.3,2.1,6.2,5,9.3,7.5c3.6,2.9,7.4,5.6,10.8,8.7c4.1,3.8,8.2,7.7,11.4,12.3
		c1.4,2,1.6,6.2,0.5,8.4c-3.1,5.8-1.4,10.3,2.2,14.7c8.7,10.5,17.2,21.3,26.6,31c7.2,7.4,11.9,15.4,14.4,25.5
		c4.2,17.2,12,33,22,47.8c13.4,19.7,30.1,36.4,47.3,52.6c13.4,12.6,29,22.3,44.8,31.6c1.9,1.1,4.2,1.6,7.1,2.7
		c0.5-11.2-3.3-20.3-8.5-28.8c-10.1-16.5-20.6-32.6-30.9-49c-1.2-1.9-3-4-3.2-6.1c-1.2-14.8-9.5-26.9-15.2-39.9
		c-1.3-3-2.7-6.1-3.6-9.3c-1-3.7,1-5.6,4.6-6c6.9-0.7,13.8-1.5,20.7-2c2.2-0.2,4.6,0.4,6.8,1c1.5,0.4,2.8,1.7,4.3,2.4
		c11.1,5.4,16.5,13.2,16.5,26.6c0,17.8,6.3,34.8,14.8,50.3c17,30.9,36.2,60.6,58.3,88.1c6,7.4,13.1,14,19.7,21
		c5.5-3.3,5.4-7.8,5.5-12c0.7-17.2-3.4-33.7-8.7-49.9c-0.9-2.9-2-5.7-2.8-8.5c-0.9-3.4-1.1-6.6,3.5-9.1c2,1.6,4.3,3.4,6.4,5.3
		c4.1,3.9,8.1,8,12.3,11.7c7.1,6.4,8.4,6.4,16.5,1.9c5.5-3,8.9-2.9,11.1,3.3c4.4,12,16.6,20.5,15.8,34.8c-0.1,1.2,0.8,2.5,1.5,3.7
		c0.5,0.8,1.3,1.4,2.8,3c3.1-4.4,6.1-8.5,9.4-13.1c-3.6-6.4-6.9-12.8-13.1-18c-5.1-4.3-8.4-10.9-11.7-16.9c-1.7-3.1-3.2-5.5-6.8-6.5
		c-8.2-2.3-13.6-8.1-17.1-15.6c-1.7-3.8-3.2-7.3-8.3-7.2c-1.5,0-3.5-0.8-4.4-2c-5.5-7.1-12-13.7-15.7-21.7
		c-4.3-9.4-10.3-15.3-20.1-18.1c-2.8-0.8-5.2-2.9-7.6-4.5c-4.9-3.4-9.6-7.1-14.7-10.2c-11.3-7-23-13.3-34.1-20.7
		c-13.8-9.2-27.2-19.1-40.6-29c-7.9-5.9-13.6-13.5-17-22.9c-1.8-5-5.1-9.4-7-14.3c-1.1-2.8-2-6.9-0.8-9.1c2-3.7,6.3-2.6,9.9-1.5
		c12,3.9,23.8,8.4,36,11.5c11.9,3.1,24,5.1,36.2,7c6.7,1,13.3,1.4,18,7.2C3360.5-177.5,3364.8-180.3,3369.1-181.6z M3537.5,92.7
		c-4.4-8.1-7-16.6-12.6-22.3c-9.6-9.7-18-20.2-25.4-31.6c-4.1-6.2-9.4-11.6-14.1-17.4c-0.6,5.3-1.1,10.4,4.1,13.1
		c6.4,3.4,9.6,9,11.2,15.7c1,4.3,3.3,6.6,7,8.9c3.8,2.3,7.2,5.8,9.6,9.5c4.1,6.7,7.3,14,10.8,21.1
		C3529.9,93.5,3532.1,95.7,3537.5,92.7z M3342.7,148.1c-0.8,0.4-1.4,0.7-1.9,1c0.4,0.7,0.8,1.5,1.3,2.1c0.1,0.1,1.4-0.6,1.4-0.7
		C3343.5,149.7,3343.1,148.9,3342.7,148.1z M3378.4,157.4c0.3-0.8,0.6-1.6,0.7-2.4c0-0.2-1.4-0.7-1.5-0.6c-0.5,0.6-0.8,1.4-1.2,2.2
		C3376.9,156.8,3377.5,157,3378.4,157.4z"/>
	<path class="st0" d="M3049.6-320.7c-18.2,0.7-27.5-13.7-39.5-23.1c-7.2-5.6-12.2-13.9-18.4-20.8c-11.9-13-23.7-26.1-35.9-38.8
		c-6-6.2-9.8-13.4-12.4-21.4c-1.7-5.4,0.3-7.9,5.7-6.9c7,1.3,12.9,4,17.2,10.6c12.5,19,28.4,35.2,45.2,50.4c2.3,2.1,5.4,3.2,8.1,4.8
		c8-9.8-0.6-20.9,3.7-29.7c7.2,0.8,13.4,1.1,19.4,2.4c4.7,1,6.9-1,8.2-4.9c0.5-1.6,1-3.2,1.7-4.7c2.6-5.7,5-6.8,11.1-5.1
		c3.8,1.1,7.4,2.6,10.7,3.7c3.8-3.3,2.1-6.3,0.7-8.7c-5.7-9.7-11.2-19.7-17.7-28.8c-5.5-7.7-10.3-15.5-12.6-24.7
		c-2.9-11.7-7.9-22.6-13.6-33.2c-1.7-3.1-4.2-6.3-0.3-10.3c6.9,2.9,12.1,7,14.7,14.7c4.1,11.9,8.2,24,13.8,35.2
		c5.6,11.3,12.3,22.2,19.8,32.2c8.6,11.5,16.1,23.6,22,36.7c2.3,5.1,5.5,9.9,9,14.3c14.7,19,29.9,37.5,49.9,51.3
		c1,0.7,2.3,1,3.9,1.7c7.2-9.1-4.1-17.5-0.6-27.9c3.1,2.3,5.7,3.6,7.5,5.5c4.4,4.9,8.8,10,12.6,15.4c3.8,5.4,7,11.3,10.3,17
		c5.5,9.5,10.8,19.1,16.6,28.4c1.8,2.9,5,4.9,7.9,7.6c5.6-4.7,6.8-10.2,6.5-15.8c-0.5-6.9-1.2-14-3.1-20.7
		c-4.8-17.7-11.1-34.8-21.4-50.2c-2.3-3.4-3.6-7.5-6.2-13c3.8,0.8,5.9,0.7,7.3,1.6c16,10.2,27.7,24.8,39.6,39.1
		c3.2,3.9,4.5,9.6,5.8,14.8c4.2,17,11.6,32.6,20.3,47.6c0.8,1.4,1.5,2.9,2.3,4.4c7.9,16.1,7.9,16.1-4.1,29.8
		c-4.2,4.8-7.8,10-8.8,16.5c-0.3,2.3-1,4.6-1.7,6.8c-2.4,7.4-5.9,8.4-11.3,2.8c-3.9-4-7-9-11.1-12.9c-12-11.5-24.3-22.7-36.6-33.9
		c-3.4-3.1-7.2-4.1-12-3.1c-4.5,0.9-9.2,0.7-13.9,0.5c-7-0.2-13.4,1-17.6,7.1c-2.5,3.6-6.1,4.6-9.7,3.4c-7.5-2.5-15.3-4.7-22-8.7
		c-17.1-10.2-33.7-21.3-50.5-32.1c-3.6-2.3-7-5-10.4-7.7C3050.5-308.6,3050.5-308.7,3049.6-320.7z M3116.1-312
		c0.4-0.8,0.9-1.6,1.3-2.4c-3.5-1.4-7-2.9-10.5-4.3c1.1,2.8,3,3.9,5,4.8C3113.2-313.2,3114.7-312.7,3116.1-312z"/>
	<path class="st0" d="M3054.4-215.8c-12.1-2.8-20.8-8.6-27.4-17.1c-6.2-8.1-11.3-17.1-17.3-25.4c-2.1-2.9-5-5.4-8.1-7.2
		c-9.3-5.6-15.6-14.1-18.8-23.9c-4.6-14.4-11-27.8-17.8-41.1c-2.5-4.9-2.9-8.6,3.2-11.2c-5-7.7-14.6-10.6-17-19.2
		c0.7-0.9,1.2-1.8,1.5-1.8c14.5,2,28.9,4.5,39.6,15.8c2.4,2.5,4.3,6,5.2,9.3c3.3,12.8,8.7,24.3,17.8,34.1c2.5,2.7,3.8,6.9,4.7,10.7
		c2.3,9.3,2.6,19.3,6.4,27.8c3.7,8.2,11.1,14.7,16.3,22.4c3.9,5.7,7,12,10.1,18.2C3054.1-222.1,3053.9-219.4,3054.4-215.8z"/>
	<path class="st0" d="M3203-35.1c12.8-4.3,20.1,3,27.4,9.9c4.6,4.3,9.1,8.9,12.9,13.8c5.2,6.7,2.5,12.5-5.9,12.6
		c-6,0.1-9.4,1.7-12.1,7.8c-2.1,4.8-7.5,8.3-11.8,11.8c-1.5,1.2-4.7,1.5-6.5,0.7c-3.6-1.5-8-3.2-9.8-6.2
		c-6.1-10.1-13.7-18.7-22.6-26.2c-1.5-1.2-2.6-3.1-3.4-4.9c-3.4-7.3-7.7-13.5-13.6-19.3c-4.4-4.4-7.2-11.2-8.8-17.5
		c-2-7.5,3.5-11.5,10.4-7.9c11.4,6.1,22.4,12.9,33.6,19.4C3196.3-38.9,3200-36.8,3203-35.1z"/>
	<path class="st0" d="M3179.4-440.2c2.1,0.5,4.6,0.4,6.3,1.5c12.4,7.8,24.6,15.7,36.8,23.7c4.2,2.7,8.3,5.4,12.4,8.3
		c5,3.5,10,7.2,16.9,12.2c6.6,0,13.6,4.7,19.9,11c8.5,8.5,16,17.2,21,28.7c3.7,8.6,10.7,15.8,17,23c5.1,5.8,6.9,9.8,3.7,12.6
		c-2.8,2.5-7.2,1.3-12.2-3.5c-7.6-7.4-16.1-14.2-22.5-22.5c-7.7-9.9-13.6-21.2-20.3-31.9c-2.4-3.9-4.9-7.8-7.8-12.5
		c-4.7,3.9-7.9,7.8-9.4,13c-0.8,2.5-1.7,5-3,7.3c-1.8,3.2-4.8,3.4-7.7,1.6c-1.4-0.8-2.5-2.2-3.5-3.5c-15.3-20.1-30.5-40.3-45.7-60.5
		c-1.5-2-2.3-4.5-3.5-6.7C3178.4-438.9,3178.9-439.6,3179.4-440.2z"/>
	<path class="st0" d="M3295.2,144.3c2.4,2.7,6.3,5.4,7.8,9c3.4,8,9.7,13.3,15.5,19.2c5.5,5.7,11.5,11.1,16.4,17.3
		c11.4,14.6,24.1,28.3,31.4,45.9c1.6,3.8,4.9,7,8,9.9c9.2,8.7,14.7,18.8,11.5,31.8c-0.6,2.5-2.8,5.8-4.9,6.4
		c-2.2,0.6-5.8-0.9-7.7-2.6c-2.1-1.8-3.2-5-4.6-7.6c-2.3-4.7-4.1-9.3-10.1-11.4c-3.1-1.1-5.2-5.8-7.4-9.1
		c-15-23.1-30-46.2-44.5-69.6c-3.9-6.2-8.4-11.7-13-17.3c-2.7-3.4-4.1-8.2-5.2-12.5C3287.2,149.2,3289.3,145.9,3295.2,144.3z"/>
	<path class="st0" d="M2366.1-762.2c6.2,3.5,10,7.7,12.6,13.5c5.4,11.8,11.4,23.3,17.1,35c0.9,1.8,2.1,3.6,2.3,5.5
		c0.3,2.1,0.4,5.1-0.8,6.3c-1.2,1.1-4.4,1.1-6.2,0.3c-3.1-1.2-5.9-3.1-8.6-5.1c-5.2-3.7-9.3-9.9-17.3-6.5c-1.1,0.5-3.3-0.6-4.6-1.6
		c-8.7-6.5-17.2-13.2-25.9-19.9c4.9-7.4,8.7-0.5,13.6-0.3c-1-2.9-1.8-5.2-3.1-8.7C2352-749.7,2359.1-756,2366.1-762.2z"/>
	<path class="st0" d="M3455.4-176.6c6.8,2.2,10.5,6.5,10.9,12.4c0.7,11.1,5.5,20.5,10.9,29.6c8.3,14.1,14.6,29,19.4,44.6
		c0.5,1.6,1.3,3.2,1.2,4.8c-0.2,3.1,0,7.5-1.8,8.8c-2,1.5-6.4,1-9.3,0.1c-5.8-1.9-8.9-6.2-9.6-12.6c-2.8-25.6-9.9-50.1-20.5-73.5
		C3453.8-168.3,3453.9-168.3,3455.4-176.6z"/>
	<path class="st0" d="M2927.1-467c-5.3-3.4-10.4-5.2-13.4-8.8c-13.6-16-25.1-33.5-35.6-51.7c-0.9-1.5-0.8-3.7-1.4-7.1
		c8.7,2.1,16.5,3.6,23.9,6.1c2.3,0.8,4.2,4.1,5.3,6.7c7.3,16.8,14.3,33.6,21.4,50.5C2927.5-470.7,2927.2-470,2927.1-467z"/>
	<path class="st0" d="M3304.5-284c0-3.3,3-5,5.6-2.8c4.8,4,9,8.8,13.5,13.1c3.5,3.4,7.2,6.5,10.8,9.8c2.4,2.2,5.1,4.2,6.9,6.8
		c4.5,6.5,8.6,13.4,12.8,20.1c0.9,1.4,1.9,2.9,2.1,4.4c0.4,3.3-1.8,5.9-4.7,4.3c-9.8-5.8-21.1-10.7-28.1-19
		c-8.1-9.6-12.3-22.6-18.2-34.1C3304.7-282.3,3304.6-283.3,3304.5-284z"/>
	<path class="st0" d="M2860.3-420.8c3.1,2.2,6.3,4.2,9.3,6.5c7.6,6,14.6,12.6,22.6,17.9c7.2,4.8,8.1,11.7,8.5,19.1
		c0.2,4.1-2.3,6.7-6.3,7.8c-4.2,1.1-8.4,2.9-12-1.1c-0.7-0.7-1.4-1.5-1.8-2.4c-7.3-14.1-14.6-28.3-21.8-42.5c-0.5-1-0.2-2.5-0.2-3.7
		C2859-419.7,2859.7-420.2,2860.3-420.8z"/>
	<path class="st0" d="M3141.6-507.5c19.5,15.7,36.1,34.1,53.9,51.2c2,1.9,3.3,4.5,5,6.7c-0.5,0.7-0.9,1.4-1.4,2.1
		c-2.9-0.9-6-1.5-8.7-2.7c-7.5-3.5-14.7-7.7-22.2-10.9c-6.2-2.6-10.3-6.9-13.3-12.7c-3.3-6.5-6.8-12.9-10.3-19.2
		C3142-497.4,3139.8-501.7,3141.6-507.5z"/>
	<path class="st0" d="M3131.2-111.6c4.5-2.9,9.1-1.4,13,0.9c5.6,3.4,10.8,7.6,16,11.7c2.9,2.2,5.2,5.1,8,7.5
		c7.2,6.5,7.9,11.5,2.9,21C3155.8-72.1,3132.8-95.7,3131.2-111.6z"/>
	<path class="st0" d="M2758.4-613.3c-2-2.5-4.3-4.9-6-7.6c-9.5-16.4-19.4-32.6-28.1-49.4c-3.6-6.9-4.7-15.1-6.6-22.7
		c-0.3-1.3,0.5-3.8,1.4-4.2c1.5-0.7,4.2-0.8,5.4,0.1c6.2,4.9,11.8,9.5,13.4,18.7c3.8,22.3,10.6,43.9,22,63.8
		C2759.5-614.2,2758.9-613.8,2758.4-613.3z"/>
	<path class="st0" d="M2396.3-818.7c3,5.2,6.1,10.2,8.9,15.4c3,5.6,6.2,11.1,8.3,17c1.4,3.8,1.8,8.5,1.1,12.4
		c-1.1,5.8-3.7,11.3-6.1,18.1c-1.8-3-3.4-5-4.4-7.2c-5-11.2-9.8-22.5-14.6-33.8C2385.4-806.2,2386.8-810.9,2396.3-818.7z"/>
	<path class="st0" d="M2483.8-673.9c13.1,1.9,22.2,9.3,28.1,20.6c2.9,5.5,0.2,9-5.7,9.3C2492.5-643.3,2479.9-659.6,2483.8-673.9z"/>
	<path class="st0" d="M3143.1-382.6c-4,1.1-5.2-2.2-6.9-4.4c-8.5-11.6-18-22.5-24.3-36.6C3125.2-421.9,3144.1-396.1,3143.1-382.6z"
		/>
	<path class="st0" d="M2020.2-866c15.6,10.7,19.9,19.2,16.5,33.1C2028.7-837.3,2019.5-855.9,2020.2-866z"/>
	<path class="st0" d="M3171.8-416.4c-13.2-0.2-22.5-11.2-20.3-23.3C3160.7-438.2,3168.8-429.1,3171.8-416.4z"/>
	<path class="st0" d="M2833.6-455c4.8,6,9.4,11.5,13.7,17.3c2.8,3.7,2.7,8,0.4,13c-1.8-1.1-3.8-1.6-4.7-2.9
		c-4.3-6.7-8.4-13.5-12.4-20.4C2829.3-450.3,2828.6-453.1,2833.6-455z"/>
	<path class="st0" d="M3064.3-256.8c-11-8.1-11-9.3-0.9-22.7C3071.6-274.4,3072.2-264.9,3064.3-256.8z"/>
	<path class="st0" d="M3216.5-183.6c0.1-3.1,2.4-4.9,6.3-4.9c5.2,0,10.4,4.3,10.5,8.6c0.1,4.2-3.9,8.1-8.3,8.1
		C3221-171.9,3216.6-177.5,3216.5-183.6z"/>
	<path class="st0" d="M2369.1-854.2c10.3,3.2,14.7,10.4,19.3,18.4C2376.9-833.4,2369-841,2369.1-854.2z"/>
	<path class="st0" d="M3787.9,561.3c5-0.1,8,2.1,7.8,5.6c-0.3,3.7-6.7,9.8-10.3,9.5c-3.9-0.3-5.9-2.8-6.2-6.6
		C3778.7,565,3782.5,561.4,3787.9,561.3z"/>
	<path class="st0" d="M3447.8-192c-8.8-4.9-16.8-15.7-19.3-26.1c2.5,0.7,5.2,0.5,6.2,1.8C3440.6-209.4,3446.2-202.3,3447.8-192z"/>
	<path class="st0" d="M2417.8-814.5c3.1,2.4,6.3,4.6,9.1,7.3c5.7,5.6,5.5,6.8-1.9,13.6c-5.7-5.7-8.2-12.5-9.3-20
		C2416.4-813.9,2417.1-814.2,2417.8-814.5z"/>
	<path class="st0" d="M2863.6-525.4c-8.6-2.4-9.7-3.9-10.7-14.3C2863.4-541.5,2866.2-538,2863.6-525.4z"/>
	<path class="st0" d="M3038.1-551.1c7.7,3.6,12.8,9.2,17.3,17.1C3041.4-536,3035.7-541.7,3038.1-551.1z"/>
	<path class="st0" d="M3363-441.8c12.3,1.4,16.3,5.6,16.5,16.6C3372.1-429.1,3365-436,3363-441.8z"/>
	<path class="st0" d="M2926.2-573.3c1.3-0.7,3.2-2.5,5.2-2.6c3.9-0.2,8.4,4.4,8,8.3c-0.2,1.6-2.3,4-4,4.3
		C2932-562.5,2926.1-568.2,2926.2-573.3z"/>
	<path class="st0" d="M2951.2-531.6c-6.8-2.1-10.1-5.6-10-12C2949.6-544.4,2952.5-541.1,2951.2-531.6z"/>
	<path class="st0" d="M1654.4-950.9c-8.1-1.4-9.7-7.9-13.8-12.6C1649-964.1,1653.4-960.2,1654.4-950.9z"/>
	<path class="st0" d="M3010.1-538.9c-6.6-2.4-12.2-4.7-13.8-12.3C3004.2-551.7,3007.1-549.1,3010.1-538.9z"/>
	<path class="st0" d="M3381.7-338.8c-6.4-2.6-10.7-8-9.1-11.6c0.3-0.7,1.5-1.5,2.3-1.5C3378.5-352,3381.9-345.3,3381.7-338.8z"/>
	<path class="st0" d="M3419.9-218.6c-5-3.6-7.6-7.1-4.9-12.7C3423.5-227.7,3424.3-225.7,3419.9-218.6z"/>
	<path class="st0" d="M2325.3-865.2c-10.6-0.9-11.4-1.9-10.1-11.1C2321-875.2,2321.8-870.1,2325.3-865.2z"/>
	<path class="st0" d="M2290.4-698c-2.1-1.7-4.6-3.1-6.1-5.2c-0.8-1,0.2-3.3,0.3-5.1c2,0.4,4.7,0.2,5.7,1.4c1.5,1.7,1.7,4.5,2.5,6.8
		C2292.1-699.4,2291.3-698.7,2290.4-698z"/>
	<path class="st0" d="M2338.5-902.3c-7.9-1.7-8.9-6.2-9.8-12C2335.6-913.2,2336.7-908.7,2338.5-902.3z"/>
	<path class="st0" d="M2766.1-604.8c2.9,3.4,5.8,6.9,8.7,10.3c-6.4-0.2-10.2-2.9-11.4-8.1C2764.3-603.3,2765.2-604.1,2766.1-604.8z"
		/>
	<path class="st0" d="M2744.7-614.2c-8.1,2.5-8.6,2.2-10.3-6.2C2738.5-617.9,2741.6-616.1,2744.7-614.2z"/>
	<path class="st0" d="M2960.5-599.1c3.1,1.2,6.2,2.4,11.1,4.2c-6.7,4-9.4,1-12.3-0.9C2959.7-596.9,2960.1-598,2960.5-599.1z"/>
	<path class="st0" d="M2901.2-444.3c4.7,1.2,7,3.1,6.3,8.3C2903.1-437.5,2901.1-439.6,2901.2-444.3z"/>
	<path class="st0" d="M3350-396.5c5,1.8,6.4,4.1,5.7,8.6C3351.7-389.6,3349.2-391.2,3350-396.5z"/>
	<path class="st0" d="M3728.1,575.8c3.5-2.8,5.5-4.3,8.4-6.7C3735.4,575.2,3735.4,575.2,3728.1,575.8z"/>
	<path class="st0" d="M3207.3-489.3c-1.5-1.8-3-3.7-5.7-6.9c5.9,0.2,7.6,1.8,7.7,5.2C3208.7-490.4,3208-489.8,3207.3-489.3z"/>
	<path class="st0" d="M2797.8-109c1.9-0.9,3-1.9,3.9-1.7c0.9,0.2,1.6,1.5,2.4,2.3c-0.9,0.7-1.8,1.9-2.6,1.9
		C2800.5-106.5,2799.6-107.6,2797.8-109z"/>
	<path class="st0" d="M3356.6-488.5c1.1,1.5,1.7,2.5,2.3,3.4c-0.7,0.4-1.5,1.2-1.9,1.1c-0.8-0.2-1.6-1.1-1.8-1.8
		C3355-486.3,3355.8-487.1,3356.6-488.5z"/>
	<path class="st0" d="M3320-506.6c0.8,1.5,1.6,3,2.4,4.6c-0.4,0.2-0.9,0.4-1.3,0.7c-0.8-1.5-1.5-3.1-2.3-4.6
		C3319.2-506.2,3319.6-506.4,3320-506.6z"/>
	<path class="st0" d="M3331.2-498.4c1,0.8,2,1.2,2.2,1.9c0.1,0.4-0.9,1.8-1.4,1.8c-0.7,0-1.8-0.7-2.1-1.3
		C3329.7-496.5,3330.6-497.4,3331.2-498.4z"/>
	<path class="st0" d="M3060.5-674c-1.5-0.9-2.9-1.8-4.4-2.6c0.3-0.6,0.7-1.3,1-1.9c1.6,0.9,3.1,1.8,4.7,2.7
		C3061.4-675.2,3061-674.6,3060.5-674z"/>
	<path class="st0" d="M1246.3-352.2c-0.4-0.5-0.8-0.9-1.3-1.4c0.7-0.3,1.3-0.7,2-1c0.3,0.6,0.7,1.1,0.7,1.7
		C1247.7-352.7,1246.8-352.5,1246.3-352.2z"/>
	<path d="M3537.5,92.7c-5.4,3-7.6,0.8-9.4-2.9c-3.5-7.1-6.7-14.4-10.8-21.1c-2.3-3.8-5.8-7.2-9.6-9.5c-3.7-2.3-6-4.6-7-8.9
		c-1.6-6.6-4.8-12.3-11.2-15.7c-5.2-2.7-4.8-7.8-4.1-13.1c4.7,5.8,10,11.2,14.1,17.4c7.5,11.4,15.8,21.8,25.4,31.6
		C3530.5,76.1,3533.1,84.6,3537.5,92.7z"/>
	<path d="M3342.7,148.1c0.3,0.8,0.7,1.6,0.8,2.3c0,0.2-1.3,0.8-1.4,0.7c-0.5-0.6-0.9-1.4-1.3-2.1
		C3341.4,148.8,3341.9,148.5,3342.7,148.1z"/>
	<path d="M3378.4,157.4c-0.9-0.4-1.4-0.6-2-0.8c0.4-0.7,0.7-1.6,1.2-2.2c0.1-0.1,1.5,0.4,1.5,0.6
		C3379,155.8,3378.6,156.6,3378.4,157.4z"/>
	<path d="M3116.1-312c-1.4-0.6-2.9-1.1-4.3-1.8c-1.9-1-3.8-2.1-5-4.8c3.5,1.4,7,2.9,10.5,4.3C3117-313.6,3116.5-312.8,3116.1-312z"
		/>
	<path d="M1375.4,302.5c12.9,12.4,26,23.1,35.7,39.9c-8.1-2.4-14-3.3-18.6-8.4C1381,321.2,1376.3,313.1,1375.4,302.5z"/>
</g>
</svg>
