<?xml version="1.0" encoding="utf-8"?>
<!-- Generator: Adobe Illustrator 19.1.0, SVG Export Plug-In . SVG Version: 6.00 Build 0)  -->
<svg version="1.1" id="Layer_1" xmlns="http://www.w3.org/2000/svg" xmlns:xlink="http://www.w3.org/1999/xlink" x="0px" y="0px"
	 viewBox="0 0 2450 3264" style="enable-background:new 0 0 2450 3264;" xml:space="preserve">
<style type="text/css">
	.st0{fill:none;stroke:#000000;stroke-width:10;stroke-miterlimit:10;}
	.st1{fill:none;stroke:#000000;stroke-width:24;stroke-miterlimit:10;}
	.st2{fill:#FFFFFF;}
</style>
<g>
	<path class="st0" d="M1390,2c0.4,11.1-1,21.8-6.5,31.8c-2.3,4.2-3.1,9.5-3.8,14.4c-1.1,7.1,0.8,9.2,7.7,9.7c4.6,0.4,9.3,0.5,14,0.7
		c19.3,0.8,38.6,1.3,57.3,6.7c3.7,1.1,7.9,0.5,11.9,0.8c2.3,0.2,4.9,0,6.9,0.9c16.4,7.8,34.2,3.6,51.1,6.5c5.6,1,11.3,1.2,16.8,2.4
		c10.3,2.1,20.5,1.3,30.7-0.2c4.5-0.7,9.4-1.3,13.8-0.4c13.2,3,26.4,2.8,39.8,2.7c8.2-0.1,16.4,1.6,24.7,2.5c2,0.2,3.9,1,5.9,1.1
		c16.2,1.5,32.4,3.2,48.7,4.3c13.9,1,28,0.7,41.8,2.4c8.4,1.1,16.7,4.4,24.6,7.7c10.4,4.3,20.8,6.1,32,6.2c22.9,0.1,45.9,1,68.8,2
		c7.3,0.3,15,0.4,23.2,5.9c-6.4,2.1-11.3,4.1-16.3,5.3c-36.3,8.8-72.5,17.5-108.8,26.2c-8.4,2-17,4.2-25.1-3.4
		c-7,11.9-18.8,13.7-30,16.7c-18.3,4.9-36.6,10-54.9,14.8c-18,4.8-36,9.7-54.1,13.9c-19.4,4.5-35.3,15-50.6,27
		c-2.9,2.2-5.6,5-8.8,6.4c-11.1,4.8-18.4,14-26.7,22.2c-4.7,4.6-10,8.7-15,13c-10.3,8.9-20.7,17.6-30.7,26.7
		c-2.6,2.4-4.4,5.9-5.8,9.3c-0.9,2.2-0.5,4.9-0.6,7.3c2.2,0.1,4.4,0.7,6.5,0.3c3.2-0.6,6.2-2.6,10,1.4c-7.2,6.9-14.3,13.7-21.5,20.4
		c-8,7.4-16.4,14.5-24.2,22.2c-1.8,1.7-3.1,5.6-2.4,7.8c1.2,3.5,4.9,3.3,8.5,2.9c12.4-1.4,21.6-9.6,32.3-14.7
		c12.1-5.7,21.6-15.2,32.1-23.3c8.4-6.4,17.7-11.7,26.8-17.3c1.8-1.1,4.1-1.2,8.6-2.3c-2.4,4-3.4,6.3-4.9,8.1
		c-11.7,13.6-24,26.4-40.2,35.3c-7.8,4.3-15.5,10.2-20.5,18.6c-2,3.4-4.1,6.3-1.7,10c2.5,3.8,5.7,1.7,8.9,0.6
		c13.2-4.7,25.9-10,37.9-17.3c7.2-4.4,16.1-5.8,24.3-8.5c0.3-0.1,1,0.7,2.1,1.6c-1.6,2.3-3.5,4.4-5,6.9c-3.4,5.9-0.8,10.8,6.1,10.7
		c9-0.1,17.9-0.8,26.9-1.3c8-0.5,15.9-0.4,23.5,2.6c5.5,2.1,6.1,5.6,1.6,9.6c-1.7,1.5-3.8,2.6-5.9,3.7c-7,3.8-13.8,8.6-21.2,10.9
		c-9.5,2.8-18.3,8.3-27.8,9.9c-11.4,2-22.4,6.3-33.8,6.9c-22.6,1.1-42.6,8.6-61.9,19.9c-14.5,8.5-29.9,15.4-44.8,23.1
		c-3.5,1.8-8.5,3.1-7.1,8.2c1.4,5.1,6.5,3.9,10.2,3.2c10.7-1.9,21.4-4.3,32.1-6.4c1.2-0.2,2.5,0.1,5.5,0.3c-2,3-2.9,5.5-4.6,6.9
		c-15.2,12.4-30.2,25-48.4,33.2c-8.8,4-17.4,8.4-25.9,12.9c-2.6,1.4-4.7,3.7-7,5.6c-13.2,11.2-26.2,22.5-39.5,33.5
		c-9.7,8.1-19.4,16.3-29.7,23.5c-16,11.2-32.1,22.3-50.1,30.4c-14.2,6.4-28.9,13.9-36.2,28.7c-7.5,15.3-20.7,24.9-32,36.4
		c-1.4,1.4-3,2.8-4,4.4c-1.9,3.1-1.3,6.4,2.1,7.4c6.2,1.8,12,4.9,19.1,3.9c8.9-1.2,17.7,0.7,24.9,8.5c-6.6,7.9-13.7,14.4-22,18.9
		c-13.3,7.3-27.1,14-41.1,19.9c-13.7,5.8-28.2,9.7-41.9,15.5c-8.1,3.5-16.5,7.8-22.7,13.9c-11.1,10.9-24.1,18.8-37.3,26.4
		c-8.1,4.6-16.4,8.9-24.4,13.5c-2.1,1.2-3.7,3.2-6.1,5.3c7.1,5,13.2,7.2,20.6,5c5.4-1.6,10.9-3.3,16.4-4.4
		c6.8-1.4,12.9,0.4,19.1,6.2c-6.4,6.1-11.8,11.8-17.8,16.9c-18.3,15.6-38,29.1-59.8,39.5c-3.2,1.5-6.5,3.8-8.3,6.6
		c-8.4,13.4-20.1,23.3-33.3,31.1c-15.1,8.9-31,16.8-46.9,24.3c-12.3,5.8-25.1,10.5-37.8,15.4c-3.1,1.2-6.7,1.5-10,2.2
		c-0.4-0.9-0.8-1.7-1.2-2.6c2.7-2.1,5.2-4.5,8.2-6.1c18.6-10.4,37.2-20.6,55.8-31c4.3-2.4,8.7-5,12.3-8.3c2.4-2.2,3.5-5.9,6.1-10.6
		c-6.5,0-11.1-0.6-15.5,0.1c-12.8,2-25.7,4.1-38.3,6.9c-6.1,1.3-12.4,3.4-17.5,6.8c-8.4,5.5-17.7,7.6-27.2,9.1
		c-6.3,1-11.2,3.6-15.4,8.3c-4.2,4.7-9.1,8.9-13.1,13.7c-2.5,3-4.9,6.5-5.9,10.2c-1.4,5.2-4.3,8-8.9,9.8c-2.4,1-5.1,2-6.8,3.9
		c-9.3,10-18.3,20.2-27.3,30.4c-0.8,0.9-1.1,2.4-1.8,4.1c6.2,4.7,12.2,6.3,20.2,4.4c13.9-3.2,25.3-11.4,38.4-16.3
		c29.6-11.3,59.4-17,90.7-8.9c8,2.1,15.2,0.6,20.9-6c4.2-4.8,8.3-9.6,12.8-14c7.3-7.2,14.9-14.1,22.4-21c0.6-0.6,1.8-0.5,2.7-0.6
		c4.3,2.6,3.4,6.1,2.4,9.7c-8.2,28.1-18.8,55.4-30.8,82.1c-8.3,18.5-16.6,37-24.5,55.7c-3.5,8.2-3.1,18.9-14.6,21.6
		c-18.2,18.5-36.7,36.7-54.6,55.5c-9.9,10.4-13.6,23.4-11.9,37.8c-3.6-0.6-7.2-1.3-10.8-1.7c-6.7-0.7-11.5,2.2-14.7,7.9
		c-2.5,4.5-5.8,8.6-8.5,13c-2,3.3-4.4,6.7-5.4,10.3c-1,3.5,1.8,5.7,5.3,4.7c3.5-0.9,6.9-3.5,10.3-3.3c11.1,0.6,16.8-6.5,21.9-14.4
		c3.4-5.2,5-10.8,1.6-16.8c9,2.5,16.1-0.1,22.1-7.4c5.3-6.4,11.4-12.1,17.3-17.9c11.9-11.6,20.1-25.5,27.6-40.2
		c4-7.9,11.5-13.9,13-23.3c0.2-1.5,2.8-2.7,4.3-3.9c13.2-10.6,26.4-21.2,39.8-31.6c6.3-5,8.7-11.3,8.4-19.2
		c-0.5-12.2,1.8-24.2,8-34.6c4.5-7.6,11.3-13.8,17.2-20.6c1.3-1.5,3.5-2.5,4.2-4.2c3.5-8.1,8.8-11.8,18.3-11.9
		c6.5-0.1,10.4-7,13.3-12.6c6-11.9,14.6-21.3,24.3-30c3.3-3,6-7.1,8-11.2c9.8-20.4,22.7-38.1,41.5-51.2c2-1.4,4.4-2.2,8.1-4
		c-0.4,4-0.4,6.2-0.8,8.2c-0.5,2.2-1.8,4.3-2.3,6.6c-1.6,7.6,0.5,10.3,8.3,11.3c12.3,1.5,14.3,2.1,23.9,7.6
		c0.6,4.9-2.4,8.6-5.2,12.2c-3.9,5-8.1,9.7-12,14.7c-2.6,3.3-5.8,6.6-4.5,11.9c6.5,1.7,12.4-0.4,18.2-2.8c11.3-4.7,22.7-9.4,34-14
		c1.3-0.5,3-0.2,6.4-0.4c-8.8,10.4-16.9,18.9-26.7,25.8c-7,5-14.2,9.8-21.1,14.9c-2.5,1.9-4.5,4.4-6.9,6.9
		c7.1,7.2,14.5,4.1,21.5,3.5c1.3-0.1,2.5-1.3,3.7-1.4c2.2,0,5.2-0.3,6.4,0.9c1.1,1.1,1.1,4.5,0.2,6.2c-2.1,4.4-4.7,8.8-7.6,12.7
		c-7.1,9.2-14.1,18.5-21.9,27.2c-11.6,12.9-24.3,24.5-38.8,34.2c-6.4,4.2-12.3,9.1-18.2,14c-2.5,2.1-4.8,4.8-6.2,7.7
		c-11.6,24-30.4,41-53,54c-12,7-25.1,12-37.7,18c-9,4.2-18.3,2.6-27.5,1.7c-4.6-0.4-9.2-1.4-13.9-1.6c-18.2-0.9-34.2,4.2-46.7,18.2
		c-7.8,8.7-15.8,17.2-23.3,26c-2.9,3.4-4.7,7.6-7.1,11.5c5.6,3.6,8.5-0.2,11.8-2c15.4-8.6,30.5-17.7,46.2-25.7
		c9.1-4.7,19.2-7.6,28.8-11.4c3.7-1.5,7.4-3,10.9-4.9c7.5-3.9,15.2-6.4,23.9-5.9c15.2,0.9,28.2-7.2,42.2-11.2
		c9.2-2.6,18.7-5.4,28.1-6.1c7.7-0.6,15.8,1.3,23.5,3.2c6.2,1.5,6.9,5.7,2.4,10.2c-5.6,5.6-11.6,10.9-17.5,16.3
		c-16.6,15-35,27.6-53.8,39.5c-12.6,8-26,14.9-39.5,21.1c-9,4.1-19.1,5.8-28.4,9.3c-6.4,2.4-12.9,5.4-18.4,9.5
		c-15.5,11.5-30.3,23.9-45.7,35.5c-3.8,2.9-8.7,4.6-13.3,6c-8.8,2.8-17.9,4.8-26.7,7.6c-12.7,4-25.3,7.9-39.1,5.2
		c-13.5-2.6-25.2,2.8-34.9,11.5c-12.4,11.1-24.1,23-35.9,34.7c-3,3-7.1,6.9-3,11c4.2,4.3,7.7-0.5,11.1-3
		c17.5-12.7,34.7-25.8,52.6-38c6.8-4.6,14.9-7.3,22.5-10.6c3.7-1.6,7.2-0.8,9.3,3.2c3.1,5.7,2.9,10.4-0.9,13.5
		c-1,0.8-2.2,1.5-3.4,2.1c-18.3,9.2-33.3,23-49,35.8c-16.5,13.5-34.4,25-54.1,33.4c-9.7,4.1-24.6,13.9-30.9,24.8
		c12.7-1,24.6-5.2,37.4-1.8c-1.7,5.3-5.6,8-9.3,10.3c-9.9,6.1-20.2,11.6-30.1,17.7c-6.7,4.1-13.1,8.8-20.8,14c3.8,2.4,6.4,4,9.6,5.9
		c-1.2,2-2.1,4.2-3.6,5.7c-18.1,16.8-37.1,32.5-59,44.2c-8.5,4.5-17.7,7.4-26.6,11.2c-9.7,4.2-18.5,9.2-21.2,20.7
		c-0.5,2.3-2.5,4.9-4.5,6.2c-13.7,8.8-23.9,21.3-33.9,33.7c-9.7,12.1-21.9,20.4-35.1,27.5c-15.5,8.3-31.7,15.3-47.6,22.8
		c-15.7,7.4-30.2,16-42.5,29.1c-11.2,12-25.2,21.7-38.4,31.7c-5.2,3.9-9.7,7.5-11.9,14c-1.3,3.7-5,6.7-8,9.7
		c-1.6,1.6-3.7,2.8-5.8,3.9c-7.7,4.1-11,10.2-12,19.2c-1.4,12.2-4.7,24.1-10.3,35.3c-3.1,6.2-7.7,12.8-3.8,20.2
		c-5.4,6-10.8,11.8-16.7,18.3c-5.6-2.8-10.9-0.7-16.1,2.8c-3.9,2.6-8.2,4.4-12.2,6.9c-7.9,5.1-13.6,11-11.6,22
		c0.7,4-3.1,8.9-5.2,14.1c4,9.6,4.1,9.7-5.3,16.6c-3.6,2.7-4.9,5.3-1.5,9c1.1,1.2,2.1,2.5,3.2,3.9c-5.3,21.2-17.4,38.3-31.5,53.9
		c-11.6,12.9-24.3,24.7-36.1,37.4c-15.7,16.8-31.1,33.9-46.6,50.8c-4.4,4.8-6.7,10.4-7.7,17c-1.1,7.2-3.5,14.2-5.4,21.3
		c-0.8,3.1-1.5,6.2-2.7,11.3c4.2-1.7,6.7-2.3,8.7-3.6c8.7-5.6,17.3-11.2,25.7-17.2c8.7-6.1,17.1-12.7,25.6-19.1
		c3.7-2.8,7.2-6.2,11.2-8.3c9.9-5.2,15.7-13.5,18.6-23.7c6.6-22.7,17.4-43.1,31.3-62.1c13.7-18.8,27.2-37.9,40.9-56.7
		c22.2-30.6,49.6-56.6,75.9-83.5c1.5-1.5,3.4-2.7,6.8-3.1c-0.7,2.7-1.1,5.4-2,8c-9.8,27.2-24.7,51.6-42,74.6
		c-5.6,7.5-11.4,14.7-17,22.2c-1.9,2.6-3.2,5.6-4.7,8.3c10.2,7.4,11,10.4,4.3,20.9c-10.7,16.9-21.9,33.4-32.9,50.1
		c-1.5,2.3-2.8,4.7-4.2,7.1c0.5,0.5,1,1,1.6,1.4c1.6-0.7,3.6-1.1,4.6-2.3c3.8-4.6,8.2-9,10.8-14.3c12.3-25,30.8-45,50.3-64.1
		c6.9-6.8,14.7-12.5,21.8-19.1c3.3-3.1,7-6.6,8.6-10.7c12-29.9,29.4-56.8,47.5-83.1c16.4-23.9,33.5-47.3,50.5-70.8
		c2.7-3.8,6.3-7,10.5-9.8c-12.1,36.6-36.9,66.3-52.6,101.2c1.2-0.8,2.7-1.3,3.6-2.4c11.8-13.5,23.5-27.2,35.4-40.6
		c3.4-3.8,6.4-8.6,13.1-9c0.1,8.5-5.9,13.4-9.2,19.6c-3.3,6.3-5.8,12.9-8.7,19.6c5.4,1.9,7.3-1.5,9.5-3.7c5.8-5.9,11.5-12,17.1-18.2
		c15.1-16.6,30.6-33.6,51-42.7c20.1-9,32.2-25.1,46-40.2c5.1-5.5,10.3-10.9,15.5-16.3c0.6,0.4,1.2,0.8,1.8,1.2
		c-2.3,6.4-4.5,12.8-6.9,19.7c9.1-1.8,20.7-9,25.4-16.5c5.9-9.3,11.2-18.9,16.7-28.4c3-5.1,6-10.2,9.8-15c0.9,4.4-1.9,7.6-3.6,11.2
		c-8.7,18.3-17.4,36.6-25.9,55.1c-1.5,3.3-1.7,7.3-2.7,12c3-0.6,4.4-0.5,5.4-1.1c8.7-4.9,17.3-9.9,25.9-14.9c4-2.3,5.8-5.9,6.9-10.4
		c6.6-27,21.3-49.3,41.1-68.5c0.4-0.4,1.2-0.5,2.9-1.1c-0.9,2.3-1.3,4-2.1,5.4c-10.2,17.2-20.5,34.2-30.6,51.5
		c-2.1,3.6-4.7,7.5-2,12.4c4.1,0,8.2,0,13.7,0c-3,6.1-5.6,11.2-8.1,16.3c9.8-4.5,17.2-10.2,16.3-22.2c-0.9-12.4,5.4-22.4,11.9-32.2
		c0.9-1.4,1.8-2.9,3.1-3.9c6.9-5.2,5.8-16.3,17-19.4c8.1-2.2,14.3-10.6,21.9-15.3c7.6-4.7,15.9-8.4,24.1-12c4-1.8,8.6-2.4,12.9-3.6
		c0.5,0.6,1,1.3,1.5,1.9c-1.4,2.8-2.5,5.8-4.2,8.3c-4.1,6-8.5,11.9-12.9,17.8c-3,4.1-5.8,8.1-2.3,14.5c2.9-1.5,5.8-2.4,7.9-4.1
		c17-13.9,33.6-28.4,50.9-41.9c11.9-9.3,13.4-21.4,12.1-34.8c0-0.3-0.1-0.7-0.2-1c-5.6-20.1-1-38.8,7.2-57.2
		c10-22.7,23.1-43.6,37.5-63.6c19.8-27.4,44.4-50.5,67.1-75.3c1.9-2.1,4.3-3.8,7-6.2c1.7,3,2.9,5.2,4.6,8.5c3.4-2.2,6.3-4.1,9.3-6
		c16.7-10.5,34.1-19.8,54.1-22c4.5-0.5,9.4-0.1,13.6,1.3c4.3,1.4,6.9,0.2,9.9-2.3c6.3-5.4,12.7-10.8,19.3-15.9c4-3.1,5.5-7.3,6.3-12
		c3.8-21.1,10.9-41.2,20.8-60.2c9.6-18.3,20.5-35.7,33.5-52.4c0.2,6.2-0.9,9-4.1,15.6c-13.1,26.9-26.7,53.5-36.8,81.8
		c-0.7,1.9-1.5,3.8-1.8,5.7c-0.8,5.4,1.7,7.6,6.9,6.1c2.2-0.7,4.3-1.9,6.4-2.8c7.2-3.1,14.7-4.6,22.4-2c12.7,4.3,22.7-2.7,32.6-8.5
		c2.6-1.5,4-6.1,4.6-9.5c2.2-11.3,6-21.6,12.3-31.4c2.7-4,2.4-10.1,3.1-15.3c0.8-5.6,0.5-11.3,1.7-16.7
		c4.2-19.2,13.5-35.9,25.8-51.1c4.2-5.2,8-10.7,12.2-15.8c2.7-3.2,5.9-6,8.9-9.1c4.9,2.6,5.3,6.5,4.5,9.9c-2,9-4.6,18-7.2,26.9
		c-1.9,6.4-4.2,12.6-6.1,19c-0.5,1.7,0.1,3.7,0.3,7.4c4.5-1.6,8.3-2.4,11.4-4.3c13.1-8,26-16.2,40.8-20.8c5.7-1.8,10.4-5.4,12.3-11
		c2.4-7,5.8-12.5,15.2-14.2c-2.7-2.2-3.9-4-5.3-4.1c-6-0.3-7.5-4.2-7-8.9c0.8-7.5,1.5-15.3,3.8-22.5c6.2-19.8,20.5-34,34.7-48.2
		c4.9-4.9,9.5-10.1,14.6-14.9c1.8-1.7,4.4-2.8,6.9-3.7c7.4-2.7,12.1-7.9,15.1-15c5.7-13.6,13.2-26,23.9-36.4
		c3.3-3.2,5.9-7.2,8.6-10.9c4.6-6.5,9.1-13.1,13.6-19.7c2.5-3.7,4.8-7.6,8.2-13c0.9,7.5-1.7,12.5-3.6,17.3
		c-2.2,5.6-2.5,10.9-1.5,16.6c1.1,5.9,2.3,11.7,3.3,17.6c1.3,7.3,6.3,9.6,12.1,5.1c3.7-2.8,7.4-5.8,10.3-9.4
		c4.1-5.1,7.7-10.5,6.4-18.1c-1.7-10.5,1.3-21,6.1-29.9c5.2-9.5,8.5-20,15.8-28.5c4.7-5.4,7.4-12.5,11.8-18.3
		c8.5-11.1,17.3-21.9,26.4-32.5c2.3-2.7,5.7-4.7,9-5.9c2-0.8,4.8,0.5,7.2,0.8c-0.3,2.1-0.3,4.4-1,6.3c-1.6,4.3-3.6,8.4-5.8,13.2
		c14.3,7.7,24-1.2,34-7.6c6.2,5.6,11.8,10.7,18.8,17c-0.4,1.1-1.2,3.9-2.1,6.5c-1.2,3.5-1.2,7.1,2.1,8.9c1.7,0.9,5.2,0.2,7.1-1
		c14.3-9.5,30.9-11.6,47.1-15.3c2.2-0.5,4.7-0.3,6.9,0.4c1.2,0.4,3,2.8,2.7,3.5c-2.5,6.3-1.3,13.3-6.2,19.5
		c-14,17.3-30.5,31.2-48.6,43.8c-8.7,6-16.9,13-24,20.8c-8.5,9.3-19.2,15.3-29.4,22c-9.4,6.2-19.4,11.5-29.2,17.1
		c-1.1,0.7-2.4,1.3-3.7,1.6c-16.1,3.9-30.3,11.5-43,22c-1.5,1.3-3.9,2.4-4.3,4c-2.4,8.4-7.3,15.5-11.4,23c-2.1,3.8-0.3,5.2,8.3,7.5
		c-1,2.1-1.6,4.4-3.1,5.9c-10.1,10.6-20.1,21.3-32.6,29.3c-4.9,3.2-9.6,7.1-10.5,15.3c13-1.4,23.3-10.6,38.3-10.4
		c-4.5,5.1-7.2,9.3-10.9,12.3c-15.8,12.9-32.9,23.7-51.9,31.3c-8.9,3.6-18.4,5.7-27.1,9.7c-6.8,3.1-12.9,7.9-19,12.3
		c-9.2,6.6-17.9,13.7-27.1,20.2c-9.4,6.7-16.2,15.6-21.8,25.5c-1.5,2.7,0.7,5.5,4,5c2.6-0.4,5.2-1.3,7.5-2.6
		c17.4-9.7,34.7-19.7,52.2-29.4c18.4-10.1,36.8-20,55.4-29.6c3.6-1.9,8.1-2.2,12.6-3.3c0.8,5.6-2.3,7.9-5.2,9.8
		c-21.5,14-42.9,27.9-64.6,41.5c-5.3,3.3-11.3,5.6-17.1,8.2c-7.9,3.5-13.2,8.8-17.3,16.9c-9.8,19.5-23.3,36.4-40.2,50.4
		c-16.9,14.1-36.1,23.7-57.6,28.7c-11.3,2.6-22.4,2.7-33.6-0.3c-1.5-0.4-2.9-1.4-5.2-2.6c4.1-8.4,11.3-13.4,17-19.6
		c5.9-6.2,12-12.2,17.9-18.3c-2.4-5.3-6.2-5.2-9.7-4.2c-7.8,2.1-15.1,5.1-20.4,11.7c-4.4,5.4-9.1,10.7-14.1,15.5
		c-5,4.9-8.7,10.1-6.8,17.9c-2.4,0.7-4.2,1.5-6,1.7c-6.2,0.8-10.1,4.3-13.1,9.6c-5.7,10.2-11.5,20.2-17.5,30.2
		c-2.2,3.7-5.5,6.7-7.8,10.4c-0.9,1.4-1,4.3-0.2,5.4c0.8,1.1,3.5,1,5.3,0.9c1.2-0.1,2.5-1,3.6-1.7c19.3-12.5,41.1-19,62.6-25.8
		c8.5-2.7,17.5-4.1,26.4-5.1c25.5-2.8,51-5,76.7-1.6c15.2,2,28.1,7.6,39.4,17.7c6.3,5.7,6.7,8.3-0.3,13.3
		c-11.9,8.6-23.6,17.7-36.5,24.4c-17.6,9.3-35.9,17.8-54.7,24.4c-20.1,7-40.9,12.5-62.7,9.8c-16-2-31.4-6-44.6-15.8
		c-7-5.2-10.4-12.8-14-20.4c-5.2-11.1-9.9-11.9-19.6-4.1c-7.2,5.9-14.9,11.1-22.4,16.5c-5.1,3.6-10.9,4.4-17.1,4.4
		c-3.8,0-8.5,0.4-11.3,2.6c-8.3,6.6-15.9,14.2-23.5,21.6c-1.3,1.2-1.6,3.4-2.7,5.9c2.8,0,4.7,0.4,6.3-0.1c9.5-2.9,19-6.2,28.5-9.1
		c10.4-3.2,21-3.8,31.6-1.3c6.4,1.5,8.1,4.2,5.1,10c-7.1,13.9-14.7,27.5-22.1,41.3c-0.8,1.5-1.8,2.8-2.4,4.3c-1.2,3.2,0,5.2,3.4,5.6
		c1.3,0.2,2.7-0.1,4-0.3c21-3.7,42-7.3,62.9-11.1c12.8-2.3,25.5-4.9,38.3-7.1c3.2-0.5,6.5-0.1,10.2,1.2c-1.9,1-3.7,2.5-5.7,3
		c-36.2,9-72.4,17.9-108.6,26.8c-8.7,2.2-17.4,4.3-26,6.9c-3,0.9-5.9,3.1-8.3,5.2c-6.3,5.5-12.1,11.5-18.4,16.9
		c-19.7,17-42,29.3-67.2,36c-4.8,1.3-9.9,1-14.9,1.7c-7.2,0.9-10.1,3.4-11,10.6c-4.6,36.5-14.9,71.7-25.3,106.8
		c-7.9,26.6-18.5,52.1-33.2,75.7c-2.9,4.6-5.1,10.2-11.8,12.2c-1.5-1.6-3.3-3.1-4.5-5c-15.7-23.2-24.1-48.8-25.4-76.8
		c-0.1-3.1-1-6.2-1.9-11.2c-3.9,2.7-6.4,4.1-8.5,5.8c-22.4,18.2-47.6,30.4-75.6,37.2c-5,1.2-10.2,3.4-14.4,6.4
		c-13.7,9.7-28.8,16.7-44.2,23.1c-4,1.6-8.4,2-12.6,3.1c-2.4,0.6-4.7,1.4-8.4,2.5c4.3,3.4,7.6,1.4,10.6,1.6
		c8.6,0.5,17.2,1.2,25.7,1.3c4.9,0.1,10.2,0.5,14.5-1.1c14.6-5.5,28.9-11.8,43.4-17.9c1.8-0.7,3.6-1.4,6.2-0.9
		c-1.9,1.3-3.7,2.9-5.8,3.9c-10,5.3-20.1,10.4-30.2,15.6c-3.9,2-7.2,4.2-7.2,9.7c0,2.4-2.4,5.1-4.2,7.2c-1.5,1.7-3.9,2.5-5.7,3.9
		c-4.5,3.6-4.5,5.8,0,9.4c2.5,2.1,5.1,4,8.6,6.6c-17.1,20.4-41.6,29.3-61.4,44.7c2,6,7.6,6.5,11.9,8.4c3.3,1.5,7.1,1.8,10.5,3.1
		c8.5,3.4,10.5,12.4,3.8,18.3c-22.4,19.5-47.7,33.7-76.4,41.8c-7.3,2.1-14.7,4-22.1,5.9c-17,4.4-24.8,18-26.4,33
		c-2.2,20.5-11,33.8-29.7,42.3c-16.8,7.6-33.7,13.1-52,8.6c-23.8-5.9-41.3,4.4-57.2,20.1c-4,4-8.4,7.6-12.2,11.7
		c-5.3,5.7-5.6,7.3-1.7,14.1c5.7,10.2,11.7,20.2,17.6,30.2c4.3,7.1,3.6,9.4-4.2,12.7c-33.9,14.1-68.9,20-105.5,14.5
		c-3.9-0.6-9,0.1-12.2,2.3c-17.1,11.6-34,23.4-50.3,36.1c-6.4,4.9-11,12.2-16,18c0.8,1.8,0.9,2.7,1.3,3c12.5,9,13.1,12.3,4.6,25.2
		c-6.2,9.5-13.7,17.8-22.7,25c-18.7,14.9-38.9,26.6-61.3,34.9c-8.2,3-15.1,9.4-22.4,14.5c-9.2,6.5-18.2,13.3-27.3,20.1
		c-1.6,1.2-3.5,2.1-4.7,3.6c-8.2,10.1-19.2,16.3-30.1,22.8c-4.3,2.5-8,6-12.1,8.8c-3.2,2.2-6.8,3.9-10.2,5.9c0-70,0-140,0-210
		c7.4-6.6,14.8-13.2,22.2-19.9c7.3-6.6,17.4-10.5,20.6-21.2c-15.7,9.2-29.1,21.4-42.8,33.1c0-15.3,0-30.7,0-46
		c9.6-9,20.8-15.6,33-20.3c7.6-3,13.8-7.6,19.8-13.1c18-16.8,36.2-33.3,54.6-49.7c6.4-5.8,13.8-10.5,20.2-16.2
		c16.6-14.9,33.3-29.7,49.3-45.1c12-11.5,23.2-23.9,34.5-36c1.7-1.8,4.1-4.9,3.6-6.7c-1.9-6.7,1.1-11.6,4.2-16.8
		c1-1.7,0.8-4.1,1.2-6.8c-6.2-0.4-8.2,3.9-11.2,6.7c-3.2,2.9-3.9,8.7-10.2,8.8c-1.8-5.3-2.4-10.3,2.1-13.9c4.5-3.6,7.1-7.7,7.5-13.4
		c0.1-1.5,0.9-3.6,2.1-4.4c8.4-5.4,8-15,12.3-23.1c-5.7-0.3-8.8,2.2-10.5,5.9c-4.7,10.1-13.5,16.3-21.5,23.2
		c-7.6,6.5-15.3,12.9-22.1,20.2c-5.5,5.9-10.6,11.6-17.8,15.7c-4.1,2.3-9.1,6.2-10.1,10.2c-2.8,11.4-9.9,19.6-17.9,27
		c-12.5,11.5-25.4,22.5-38.6,33.1c-17.1,13.6-35.7,24.3-57.3,29.3c-9.6,2.2-18.1,6.4-22.6,16.1c-0.9,2-2.9,3.6-4.4,5.4
		C0,1354,0,678,0,2C463.3,2,926.7,2,1390,2z M839.4,514.1c1.3,4.3,4.1,8.6-0.3,12.2c-5.8,4.7-6.2,11.3-7.2,18
		c-1.9,12.1-3.9,24.3-7,36.2c-3.2,12.2-7.6,24-11.5,36c-1.2,3.6-2.2,7.9,1.5,9.9c2.3,1.2,6.3,0.3,9.1-0.8c4.9-1.9,9.4-5.2,14.3-7
		c9.4-3.4,17.1-9.1,22.9-17c9.9-13.4,19.8-26.8,29-40.6c7.4-11,13.7-22.8,20.7-34.1c3.1-5.1,6.9-9.8,10.2-14.7
		c1.7-2.4,3.7-4.9,4.5-7.6c2.8-9.8,8.7-15.7,18.1-20.1c8-3.7,14.6-10.2,21.7-15.7c1.1-0.9,2-2.9,2-4.4c-0.1-5.1,3.5-6.6,7.2-8.3
		c7.5-3.5,13.3-8.8,15.6-17.1c1-3.6,3.4-5.1,6.5-6.8c6-3.4,12.6-6.7,16.9-11.7c5.2-6.2,11.6-9.4,18-13.1c4.7,3.4,8.7,6.3,13.1,9.4
		c-1.6,1.5-2.2,2.3-3,2.8c-1.1,0.7-2.5,1.5-3.7,1.5c-14.4-0.9-22.8,11.4-34.8,15.8c-6.1,2.2-6.3,5.6-3.3,11.1
		c4.5,8.2,4.4,9.4-1.9,16.5c-3.8,4.2-7.9,8.1-11.7,12.3c-1.9,2.1-3.7,4.4-5.3,6.4c2.5,4.6,5.8,4.4,9.1,3.5c2.9-0.8,5.7-1.9,8.5-2.8
		c16.2-5.3,32.6-9.4,49.9-8.7c4.2,0.2,8.7,0.1,12,5.5c-7,6.6-13.5,13.7-21,19.7c-27.5,22.2-57.2,41.3-88.1,58.4
		c-15.5,8.6-32.5,14.8-50.3,14.8c-13.4,0-21.2,5.4-26.6,16.5c-0.7,1.5-2,2.8-2.4,4.3c-0.6,2.2-1.2,4.6-1,6.8
		c0.5,6.9,1.3,13.8,2,20.7c0.4,3.7,2.3,5.7,6,4.6c3.2-0.9,6.2-2.3,9.3-3.6c13-5.7,25.1-14,39.9-15.2c2.1-0.2,4.1-1.9,6.1-3.2
		c16.3-10.3,32.5-20.8,49-30.9c8.5-5.2,17.6-9,28.8-8.5c-1.1,2.9-1.6,5.2-2.7,7.1c-9.4,15.7-19,31.3-31.6,44.8
		c-16.2,17.2-32.8,33.9-52.6,47.3c-14.8,10.1-30.6,17.8-47.8,22c-10.2,2.5-18.1,7.1-25.5,14.4c-9.8,9.5-20.6,17.9-31,26.6
		c-4.3,3.6-8.9,5.3-14.7,2.2c-2.2-1.2-6.4-0.9-8.4,0.5c-4.5,3.2-8.4,7.3-12.3,11.4c-3.2,3.4-5.8,7.2-8.7,10.8
		c-2.5,3.1-5.4,6-7.5,9.3c-7.2,11.2-14.1,22.6-21,34c-1.5,2.5-3,5.3-3.5,8.2c-0.8,4.4,3.2,7.1,7,4.7c2.7-1.8,4.9-4.4,7-7
		c7.8-9.4,15.4-18.8,23.1-28.3c0.4-0.5,0.9-1,1.5-1.4c11.3-8.7,22.4-17.8,34.1-26c20-14,42.5-23.5,63.9-34.8
		c2.5-1.3,5.9-2.5,8.5-1.9c8.3,1.8,14.8-1.8,21.7-5.6c4.3-2.3,9-4.6,13.8-5.2c8.6-1.1,14.7-5.6,20.5-11.3c4-4,8-8,12.2-11.7
		c13-11.7,23.8-25,31.3-40.9c3.4-7.3,14.1-19.1,19-21.8c5.3,10.7,11.5,12.6,21,4.9c5.6-4.5,10.3-10.3,14.7-16.1
		c5.1-6.8,8.8-14.6,16.5-20.4c1.1,2,2.6,3.4,2.4,4.6c-0.6,2.9-1.9,5.6-3,8.4c-3.5,9.6-7.1,19.3-10.5,29c-1.2,3.4-0.5,6.5,2.8,8.7
		c3.3,2.2,6.2,1.4,9.3-0.2c6.6-3.4,12.3-7.7,16.9-13.6c5.7-7.4,10.9-15.4,17.8-21.4c12.9-11.3,24.6-23.3,33.1-38.2
		c3.9-6.9,5.4-7.7,13.7-6.5c5.8,0.9,11.2,0.8,16.3-2.7c1.1-0.7,2.8-0.4,4.3-0.6c-1.1,3.9-3.7,6-5.3,8.6c-1.5,2.6-3.3,6.2-2.6,8.7
		c1,3.5,5,3.7,8.6,3c9.6-2,18.5-5.6,25.7-12.5c5.1-4.9,6.2-11.6,6.4-18.2c0.1-2-2.3-4.4-4-6.1c-1.1-1.2-3.1-1.6-6.5-3.2
		c9.2-5.6,17.1-9.8,24.4-14.9c5.1-3.5,9.7-7.9,14-12.4c3.9-4,7.3-8.6,10.9-13c2.8-3.3,5.8-6.3,8.4-9.7c4.2-5.5,8-11.4,12.4-16.9
		c8.4-10.4,16.8-20.9,31.7-22c1.8-0.1,4.3-1.3,5.2-2.7c5.5-8.6,12.3-17,15.5-26.5c2.2-6.6,4.6-11.3,10.6-14.3
		c0.9-0.4,1.8-0.8,2.7-1.4c5.1-3.5,6.4-7.2,3.8-10.7c-2.4-3.1-6.1-3.3-10.6,0c-2.4,1.7-4.6,3.9-6.5,6.1c-11.1,12.8-22,25.7-33,38.6
		c-2,2.3-3.4,5.7-9,5.2c1.9-5.3,2.6-10.5,5.3-14.3c13.8-19.6,28.1-38.8,42.3-58.1c1-1.3,2.4-2.4,3.4-3.6c4.7-5.5,9.6-10.9,14-16.7
		c6-7.9,11.6-16.2,17.5-24.2c2.1-2.9,4.6-5.8,9-2.6c-7.5,11.7-14.8,23.1-21.9,34.6c-1.9,3.1-4.1,6.3-5.1,9.7c-0.8,2.9-1,7.4,0.6,9.2
		c1.4,1.6,6.2,1.1,9,0.2c16.5-5.6,30.1-15,38.5-31c3.4-6.6,6.6-6.7,12.4-1.5c1,0.9,1.9,1.7,3.4,3.1c6.2-1.6,12.9-2.3,18.7-5
		c9-4.2,17.2-10,25.9-14.8c7.6-4.2,11.1-11.3,13.5-19c2.1-6.6-0.7-9.4-7.6-8.3c-5.2,0.8-10.3,2-15.3,3c-3.7-12.4-2.9-16.2,6.8-21.7
		c9.6-5.4,13.9-15,20.4-22.9c1.5-1.8,1.9-5.2,1.5-7.6c-1-5.5,1.6-7.8,6.2-9.7c3.4-1.4,6.4-3.6,9.6-5.5c-2.9-1.7-5.1-1.8-7.2-1.3
		c-6.1,1.6-12.1,4-18.3,5.1c-12.4,2.3-22,8.4-29.9,18.1c-6.7,8.3-9.3,7.5-13-2.5c-0.2-0.6-0.9-1-1.7-1.8c-9-1.7-18.2-0.1-27.1,2.8
		c-17.4,5.6-34.6,11.9-52,17.7c-18.9,6.4-38,12.3-56.8,19c-14.7,5.3-28.8,12.3-43.6,17.2c-11.4,3.8-22.5,7.4-33,13.6
		c-10.6,6.3-22.6,10.1-35.4,8.7c-5.6-0.6-10.3,1-14.9,4.3c-5.8,4.2-12.1,7.7-19,12c-0.5-11,11.5-8.3,15.3-17
		c-12.9,3.8-23.7,7-34.4,10.3c-3.2,1-6.2,2.2-9.4,3.1c-13.7,3.9-27.6,7.3-41.1,12c-5.8,2-11.1,6-15.9,10c-12,10-23.7,20.4-37.6,27.9
		c-2.9,1.6-5.8,3.4-8.1,5.8c-8.9,9.3-19.8,15.7-30.8,21.9c-4.7,2.6-8.9,5.7-10.9,11.2c-1.3,3.8-3.9,5.6-8.3,5.7
		c-2.9,0.1-6.5,1.8-8.3,4c-10.7,12.7-18.7,26.6-19.2,43.9c-0.3,8.2-4.1,9.9-10.9,5.4c-1.4-0.9-2.5-2.1-3.7-3.3
		c-8.6-8.2-10.8-8.3-20-0.6c-7.9,6.6-15.7,13.4-23.6,20.1C850.3,504.9,845,509.3,839.4,514.1z M700.5,833.7
		c12.1-1,12.1-0.9,19.4-10.2c2.7-3.4,5.3-6.8,7.7-10.4c10.8-16.8,21.9-33.4,32.1-50.5c4-6.7,6.2-14.5,8.7-22
		c1.2-3.6,0.2-7.2-3.4-9.7c-6.2-4.3-7.4-10.6-7.1-17.6c0.1-4.6,0.4-9.4-0.5-13.9c-1-4.8,0-8.6,3.1-12c11.2-12.3,22.5-24.6,33.9-36.6
		c3.9-4.1,8.8-7.1,12.9-11.1c5.6-5.4,4.6-8.9-2.8-11.3c-2.2-0.7-4.5-1.3-6.8-1.7c-6.6-1-11.7-4.6-16.5-8.8
		c-13.7-11.9-13.7-11.9-29.8-4.1c-1.5,0.7-3,1.4-4.4,2.3c-15,8.7-30.6,16.2-47.6,20.3c-5.1,1.2-10.9,2.6-14.8,5.8
		c-14.3,11.8-28.9,23.6-39.1,39.6c-0.9,1.4-0.8,3.4-1.6,7.3c5.5-2.6,9.6-3.9,13-6.2c15.4-10.4,32.5-16.7,50.2-21.4
		c6.7-1.8,13.7-2.6,20.7-3.1c5.6-0.4,11.1,0.9,15.8,6.5c-2.7,2.9-4.7,6.1-7.6,7.9c-9.3,5.8-18.9,11.1-28.4,16.6
		c-5.7,3.3-11.6,6.5-17,10.3c-5.4,3.8-10.4,8.2-15.4,12.6c-2,1.8-3.3,4.4-5.5,7.5c10.4,3.5,18.8-7.8,27.9-0.6
		c-0.7,1.6-1,2.9-1.7,3.9c-13.8,20-32.4,35.2-51.3,49.9c-4.4,3.4-9.2,6.7-14.3,9c-13.1,5.9-25.1,13.3-36.7,22
		c-10.1,7.5-21,14.2-32.2,19.8c-11.3,5.6-23.3,9.8-35.2,13.8c-7.7,2.6-11.7,7.8-14.7,14.7c4,3.9,7.2,1.4,10.3-0.3
		c10.6-5.7,21.4-10.7,33.2-13.6c9.2-2.3,17-7.1,24.7-12.6c9.1-6.6,19.1-12.1,28.8-17.7c2.4-1.4,5.4-3.1,8.7,0.7
		c-1.2,3.3-2.7,6.9-3.7,10.7c-1.8,6.1-0.6,8.5,5.1,11.1c1.5,0.7,3.1,1.2,4.7,1.7c4,1.4,5.9,3.5,4.9,8.2c-1.2,6-1.5,12.2-2.4,19.4
		c8.7,4.3,19.8-4.3,29.7,3.7c-1.6,2.7-2.7,5.8-4.8,8.1c-15.2,16.8-31.4,32.7-50.4,45.2c-6.5,4.3-9.3,10.3-10.6,17.2
		c-1,5.4,1.5,7.4,6.9,5.7c8-2.5,15.2-6.4,21.4-12.4c12.7-12.2,25.8-24.1,38.8-35.9c6.9-6.2,15.1-11.3,20.8-18.4
		C686.8,861.2,701.2,852,700.5,833.7z M779.3,1087.1c8.7,0.3,15.3,3.6,20.5,10c7.7,9.3,7.7,13.7-2.6,20.2
		c-14,8.9-28.3,17.4-43.2,24.6c-12.5,6.1-21.5,15.4-29.3,26.2c-4.3,6-2.8,9,4.5,11.8c6.9,2.7,15.2,0.4,21.5,5.8
		c1,0.8,3.9-0.2,5.7-0.9c3.7-1.4,7.3-3.3,11-4.7c12.1-4.6,24-9.8,36.4-13.3c6.8-2,12.6-4.8,16.3-10.5c6.5-9.7,14.6-17.7,23.4-25.4
		c21-18.4,41.1-37.9,61.5-56.9c6.3-5.9,7.9-11,4.2-18.7c-2.5-5.2-2.6-10-1.8-15.4c1.4-9.5,2.4-19.1,3.5-28.7
		c1.1-8.9-2-11.6-10.9-9.5c-1,0.2-1.9,0.5-2.9,0.8c-21.6,7.1-43.8,11-66.3,13.6c-3.3,0.4-6.8,0.8-9.6,2.4
		c-20.8,11.4-43.7,17.4-65.7,25.9c-13,5-26.7,8.1-38.4,16.3c-2.4,1.7-5.3,2.7-8.1,3.6c-13.1,4.3-21.4,12.7-24.3,26.5
		c-1.4,6.5-3.7,12.8-5.6,19.1c-0.8,2.5-1.9,5-2.2,7.6c-0.5,3.7,1.6,5.9,5.4,5c3.9-1,7.6-2.5,11.3-4c17.7-7.5,35.3-15.5,53.2-22.4
		C757.2,1092.1,768.4,1090,779.3,1087.1z M800.2,922.7c-10,2.3-15.3,9.3-20.9,15.7c-5.9,6.7-11.3,13.9-17.2,20.7
		c-4.4,5-8.5,10.7-13.9,14.2c-11.2,7.1-23.2,13-34.9,19.2c-1.7,0.9-3.8,0.9-5.8,1.3c-12.6,2.1-24.2,8-36.7,10.3
		c-0.6,0.1-1.2,0.6-1.8,0.9c-15.6,9.3-25.1,24.3-35.5,38.4c-0.1,0.2,0.2,0.6,0.5,1.5c8.9,2.2,14.8-8.1,25.8-6.1
		c-4.5,3.8-7.7,7-11.4,9.3c-6.1,3.9-13.3,6.5-18.9,11c-24.2,19.4-48.7,38.3-74.5,55.4c-2.5,1.7-5.6,3.6-5.3,7.8
		c1.3,0.1,2.4,0.5,3.2,0.2c12.3-4.1,24.6-8.2,36.9-12.4c5.1-1.7,9.9-3,15.5-1.2c4.6,1.5,9.9,1,14.8,1.3c7.4,0.4,13.3-2.7,16.4-9.3
		c3.3-7,9.2-11.2,14.3-16.4c4.9-4.9,9.8-9.8,14.8-14.7c9.2-9.1,17.8-19.1,27.9-27.2c9.3-7.5,19.5-13.7,26.6-23.6
		c1.6-2.2,4.9-3.4,7.6-4.4c11-3.7,17.7-12.4,24.6-20.9c4.8-5.9,8.8-12.6,14.5-17.4c10.8-8.9,20.8-18.3,30-28.9
		C803.7,939.8,803.9,932.4,800.2,922.7z M576.5,1341.3c2.5,0.3,5,0.7,7.5,0.9c4.1,0.3,6.9,2.5,4.8,6.4c-3.4,6.4-0.2,10,4.4,13.4
		c3.2,2.4,4.7,5.4,4.4,9.4c-0.4,5.6,0.5,11.6,6.1,13.5c6.1,2.1,9.1-3.8,12.5-7.8c8.1-9.6,16.3-19.2,24.8-28.6
		c2.2-2.4,5.4-3.9,8.2-5.9c0.7,0.5,1.3,1,2,1.5c-2.6,8.1-5.2,16.3-7.8,24.4c3.7,0.1,6.1-0.5,7.5-2c15-15.8,29.9-31.8,44.8-47.7
		c-3.4-5.6-7.1-6.6-12.4-5.2c-5.1,1.3-10.6,2.5-15.7,1.9c-10.2-1.2-20.4-2.9-30.2-5.8c-6.5-1.9-12.2-2.3-18.1,1.1
		C604.2,1319.1,589.7,1328.3,576.5,1341.3z M877.7,1461.7c-1-0.4-1.9-0.8-2.9-1.2c-2.4,2.5-5.2,4.8-7.1,7.7
		c-10.6,15.7-21.4,31.3-31.3,47.4c-6.9,11.3-13.2,23.1-18.6,35.1c-2.6,5.8-3,12.8-3.8,19.3c-0.5,4.4,0.5,8.6,5.3,10.7
		c4.5,1.9,7.6-0.5,10.7-3.3c13.6-12.2,27.2-24.4,40.7-36.6c3.7-3.3,7.4-6.7,10.7-10.4c7.6-8.9,9.1-25.4,2.9-35.4
		c-4.4-7.1-5.8-14.7-6.1-22.8C878,1468.7,877.8,1465.2,877.7,1461.7z M805.4,828.9c-3.6,0.5-6.3,0.3-8.5,1.4
		c-6.2,3.1-12.5,6.2-18.2,10.1c-7.7,5.2-14.2,12.6-22.4,16.3c-8.5,3.8-18.6,4.1-27.8,6.4c-3.7,0.9-7.9,2.2-10.7,4.7
		c-9.8,9.1-21.3,14.5-34.1,17.8c-3.3,0.9-6.8,2.8-9.3,5.2c-11.3,10.7-13.8,25.1-15.8,39.6c0,0.3,0.9,0.8,1.8,1.5
		c8.7-2.4,11.5-12,19.2-17c2.5,6.1,6.3,5.7,11.2,3.2c13.3-6.8,26.7-13.2,41.1-17.8c9.7-3.1,18.2-9.4,23.9-18.8c1.8-3,4.3-6,7.2-8.1
		c8.3-6,17.3-11.1,25.4-17.3C796.9,849.7,802.6,840.9,805.4,828.9z M986,680.1c-1.7,3-3.8,6.6-6,10.3c-6.5,11.2-13.3,22.2-19.4,33.6
		c-3.7,6.9,0.3,12.4,7.9,10.4c6.2-1.6,13.1-4.4,17.5-8.8c5.8-5.9,12-10.2,19.3-13.6c1.8-0.8,3.6-1.9,4.9-3.4
		c7.6-8.9,16.2-16.5,26.2-22.6c3-1.8,4.7-6.2,6.2-9.8c0.8-1.8,0.5-5-0.7-6.5c-3.5-4.4-7-9.7-11.8-11.8c-6.1-2.7-7.6-6.1-7.8-12.1
		c-0.2-8.4-6-11.1-12.6-5.9c-5,3.8-9.5,8.3-13.8,12.9C989.1,660,981.7,667.3,986,680.1z M580.9,704c0.6,0.5,1.3,1,1.9,1.5
		c2.2-1.1,4.7-2,6.7-3.5c20.2-15.2,40.3-30.4,60.5-45.7c1.3-1,2.6-2.1,3.5-3.5c1.8-2.9,1.6-5.9-1.6-7.7c-2.3-1.3-4.8-2.3-7.3-3
		c-5.2-1.6-9.1-4.7-13-9.4c4.6-2.9,8.6-5.3,12.5-7.8c10.7-6.7,22-12.6,31.9-20.3c8.3-6.5,15.1-14.9,22.5-22.5
		c4.8-4.9,6-9.3,3.5-12.2c-2.9-3.2-6.8-1.4-12.6,3.7c-7.2,6.3-14.5,13.3-23,17c-11.4,5-20.2,12.6-28.7,21c-6.3,6.3-11,13.3-11,19.9
		c-5,6.9-8.6,11.9-12.2,16.9c-2.8,4.1-5.6,8.2-8.3,12.4c-7.9,12.2-15.9,24.5-23.7,36.8C581.3,699.4,581.4,701.9,580.9,704z
		 M584.3,1211.7c3.9-0.8,5.9-0.8,7.6-1.6c6-2.9,11.8-6.2,17.8-9c11.2-5.1,22.5-10,33.7-15c1.5-0.7,3.1-1.5,4.1-2.7
		c4.1-4.9,9-4.1,14.6-3.1c5.8,1,11.9,1.3,17.7,0.6c6.6-0.8,13-2.9,19.4-4.7c8.7-2.4,15-8.5,20.7-15c3.2-3.6,1.5-7.2-3.1-7.9
		c-1.9-0.3-4,0.2-5.9,0.3c-10.1,0.6-19-2.6-26.9-8.6c-2.6-2-5.3-4-8.3-5.4c-8.1-3.8-10.4-3.1-16.4,3.6
		c-16.3,18.1-33.4,35.3-55.1,47.2c-3.5,1.9-6.6,4.4-9.8,6.9C590,1200.5,586.6,1204.5,584.3,1211.7z M1165.4,587.8
		c1.6,6,4.9,8,9.4,6.8c4.4-1.1,9.1-2.5,12.5-5.2c5.7-4.5,11.1-9.1,17.3-13c23.4-14.6,46.5-29.6,69.6-44.6c3.3-2.1,8-4.2,9.1-7.4
		c2.1-6,6.7-7.8,11.4-10.1c2.7-1.3,5.8-2.4,7.6-4.6c1.7-2,3.2-5.5,2.6-7.7c-0.6-2.1-3.9-4.3-6.4-4.9c-13-3.2-23,2.3-31.8,11.5
		c-2.9,3.1-6.1,6.4-9.9,8c-17.5,7.3-31.2,20-45.9,31.4c-6.2,4.9-11.6,10.8-17.3,16.4c-5.9,5.7-11.2,12.1-19.2,15.5
		C1170.8,581.5,1168.1,585.3,1165.4,587.8z M810.2,869.2c-0.4,8.6,2.2,11.1,10.7,8.6c4.9-1.4,9.7-4.3,13.8-7.4
		c5.9-4.4,11.1-9.4,18.7-11c2.3-0.5,4.9-2.7,5.9-4.8c2.2-4.8,6.2-6.7,10.5-8.6c6.7-2.9,12.9-6.7,18-12.2c4.6-5,9.5-10.4,17.7-9.2
		c1.1,0.2,2.4-1,3.7-1.4c11.1-3.2,18.4-11.5,26.4-19c9.7-9.2,9.4-14.4-2.3-21.2c-1.4-0.8-2.9-1.6-4.5-2.1c-8.4-2.7-15.6,1.3-19,9.5
		c-2.1,5.1-5.6,9.6-8.6,14.2c-2.5,3.8-5.4,7.4-7.7,11.3c-2.1,3.6-4.2,7.4-8.8,7.2c-15.7-0.7-27,8.6-38,17.3c-5.1,4-9.3,7.3-16,8.4
		C819.4,850.6,810.6,860.3,810.2,869.2z M898.6,745.6c-6.4-0.4-11.6,0.9-16.1,4.9c-11.4,10.2-22.7,20.6-34.5,30.2
		c-10.9,8.9-16.8,20.4-20.6,33.4c-2.4,8.5,2.1,13.6,10.4,10.3c11.4-4.5,22.5-10,32.9-16.4c4.5-2.7,7.7-8.2,10.4-13.1
		c4.7-8.4,8-17.6,12.8-25.9C898.2,761.7,898.3,754.1,898.6,745.6z M1117,977c-2.1-4.7-5.7-4.8-9.4-3.8
		c-20.1,5.5-40.4,10.5-60.3,16.9c-5,1.6-8.7,7.5-12.9,11.5c1,9.5-5.8,13.1-12.7,16.6c-1.2,0.6-2.5,1.4-3.1,2.4
		c-1.3,2.4-3.5,5.6-2.8,7.6c1.1,3.5,5.2,4.4,8.4,2.8c5.3-2.5,10.3-5.8,15.4-8.7c3.3-1.9,6.7-5.2,10.1-5.3c10.5-0.2,19.2-4.5,27.6-10
		c8.6-5.6,17.3-11.1,25.8-16.8C1108.6,986.7,1114,983,1117,977z M982,1408c-3.9,2.1-6,2.9-7.7,4.2c-18.2,14.8-33.4,32.2-45.7,52.2
		c-8.5,13.8-17.6,27.3-26.3,41c-1.3,2-2,4.3-3,6.4c0.6,0.5,1.2,1.1,1.8,1.6c2.3-1.5,4.9-2.7,6.9-4.5c10.8-9.9,21.3-20,32.1-29.9
		c10.4-9.5,19.4-19.9,24.6-33.4c1.5-4,4.2-7.5,6.3-11.3c3.2-5.8,6.4-11.6,9.3-17.6C981.2,1414.8,981.2,1412.3,982,1408z
		 M259.6,1517.6c6.2,7,12.5,14.1,18.4,20.8c3.5-1.3,5.8-2.1,8.7-3.1c-0.3,5-7.1,8.8,0.3,13.6c6.7-8.7,13.4-17.2,19.9-25.9
		c1-1.3,2.1-3.5,1.6-4.6c-3.3-8,2.8-12.1,6.5-17.3c1.9-2.7,3.9-5.5,5.1-8.6c0.7-1.9,0.8-5.1-0.3-6.2c-1.1-1.2-4.2-1.1-6.3-0.8
		c-1.9,0.3-3.7,1.5-5.5,2.3c-11.6,5.7-23.2,11.7-35,17.1C267.3,1507.6,263.1,1511.4,259.6,1517.6z M501.3,1133.7
		c20.5-9.4,37.5-23,56.1-38.3c-13-2.3-23.5-2.6-32.8,4.9c-9.3,7.5-18,15.9-27.5,23c-5.1,3.8-7.8,7.5-5.6,13.6
		c-19.9,6.2-27.6,14.3-26,26.5c13.9-1.7,32.1-11.8,39.7-22.4C504.1,1138.9,502.9,1136.7,501.3,1133.7z M801.6,1186
		c-0.9-0.4-1.7-0.9-2.6-1.3c-1.7,1.3-3.6,2.4-5.1,3.9c-7.4,7.6-14.8,15.1-21.9,22.9c-1.6,1.7-2.4,4.5-2.9,6.9
		c-2.1,10.5-2.7,21.4-13.7,28c-5.1,3-6.1,8.9-3.5,11c4.3,3.6,8.4,0.8,11.7-1.7c9.3-7,18.4-14.2,27.3-21.6c3.8-3.1,5.7-7.1,3.3-12.4
		c-0.8-1.8-0.3-4.5,0.2-6.6c1.8-6.7,4.1-13.3,5.9-20C801.1,1192.3,801.2,1189.1,801.6,1186z M767.7,925.8c8.5-0.1,15.8-3.9,20.7-9.7
		c2.5-3,4.7-6.5,7.6-9.1c6.9-6.3,6.3-13.5,1.4-21.6c-6.6-11-17.9-11-24.4-0.4c-5.4,8.7-10.6,17.6-15.7,26.4
		c-3.1,5.3-2.7,7.5,2.2,10.7C762.4,924,765.9,925.1,767.7,925.8z M759.1,1684.5c12.4-0.8,24.3-8.5,28.7-17.9
		c4.8-10.2,9.8-20.4,14.4-30.7c1.1-2.4,1-5.4,1.4-8.1c-2.8,0-5.7-0.3-8.4,0.2c-1.8,0.3-3.6,1.7-5.1,2.9c-10.2,8-20.4,16-30.5,24.2
		c-2.3,1.9-4.5,4.1-6.1,6.5c-2.7,4-1.5,6.6,3.2,8.2c2.9,1,5.8,1.9,9.2,3.1C763.2,1677.5,761.3,1680.7,759.1,1684.5z M506,1264.6
		c0.7,0.5,1.3,1,2,1.6c3.3-2.4,7.1-4.4,9.8-7.4c12.7-14,25-28.3,37.4-42.6c1.3-1.5,2.1-3.4,2.8-5.3c1.5-4-0.1-7.5-4.3-8.2
		c-2.5-0.4-5.6-0.4-7.7,0.8c-7.8,4.3-15.6,8.8-22.9,13.9c-2.4,1.7-4.7,5.3-4.8,8.1c-0.4,11-5.2,20.5-9.2,30.3
		C508,1258.6,507.1,1261.6,506,1264.6z M844.3,427.8c8.3,1.5,8.3,1.6,14.2-1.2C882,416,906.5,409,932,406.1
		c6.4-0.7,10.7-3.9,12.6-9.6c1-2.9,1.4-7.2-0.1-9.3c-1.4-1.8-5.7-1.6-8.8-1.8c-1.6-0.1-3.2,0.7-4.8,1.2
		c-15.6,4.8-30.5,11.1-44.6,19.4c-9.1,5.4-18.6,10.2-29.6,10.9C850.8,417.3,846.5,421,844.3,427.8z M586.6,1722.4
		c-2.9,1.7-4.5,2.3-5.7,3.4c-10.7,9.4-21.5,18.8-31.9,28.5c-9.7,9.1-18.4,19.2-24,31.4c-0.7,1.5-0.7,3.3-1.4,6.7
		c11.9-7.2,22.3-13.6,32.7-19.9c0.6-0.3,1-0.9,1.4-1.4c7.7-8.6,15.6-17.2,23.2-26C586,1739.1,587.7,1731.9,586.6,1722.4z
		 M554.3,956.4c-3-0.2-3.7-0.4-4.2-0.2c-16.9,7.1-33.7,14.1-50.5,21.4c-2.6,1.1-6,3-6.7,5.3c-2.5,7.4-4,15.1-6.1,23.9
		c3.4-0.6,5.5-0.5,7.1-1.4c18.2-10.5,35.7-22,51.7-35.6C549.1,966.8,550.9,961.8,554.3,956.4z M737,578.8c0.7-0.2,1.7-0.3,2.6-0.7
		c11.5-5.9,24.4-10.1,34.1-18.2c8.3-7,13.2-18.4,19-28.1c1.7-2.8-1-5-4.3-4.7c-1.5,0.2-3,1.2-4.4,2.1c-6.7,4.2-13.6,8.3-20.1,12.8
		c-2.6,1.8-4.6,4.5-6.8,6.9c-3.3,3.6-6.4,7.3-9.8,10.8c-4.3,4.5-9.1,8.7-13.1,13.5C732,575.9,733.7,578.8,737,578.8z M600.6,1023.1
		c0.6,0.6,1.1,1.3,1.7,1.9c1.3-0.1,2.7,0.3,3.7-0.2c14.2-7.2,28.4-14.5,42.5-21.8c0.9-0.4,1.6-1.2,2.4-1.8c4-3.7,2.2-7.8,1.1-12
		c-1.1-4.1-3.8-6.5-7.8-6.3c-7.3,0.3-14.2,1.2-19.1,8.5c-5.3,8-12,15-17.9,22.6C604.8,1016.7,602.8,1020,600.6,1023.1z M513.7,741.9
		c5.8,1.8,10.1-0.4,14.4-2.9c6.3-3.6,12.7-7,19.2-10.3c5.8-3,10.1-7.1,12.7-13.3c3.2-7.6,7.4-14.8,10.9-22.2
		c1.3-2.7,1.8-5.8,2.7-8.7c-0.7-0.5-1.4-0.9-2.1-1.4c-2.2,1.6-4.8,3-6.7,5C547.7,705.8,529.4,722.4,513.7,741.9z M909.6,752
		c15.9-1.6,39.5-24.7,41-39.9c-9.5-5-14.5-4.3-21,2.9c-2.4,2.7-5.2,5.1-7.5,8c-4.1,5.2-8.3,10.4-11.7,16
		C908.1,742.9,906.6,747.5,909.6,752z M408.2,1125.2c-0.4-0.5-0.9-1-1.3-1.6c-19.9,11.5-41.4,18.3-63.8,22
		c-9.2,1.6-13.8,7.2-18.7,13.4c-0.9,1.2-0.8,3.8-0.1,5.4c0.4,1,2.9,1.8,4.2,1.4c7.7-1.9,15.9-3,22.7-6.6c16.8-8.7,33-18.6,49.4-28.1
		C403.3,1129.5,405.6,1127.2,408.2,1125.2z M203,1487.4c7.8,9.5,12.5,10.9,21.9,6.9c11.3-4.8,22.6-9.7,33.8-14.6
		c2.3-1,4.3-2.6,7.2-4.4c-6.8-2.4-12.3-5-18.1-6.1c-4-0.8-8.6-0.3-12.4,1.1c-5.9,2.1-11.4,5.4-17,8.3
		C213.2,1481.4,208.2,1484.4,203,1487.4z M347.8,1399.8c14.3,3.9,30.6-8.7,29.9-22.3c-0.3-6-3.8-8.6-9.3-5.7
		C357,1377.7,349.7,1386.8,347.8,1399.8z M447.7,1142.7c7.4-0.9,11.2-5.5,13.2-11.2c3.6-9.7,8.1-18.8,14.4-27.1
		c1.9-2.5,4.2-5.5-0.2-9.8c-10.9,10.2-17.5,23.5-26,35.2C446.6,1133.1,444.8,1137.3,447.7,1142.7z M638.6,740.3
		c-13.5-0.9-39.3,17.9-41,31.2c14-6.3,25-15.8,36.6-24.3C636.4,745.5,639.8,744.2,638.6,740.3z M679.7,1389.6
		c4-1.8,7.5-2.8,10.3-4.7c7.9-5.5,15.7-11.2,23.1-17.2c1.9-1.6,4.2-5.6,3.4-7.1c-1.9-3.9-5.6-1.6-8.7-0.5c-0.3,0.1-0.7,0.2-0.9,0.4
		c-9,8.3-18,16.5-26.9,24.9C679.5,1385.8,679.8,1387.1,679.7,1389.6z M508.1,1361.1c8.7-2.3,16.6-5.9,23.4-11.6
		c1.4-1.2,2.5-4.6,1.7-5.9c-1-2-3.6-4-5.8-4.4C517.4,1337.1,506.2,1349.5,508.1,1361.1z M156,1863.6c10.1,0.7,28.7-8.6,33.1-16.5
		C175.2,1843.8,166.7,1848,156,1863.6z M1332,1155c-9.6,0.3-18.3,3.4-20.9,7.7c-1.2,2-2.2,5.5-1.3,7.1c0.9,1.5,4.9,2.3,6.9,1.5
		c5.8-2.3,11.4-5.3,16.7-8.5c1.4-0.9,2.4-3.8,2.2-5.6C1335.5,1156.1,1332.7,1155.3,1332,1155z M973.3,1446.2
		c10.5-4.9,17.1-12.5,23.8-19.9c0.7-0.8,0.5-3.8-0.4-4.4c-1.4-1-4-1.6-5.3-0.9c-8.1,4.2-15.1,9.7-18.7,18.4
		C972.2,1440.8,973,1442.9,973.3,1446.2z M604.7,711.6c-12.6,3-21.7,11.1-23.3,20.3C593.6,734.1,604.6,724.8,604.7,711.6z
		 M654.1,1422.7c-14.3-5.4-26.4,0.3-29.1,12.7C636.6,1435.9,644.8,1430.2,654.1,1422.7z M566.4,1049.8c1.9,5,4.7,4.3,7.1,2.9
		c6.9-3.9,13.7-8.1,20.4-12.4c1.3-0.9,1.9-2.9,2.9-4.7c-5-2.3-9.3-2.3-13,0.4C577.9,1040.4,572.3,1045,566.4,1049.8z M764.4,819
		c-8.2-7.9-17.7-7.4-22.7,0.9C755.1,830,756.4,830,764.4,819z M837.5,666.7c6.1-0.1,11.7-4.5,11.7-8.4c0.1-4.4-3.9-8.4-8.1-8.3
		c-4.3,0.1-8.6,5.3-8.6,10.5C832.6,664.3,834.4,666.6,837.5,666.7z M167.6,1514.7c13.3,0,20.8-7.9,18.4-19.3
		C178,1500,170.7,1504.4,167.6,1514.7z M1582,94.8c0.1,5.4,3.7,9.2,8.6,8.8c3.7-0.3,6.2-2.4,6.6-6.2c0.3-3.6-5.8-10-9.5-10.3
		C1584.1,86.8,1581.9,89.8,1582,94.8z M602.8,1475.5c9.3-3.6,16.6-7.1,22.7-13c-3.1-4.7-6.4-4.8-10-3.2
		C609.2,1461.9,604,1465.6,602.8,1475.5z M828.9,435.5c-10.3,1.6-17.4,7.2-24.3,13.1c-1.2,1.1-1.1,3.7-1.8,6.2
		C813.2,452.3,824,444.3,828.9,435.5z M207.2,1465.9c0.3,0.7,0.6,1.4,0.9,2.1c7.5-1.1,14.4-3.6,20-9.3c-6.8-7.4-8-7.6-13.6-1.9
		C211.8,1459.5,209.6,1462.8,207.2,1465.9z M642.3,1296.8c4.4-2.5,9.1-4.9,13.4-7.8c0.9-0.6,1.5-3.5,0.9-4.2c-1-1.3-3.6-2.9-4.6-2.5
		c-4.8,2.1-9.4,4.6-13.8,7.4c-0.9,0.6-1.2,3.2-0.7,4.3C638.2,1295.1,640.2,1295.6,642.3,1296.8z M496,1019.9
		c-12.7-2.6-16.1,0.2-14.3,10.7C492.1,1029.6,493.6,1028.5,496,1019.9z M470.2,845.4c9.3,2.4,14.9-3.3,17.1-17.3
		C479.4,832.6,473.9,837.7,470.2,845.4z M579.2,520.4c5.7-2,12.6-9.1,16.6-16.5C584.8,504.1,580.6,508,579.2,520.4z M448,957.3
		c5.1,0.1,10.9-5.8,10.1-9.3c-0.4-1.6-2.7-3.8-4.3-4c-3.9-0.4-8.5,4.1-8.3,8C445.5,954.1,447.3,956,448,957.3z M489.7,932.3
		c-9.4-1.2-12.7,1.7-12,10C484.1,942.4,487.6,939.1,489.7,932.3z M71.4,2229.4c-9.4,1-13.3,5.4-12.6,13.8
		C63.5,2239.1,70,2237.5,71.4,2229.4z M482.4,873.4c-10.2,2.9-12.8,5.8-12.3,13.8C477.6,885.7,480,880,482.4,873.4z M682.2,501.7
		c-6.5-0.2-13.2,3.2-13.1,6.8c0,0.8,0.8,1.9,1.5,2.3C674.1,512.5,679.6,508.1,682.2,501.7z M802.4,463.4c-7.1-4.4-9.1-3.6-12.7,4.9
		C795.3,471.1,798.7,468.4,802.4,463.4z M156.6,1558.5c-4.9,3.5-10.1,4.3-11.1,10.1C154.8,1569.8,155.7,1569.1,156.6,1558.5z
		 M496.5,1078c-8.2-0.7-13.1,1.6-14.3,5.5c-0.3,1,0.2,2.8,0.9,3.4c0.8,0.7,2.9,1.1,3.6,0.6C489.6,1085.1,492.2,1082.3,496.5,1078z
		 M323.8,1593.2c-0.7-0.8-1.3-1.6-2-2.5c-2.3,0.8-5.1,1-6.8,2.5c-1.2,1-1,3.8-1.4,5.7c1.7,0.2,4,1.1,5.1,0.3
		C320.7,1597.7,322.1,1595.3,323.8,1593.2z M119.5,1545.3c-6.4,1.8-10.9,2.9-12,9.8C113.3,1554.2,117.8,1553.3,119.5,1545.3z
		 M416.7,1117.5c0.7,0.9,1.5,1.8,2.2,2.7c5.2-1.2,7.9-5,8.1-11.4C423.6,1111.8,420.1,1114.6,416.7,1117.5z M407.3,1138.9
		c-1.9,3.1-3.7,6.2-6.2,10.3C409.5,1147.5,409.8,1147,407.3,1138.9z M422.2,923.1c1.1,0.4,2.2,0.8,3.3,1.2c1.9-3,4.9-5.6,0.9-12.3
		C424.6,916.9,423.4,920,422.2,923.1z M577.1,982.2c4.7,0.1,6.8-2,8.3-6.3C580.2,975.2,578.3,977.5,577.1,982.2z M624.5,533.4
		c5.4,0.8,7-1.7,8.6-5.7C628.5,526.9,626.2,528.3,624.5,533.4z M1596.5,154.6c-0.6-7.3-0.6-7.3-6.7-8.4
		C1592.2,149.1,1593.7,151,1596.5,154.6z M531.8,676.2c-0.6-0.7-1.1-1.4-1.7-2.1c-3.4,0.1-5,1.9-5.2,7.7
		C528.2,679.2,530,677.7,531.8,676.2z M912.4,1085.4c1.3-1.8,2.5-2.7,2.5-3.6c0-0.9-1.2-1.8-1.9-2.6c-0.8,0.8-2.1,1.5-2.3,2.4
		C910.6,1082.4,911.5,1083.5,912.4,1085.4z M532.5,526.9c1.3,0.8,2.2,1.6,2.6,1.4c0.8-0.2,1.6-1.1,1.8-1.8c0.2-0.5-0.7-1.3-1.1-1.9
		C535,525.2,534,525.8,532.5,526.9z M514.4,563.5c0.2,0.4,0.4,0.8,0.6,1.2c1.5-0.8,3.1-1.5,4.6-2.3c-0.2-0.4-0.4-0.9-0.7-1.3
		C517.4,561.9,515.9,562.7,514.4,563.5z M522.6,552.3c1,0.6,2,1.5,2.3,1.3c0.7-0.3,1.4-1.4,1.3-2.1c0-0.5-1.3-1.5-1.8-1.4
		C523.8,550.3,523.4,551.3,522.6,552.3z M347.2,823.1c-0.6-0.4-1.2-0.9-1.9-1.3c-0.9,1.6-1.8,3.1-2.7,4.7c0.6,0.3,1.3,0.7,1.9,1
		C345.5,826,346.3,824.5,347.2,823.1z"/>
	<path class="st1" d="M262,3266c19.4-9.5,39-18.7,58.2-28.6c21.3-11,42.3-22.6,63.4-33.9c9.7-5.2,19.4-10.3,29.1-15.5
		c6-3.2,10.7-7.8,14-13.8c12-21.8,27.8-40.6,45.7-57.7c13.3-12.7,27.3-24.4,44.1-32.5c10-4.8,20.2-8.6,31.5-8.5
		c7.5,0,12.6-3.6,17-10.2c19.3-28.7,36.8-58.8,60.3-84.3c17.6-19.1,36-37,57.4-52.3c19.4-13.9,36.2-31.2,45.9-54.3
		c4.7-11.3,11.4-21.8,17.9-32.2c11.7-18.5,23.4-37.2,36.2-54.9c10.3-14.2,22.5-27.1,33.8-40.7c3.8-4.6,7.4-9.4,11.2-14
		c3.1-3.8,6.2-7.5,9.3-11.2c0.7,0.4,1.4,0.9,2,1.3c-5,9.9-9.4,20.2-15.1,29.7c-35.4,59.2-71.1,118.2-106.6,177.3
		c-5.7,9.4-11.1,18.9-16.8,28.3c-1.1,1.8-2.7,3.3-4.6,5.5c-1.4-4.2-2.5-7.4-4.2-12.4c-4.1,3.4-7.4,5.5-9.8,8.3
		c-17.2,19.9-33.9,40.2-51.6,59.7c-12.5,13.8-26.4,26.3-39.5,39.5c-3.4,3.4-6.3,7.4-9.5,11c6.4,5.7,10,6.5,15.7,2.9
		c3-1.9,5.5-4.8,8-7.4c5.5-5.8,10.7-11.9,16.4-17.4c5.8-5.6,11.3-6,16.5-0.1c5.3,5.9,10.5,6.2,16.8,2.8c4.1-2.2,8.1-4.5,12.1-7
		c7.5-4.8,11.8-11.3,11.3-20.8c-0.3-6,1.1-11.8,6.5-17.4c3.6,5.3,6.9,10,10.6,15.4c4.2,1,8.1-1.6,11.9-4.3
		c9.4-6.9,18.8-13.8,28-20.9c24.5-19,49-37.9,73.2-57.1c22.2-17.6,44-35.6,66-53.3c6-4.8,12.1-9.4,18-14.2
		c8.6-6.9,14-15.7,17.4-26.2c2-6,4-12.4,10.7-17.7c-0.8,4.7-1.2,7.8-2,12.6c4.3-0.4,8,0,10.9-1.3c3.9-1.7,7.7-4.2,10.6-7.2
		c15.5-16,30.8-32.3,46.2-48.5c4.4-4.7,6.2-10.3,5.6-16.5c-0.7-6.6-5.9-9.1-11.4-5.4c-2.2,1.5-4.2,3.4-5.9,5.3
		c-14.3,16.2-28.6,32.5-42.9,48.7c-2.2,2.4-4.4,4.8-8,6.4c1.8-4.4,3.5-8.7,5.3-13.1c1.9-4.6,3.7-9.2,6-13.6
		c13.3-25.3,34-45,51.1-67.5c5.8-7.6,11-16.2,13.9-25.1c10-30.4,24.2-58.4,43.6-83.8c12.1-15.9,24.2-31.7,36.4-47.5
		c0.9-1.2,2.3-2,3.4-3c0.6,0.3,1.2,0.7,1.8,1c-1.2,3.2-2.2,6.6-3.6,9.7c-14.8,31.4-34.2,60.1-52.1,89.8c-1.4,2.3-2.6,4.7-3.7,7.1
		c-0.4,0.8-0.1,1.9-0.1,4.4c3.1-1.5,6-2.2,8-3.9c14.2-12,28.5-24,42.4-36.3c9.2-8.2,18-16.9,26.9-25.4c6.7-6.4,14-12.3,17.5-21.5
		c1-2.5,4.9-3.9,7.6-5.6c5.3-3.3,11.4-5.8,15.9-9.9c7.8-7.2,7.5-25.2,0.3-33.1c-2.9-3.2-5.9-3.3-8.4-0.1c-2.4,3.1-4.3,6.6-6.1,10.2
		c-2.2,4.6-4,9.4-6.4,15.1c-4.2-4.2-3.2-8-2.7-11.4c1.2-7.6,2.9-15.1,4-22.6c0.7-4.6,1.5-9.4,0.8-13.9c-1.1-6.8,1.4-12.4,4.2-18.1
		c3.8-7.7,7.6-15.4,10.8-23.4c5.7-14.2,9.4-29.4,16.6-42.8c7.7-14.2,9.2-28.6,9.2-44.1c0-25.6,6.2-50,16-73.6c0.7-1.7,2.1-3,3.7-5.3
		c2.9,4.6,1.8,8.4,0.9,12.1c-3.5,14.9-7.2,29.8-10.7,44.7c-0.9,3.7-1.1,7.6-1.7,12.2c12.6-0.7,16.5-11.5,25.6-16.5
		c-0.4,2.3-0.4,4.8-1.3,6.9c-6.8,17-14.1,33.8-20.5,51c-2.4,6.4-2.8,13.5-4.3,20.3c-0.6,2.8-1,6.4-2.9,8c-5.4,4.6-7.7,10.8-10,17
		c-2.9,7.8-5.6,15.7-8.3,23.6c-1.4,4.2-1,7.8,3.4,10.2c4.3,2.3,8.6,2.7,11.9-1.1c2.7-3.2,5.3-7.1,6.2-11.1
		c2.7-12.2,9.5-23.6,6.8-36.9c-0.4-1.8,2.5-4.2,4-6.3c3.2-4.2,6.5-8.3,9.7-12.5c5.7-7.3,10.9-15.1,17.2-22
		c5.2-5.8,7.7-11.3,6.7-19.6c-1.4-11.1-1.7-22.8,0.1-33.8c1.7-10,6.6-19.4,10.5-29c4.1-10.2,8.3-20.3,13.1-30.1
		c4.4-9,9.7-17.4,14.3-26.3c9.2-17.6,18.2-35.4,27.6-53c1.4-2.6,4.3-5,7-6.2c6.2-2.9,11.5-6.4,15.5-12.1c3.3-4.5,5-9.1,5.2-14.7
		c0.2-5.6,1.1-11.3,2.2-16.8c0.7-3.8,2.9-7.1,7.2-7.1c11.4-0.1,15.1-8,17.6-17c3.4-12.5,6.4-25.2,9.4-37.8
		c3.1-12.9,6.2-25.8,9.2-38.7c1.8-7.6,1.6-15.1-2.6-21.6c0.5-1.2,0.5-2.1,1-2.4c14.3-9.8,14.4-25.4,15.9-40.2
		c1.6-15.5,3-31.1,3.9-46.7c0.5-7.6-0.4-15.3-0.5-22.9c0-4.9,0-9.9,0.7-14.8c1-7.9,2.6-15.8,3.6-23.7c0.3-2.6,0.1-5.5-0.8-7.9
		c-4.2-10.7-3.2-21.5-1.5-32.5c1.3-8.5,2.8-17.2-2-26.2c11.5-2.2,14.9-12.5,21.2-19.8c3.5-4,6.5-8.4,10.2-12.2
		c5.5-5.6,11.6-9.8,20.4-7c4.7,1.5,8.1-1,10.5-5.4c3.3-6.1,6.8-12.2,10.8-18c2-2.8,4.9-5.2,7.9-7.1c4.9-3.3,10.2-6.1,15.3-9.1
		c0.6-0.3,1-0.9,1.6-1.2c16.5-7.2,27-21.2,38.7-33.8c6.6-7.1,10-15.8,11.8-24.9c1.3-6.7,4.3-11.6,10-15.4c13.5-9.1,26.6-19,43-22.6
		c9-2,10.5-0.8,11.7,8.1c0.7,5.5,2.3,11,2.7,16.5c0.3,3.8-0.9,7.7-1.4,11.6c5.7,3.2,7.8,2.8,10.3-2.9c2.3-5.5,4-11.3,5.9-16.9
		c7.2-21,18.6-39.7,32.3-57c4.3-5.5,8.6-11,13.2-16.3c5.5-6.4,9.2-5.4,13.4,2c10.4,18.3,9.4,38.2,8.5,58.1
		c-0.3,6.3-2.1,12.5,0.7,18.7c0.6,1.3,0.3,3.3-0.1,4.8c-4.3,16-9.3,31.9-13.1,48c-3.1,13.3-4.7,26.9-7,40.3
		c-1.1,6.6-2.3,13.1-3.8,19.6c-1.5,6.4-4.1,7.6-10.1,4.8c-2.7-1.3-5-3.2-7.4-5c-3.7-2.8-7.2-5.9-11-8.6c-11-8-18.2-7-26.4,3.6
		c-5.1,6.6-9.7,13.6-15.1,19.9c-5.2,6.1-11,11.5-16.6,17.2c-2.6,2.6-5.4,4.9-7.8,7.7c-2.6,3-3.5,6.4-1.1,10.1
		c2.4,3.6,5.8,4.2,9.7,3.4c2.3-0.5,4.4-1.5,6.7-2c2.2-0.5,4.4-0.6,7.6-1c-0.4,3-0.2,5.3-1,7.2c-7.7,19.9-16.5,39.2-29.2,56.6
		c-4.4,6-7.8,13.3-9.6,20.6c-6.1,25.3-8.5,51.2-10.8,77.1c-0.5,5.6-1,11.3-1.6,16.9c-0.8,7.6,2.5,13.6,9.3,15.9
		c6.6,2.3,8.6,6.6,9.3,12.6c0.1,1.3,0.5,2.6,0.7,3.9c0.5,4.7,0.9,9.5,6.9,10.7c6.3,1.3,13.1-1.5,16.1-7.2
		c10.5-19.6,20.9-39.4,31.4-59c4.7-8.8,10.5-17.1,14.3-26.2c3.5-8.4,5.6-17.6,7.1-26.7c1.2-6.9-2-9.6-9.1-9.8
		c-2.3-0.1-4.6-0.1-6.9-0.1c-0.3,0-0.6-0.3-1.1-0.6c0-6.7-0.2-13.6,0.1-20.4c0.4-10.3,0.2-20.7,2-30.8c3.2-17.6,6.7-35.6,22.8-47.1
		c2.7-1.9,5.7-3.3,8.6-5c3.1-1.8,6.2-3.5,9.8-5.4c-1.4-3.7-2.6-6.6-3.8-9.6c3.9-1.8,5,1,6.6,2.9c3.1,3.9,5.8,8.2,9.4,11.5
		c8.7,7.7,18.7,6.4,29-3.7c3.3-3.2,6.2-7,8.5-11c5.9-10,11.2-20.4,17-30.5c1.4-2.4,3.6-4.3,6.4-7.4c1,2.6,1.9,3.7,1.8,4.8
		c-0.2,5.3,2.8,7.1,7.4,7.3c7.9,0.3,15.1-1.3,21.7-5.9c4.3-3,8.9-6.2,13.8-7.9c10.8-3.9,17.6-13,26.6-19.1
		c12.7-8.6,25.3-17.2,37.9-25.9c1.6-1.1,3.1-2.4,5.3-4c-2-3.2-3.8-6.2-5.5-9.1c0.5-1.2,0.6-2.2,1.2-2.9c6.3-7.9,5.9-10.1-3.5-12.6
		c-15.7-4.2-31-3-45.7,4.3c-8,4-16.2,7.7-23.8,11.4c-4.4-1.8-4.2-5-3.4-7.9c3.3-11.7,4-23.6,3.8-35.7c-0.1-5.3,2.1-8.4,7.2-10.6
		c3.4-1.4,6.6-4.4,8.8-7.5c13.4-19.1,27.9-37.4,45.5-52.7c12.7-11.1,27-20.5,41.2-29.6c16.8-10.8,34.7-19.9,54.3-24.9
		c4.2-1.1,8.4-2.3,12.6-3c5.9-1.1,11.7-1.6,17.3,2.1c3.2,2,7.3,2.4,11.5,3.7c-1,7.9-5.2,13.5-9.1,19.1c-3.2,4.6-6.9,9-10.8,13.1
		c-7.1,7.5-10.5,16.9-14.3,26.1c-1.3,3.1-0.1,5.3,2.5,6.7c2,1.1,4.3,1.9,6.5,2.6c4.5,1.5,6,4.2,5.5,9.1c-0.8,8.7,1,10,9.9,10.9
		c10.8,1.1,20.3-3.5,29.9-6.6c21.5-6.8,43.4-9.8,65.8-8.6c3.8,0.2,7.4,1.9,13.3,3.6c-7,6.4-12.3,11.6-18,16.3
		c-21.5,17.5-45.5,31.2-70.9,42.3c-8.5,3.7-15.8,8.5-21.2,16c-11.8,16.3-26,30.3-42.1,42.2c-6.4,4.7-13.7,8.1-20.4,12.5
		c-4.3,2.8-8.2,6.3-12.3,9.5c4.4,3.7,7.4,7.4,11.4,9.3c4,1.9,8.8,2.4,13.3,2.4c3.2,0,6.4-1.7,9.4-3.1c22.5-10.8,46.7-15.6,71.2-18.6
		c7.1-0.9,14.7,0.3,21.7,1.8c7.8,1.7,9.1,6.5,5,13.5c-0.8,1.4-1.7,2.9-2.9,4.1c-11.3,11.7-22.2,24-34.3,34.8
		c-14.9,13.3-30.8,25.4-46.3,38c-16.8,13.7-36.6,21.5-56.7,28.6c-8.5,3-13.8,7.2-16.5,16.5c-4.1,13.9-9.8,27.5-15.6,40.8
		c-2.7,6.3-7.5,11.7-11,17.8c-6,10.2-0.4,20.6,11.4,21.1c5.3,0.2,10.7-0.1,16,0.6c7.4,1,9.3,5.4,6.3,12.3c-4.3,10-7.4,20.8-13,30
		c-10.9,18.2-20.3,37.6-38.1,50.8c-13.9,10.3-26.6,22.2-40.8,32c-29.4,20.3-61.4,34.6-97.1,39.9c-9.8,1.4-19.8,2.2-29.7,3
		c-7.7,0.6-14.3,3.3-19.4,9c-17.1,19.2-37.5,34.1-60.6,44.9c-10.7,5-21.4,10.5-33.4,12.3c-7.6,1.1-15.8,10.6-16.2,18.4
		c-0.2,2.6,1.7,5.4,3.1,9.2c-2.5,1.6-5.4,3.7-8.4,5.4c-4.3,2.5-9.1,4.4-12.9,7.4c-15.8,12.7-31.9,25.2-46.8,39
		c-8.8,8.1-16.7,17.1-26.4,24.2c-1.3,1-2.4,2.4-3.2,3.8c-4.7,8.3-9.2,16.7-16,23.8c-2,2.1-1.5,6.7-1.5,10.2c0,2.5,1.1,5,1.6,7
		c-0.7,1-0.8,1.4-1.1,1.5c-13,3-20.8,12.1-27.3,23c-3.5,5.8-8.1,11-12.3,16.5c0.4,0.6,0.9,1.1,1.3,1.7c2-0.5,4.3-0.6,6-1.6
		c10-6,19.8-12.1,29.6-18.2c1.7-1,3.1-2.5,4.8-3.4c12.5-7,12.5-7.1,9.9-19.9c16.8-12.1,16.8-12.1,18.8-18.1c-2.6-1.7-5.3-3.4-7.9-5
		c-1.1-4.6,2.3-5.9,4.9-7.8c8.6-6.2,17.1-12.5,25.9-18.5c3-2,6.4-3.7,9.8-4.6c16-4.4,31.9-8.8,48.8-8.5c5.8,0.1,11.8-1.9,17.6-3.4
		c8-2.1,16-4.6,23.9-7c9.6-2.9,15.2-10.4,20.8-17.9c3.5-4.8,6.9-9.8,10.6-14.5c1.1-1.4,2.9-2.3,5.7-4.3c0,3.6,0.3,5.7-0.1,7.7
		c-0.7,3.2-2.1,6.3-2.9,9.6c-1.7,6.9-0.6,8.9,6.2,11c1.9,0.6,3.9,0.8,5.8,1.4c8.1,2.3,9.7,7.2,3.4,12.7
		c-6.8,5.9-14.3,10.9-21.5,16.2c-9.5,6.9-19.7,13.6-23.3,25.2c-4.4,14.2-15.7,24.3-20.6,38.1c-1,2.8-2.7,5.4-4.3,7.9
		c-1,1.6-2.6,2.9-3.7,4.1c-1.2-0.2-2-0.2-2.4-0.5c-8.8-7.2-12.4-7.4-20.4,0.5c-6.1,6-11.3,13-16.8,19.7c-6.1,7.5-11.8,15.3-18,22.6
		c-3.9,4.6-6.3,9.1-4.8,15.4c0.7,3.1-0.2,6.6-0.4,9.9c-0.4,5.9,0.6,7.6,6.2,7.9c19.3,1,35.5-5.4,46.9-21.4
		c6.1-8.5,10.2-12.5,20.2-16.4c11.4-4.5,21.6-20.3,20.8-32.2c-0.6-9.1,2.4-12.8,10.8-16.7c6.6-3,12.4-7.6,18.6-11.3
		c4-2.3,7.9-5,12.2-6.3c8.4-2.5,12.7,0.5,14.4,8.9c2.2,11.2,4,12.7,15,10.8c4.1-0.7,8.6-2.1,11.9-4.5c8.1-5.7,15.7-12.3,23.5-18.4
		c1.8-1.4,3.7-3.2,5.8-3.8c16.3-4,29.5-13.7,42.9-22.9c10.4-7.1,21-14.1,31.1-21.7c4.4-3.3,8.3-7.7,11.5-12.3
		c6.6-9.6,13.4-18.9,22.5-26.5c8.1-6.8,16-14,21.5-23.5c1.6-2.8,5.3-5.4,8.5-6c10-1.8,18.7-6,27.3-11.3c9.8-6.1,20.7-10.5,31.1-15.7
		c2.1-1,4.3-2.1,5.9-3.7c4.5-4.6,9-6.2,15.9-5.1c7.7,1.3,15.2-2.7,21-7.8c10.2-8.9,20.3-18.1,29.8-27.9c4.6-4.7,7.9-10.7,11.3-16.4
		c1.4-2.3,1.4-5.4,2-8.5c-6.9-2.7-11.3,0.5-15.6,3.6c-14,10.2-27.9,20.4-41.9,30.6c-2,1.5-4.5,2.4-8,4.1c-0.3-3.2-0.9-5.4-0.7-7.4
		c3-22,12.7-40.4,29.8-54.8c4.6-3.8,8.5-8.4,13.2-12.1c10.4-8.2,21-16.2,31.7-24.1c12.1-8.9,25-16.6,35.1-27.9
		c6.3-7,10.3-15.1,9.6-24.4c-1.5-19.9,4.2-38.2,10.9-56.3c9.9-27.1,28.1-48.4,47.1-69.6c12.4-13.8,27.3-24.1,40.9-36.2
		c3-2.7,7.1-4.3,10.8-6.5c3.6,5,0,6.9-1.9,9.2c-8.9,10.3-18.8,20-26.7,31c-12.8,17.8-24.7,36.3-36.3,54.9
		c-7.7,12.4-14.3,25.5-21,38.5c-1.8,3.4-2.3,7.4-3.3,10.8c5.5,5.2,10.3,4.5,15.4,1.4c17.3-10.6,34.5-21.2,51.8-31.8
		c4-2.4,7.7-5.7,12-7.1c16.9-5.5,25.7-19.2,34.7-32.8c11.1-16.8,24.1-31.7,39.1-45.1c17.2-15.3,35.7-28.9,55.2-41
		c13.5-8.4,28.2-14.9,42.5-22.1c5-2.5,10.2-4.9,15.6-6.7c2.5-0.8,6.2-1,8.2,0.4c3.2,2.2,0.5,5.2-0.8,7.9c-11.1,22.5-28.4,40-46,57.2
		c-8.8,8.6-18.1,16.6-26.8,25.3c-2.9,3-5.2,6.9-6.8,10.9c-2.1,5.1-3.2,10.6-5,17.2c3,1,6.3,2.4,9.6,3.2c9,2.2,12.3,7.2,7.9,15.2
		c-6,11.1-12.5,22.1-20.4,31.9c-9,11-19.7,20.6-29.7,30.9c-0.7,0.7-1.7,1.4-2,2.2c-0.6,2.1-1.8,4.9-0.9,6.2c0.8,1.3,4.3,2,6,1.4
		c7.7-3,15.2-6.6,22.7-10.1c5.7-2.7,11.3-5.4,16.8-8.4c6.1-3.4,12-7.1,18-10.6c2-1.2,3.8-3.1,5.9-3.6c19.9-5.4,38.4-15,59.2-17.6
		c18.8-2.3,37.4-6.1,56.2-8.5c14.2-1.8,28.6-2.2,42.7,1.3c10.2,2.5,11.8,6.3,5.5,14.5c-8.1,10.5-15.6,21.8-25.1,30.9
		c-11.5,10.9-24.5,20.5-37.6,29.5c-9.6,6.5-20.8,10.6-30.6,16.7c-6,3.8-12,8.7-16,14.5c-13.5,19.6-30.6,34.9-51.3,46.5
		c-16.3,9.1-32.8,17.8-49,26.9c-14.4,8-30.3,11.7-45.6,17.3c-5.5,2-11.3,4.5-15.7,8.3c-17,14.7-36.1,26.1-54.9,38.2
		c-7.8,5-16.3,8.9-24.6,13.2c-12.7,6.6-25.5,13-38.1,19.9c-8,4.3-7.2,4.5-5.5,13c0.9,4.6,0.4,10.2-1.5,14.4
		c-10.3,23.5-25.6,42.8-48.6,55c-20.1,10.7-40.6,20.5-63.8,21.7c-15.6,0.8-31.3,1.1-46.9,0.5c-15.3-0.6-30.3-3.5-44.6-9.9
		c-3.7-1.7-8.5-1.2-12.8-1.4c-14.4-0.4-28.4-2.5-41.9-8.2c-8.7-3.7-17.9-3-26.1,1.7c-15.8,9.2-31.3,18.9-46.7,28.8
		c-2.8,1.8-4.7,5.4-6.6,8.4c-4.1,6.4-7.8,13-11.8,19.5c-1,1.7-2.6,3.1-3.3,4.9c-1.4,3.4-0.3,5.9,3.5,6.7c1,0.2,2.2,0.6,2.9,0.2
		c8.9-4.3,17.1-0.3,25.9,1.2c9.4,1.6,19.3,0.6,28.9,1c3.8,0.2,8.9-0.9,10.3,4c1.5,5.2-3.3,7.5-6.7,10c-6.1,4.6-12.7,8.6-18.7,13.2
		c-2.9,2.2-6.1,4.9-7.3,8c-5.1,13.4-14.5,24.5-18.3,38.7c-3.7,13.9-13.9,24-24.9,33c-8.2,6.8-16.8,13.2-24.8,20.2
		c-3.7,3.2-7.4,6.9-9.6,11.2c-2.9,5.5-0.4,8.9,5.7,9.5c7.7,0.8,14.4-1.6,20.3-6.7c10.8-9.3,21.9-18.5,32.6-27.9
		c14.2-12.6,31.3-20.1,48.5-27.4c8.8-3.7,18.2-6.2,27.3-9.4c22.7-8,46.2-9.2,70-8.6c5.3,0.1,10.7,0.1,16,0.5
		c9.1,0.7,11.8,5,8.2,13.2c-4.9,11.4-11.4,21.8-20.2,30.7c-1.6,1.7-3.3,3.3-4.8,5.1c-5.6,6.4-5,12.1,3.3,14.3
		c0.9,0.3,1.8,0.8,2.7,1.3c6,3.4,7,5.6,2.8,11c-6.7,8.7-14.1,16.8-21.3,25.1c-2.6,3-5.8,5.5-8.4,8.6c-3.9,4.8-3.4,7.8,2.3,9.9
		c8.4,3.2,17.1,5.5,25.6,8.4c10.6,3.7,21.8,6.2,32.2,13.9c-2.1,2.4-3.5,5-5.6,6.6c-16.4,11.4-32.9,22.6-49.4,33.8
		c-9.1,6.2-18,12.6-27.2,18.6c-20,12.9-42.3,20.9-64.5,29.1c-5.9,2.2-12,4-17.9,6.3c-5.7,2.2-6.6,4.2-3.5,9.7
		c1.9,3.4,1.7,6.2,0.6,9.5c-6.5,19.5-18.4,35.5-33,49.3c-10.6,10-22.3,19.1-34.1,27.6c-8.3,6-17.4,11.2-26.8,15.3
		c-15.7,6.7-28.8,16.8-40.8,28.3c-16.9,16.1-36.9,27.4-57.9,36.9c-26.2,11.9-53.5,20.7-81.7,25.8c-14,2.5-28.5,2.3-42.8,3.1
		c-4.3,0.2-8.7-0.1-13-0.4c-10.6-0.8-19.8,1.9-29.3,7.4c-25.4,14.9-53.1,23.5-82.8,22.1c-16.5-0.8-30.8,3.5-44.1,12.6
		c-1.1,0.8-2.6,1.2-3.3,2.3c-8.9,13.2-22.6,22.6-29,37.6c-0.2,0.6-0.1,1.3-0.2,3.1c8.8,6.9,20.4,0.5,31.5,4.9c-2.5,2.1-4.1,4-6.2,5
		c-13.1,7-27.2,11.2-41.9,12.6c-10.6,1-18.9,5.9-26.8,12.2c-4.6,3.7-6.3,7.9-4.9,14c2.3,10.2,1.9,10.1-7.1,16
		c-4.3,2.8-10.1,3.8-12.5,11.2c3.2,0,5.6,0.3,7.9,0c9.9-1.4,19.3,0.2,28,5.1c5.9,3.3,6.2,6.5,0.8,10.4c-7.1,5-14.5,9.4-21.8,14.2
		c-14.5,9.5-28.8,19.2-43.4,28.5c-8.4,5.4-17.3,10-25.7,15.2c-5.9,3.6-11.8,7.4-17.2,11.8c-3.9,3.2-7.5,4.4-12.6,4.5
		c-6.2,0-12.4,1.7-18.5,3.2c-3.3,0.8-6.3,3-5.9,7c0.4,3.9,3.3,5.6,6.8,6.2c2.2,0.4,4.4,0.7,8.3,1.3c-1.9,4-2.9,7.3-4.8,10
		c-13.7,19.7-27.7,39.2-41.2,59c-4.5,6.6-7.8,13.9-11.7,20.8c-6,0-12,0-18,0c3.1-3.4,5.4-7.4,2.1-11.4c-3.4-4-7.2-0.5-10.7,0.9
		c-8.5,3.4-16.9,7-25.4,10.5c-178,0-356,0-534,0c26.8-15.1,35.1-21.7,37.6-29.9c-7.5,0.4-32.2,12.8-59.6,29.9
		C322,3266,292,3266,262,3266z M984.5,2832.3c0.4,0.9,0.8,1.8,1.2,2.7c2.8,0,5.7,0.3,8.4-0.1c5.2-0.8,8.6,0.7,9.1,6.3
		c0.4,4.7,3.8,6.2,7.5,6.5c12.3,1.1,24.7,1.3,36.2-4.3c8.6-4.3,17.3-8.6,25.6-13.5c18.1-10.5,36.1-21.3,54-32.1
		c18.8-11.3,37.8-22.3,56.2-34.3c23.2-15,46.3-29.9,71.3-41.9c5.4-2.6,10.9-5.1,16.1-8c3-1.7,6.6-3.5,5.8-9
		c-10.8-1.6-21.5-5-32.2-0.9c-11.1,4.3-21.9,9.6-32.9,14.4c-12.2,5.3-24.6,10.7-38.2,10.3c-12-0.3-23.7-2.2-35.3-5.7
		c-8.7-2.7-18.6-4.9-27.3-3.5c-12.7,2-24.7,7.6-34.1,17.4c-25.9,26.8-52,53.4-77.9,80.2C993.2,2821.7,989,2827.1,984.5,2832.3z
		 M650.1,3126c3.1-1.5,6.3-2.4,8.6-4.3c7.6-6.4,14.7-13.5,22.4-19.7c20.4-16.6,41.8-32,65.3-43.9c11.7-6,24.9-9.1,37.6-13
		c4.7-1.4,7.1,0.9,6.9,5.8c-0.3,6.6-0.8,13.3-2,19.8c-3,15.5-11.8,28-21,40.4c-1.6,2.1-1.7,5.2-2.5,7.9c2.4,0.7,4.9,2.2,7.3,2.1
		c14.4-0.5,28.4-2.6,41.9-8.2c7.3-3,15.2-5.9,23-6.4c11.5-0.8,22.6-0.9,31.6-9.5c0.7-0.6,1.8-0.9,2.8-1.1
		c16.2-4.9,29-16.2,43.4-24.3c4.3-2.4,7.9-5.7,13.3-6c1.3-0.1,2.6-2,3.9-3.1c-4.2-2.3-7.6-4.3-11.1-6c-3.5-1.8-7.1-3.8-10.8-5
		c-9.4-3.2-13.2-2.2-19.1,5.5c-4.7,6.1-8.7,12.6-13.2,18.8c-1.4,1.9-3.4,3.2-6.5,6.1c-0.4-4.5-1.1-6.8-0.7-8.8
		c1.6-8.5,3.2-17,5.4-25.3c2.4-9.4,2.5-10.6-5.4-15.8c-12.8-8.4-26.1-16-38.7-24.8c-7.9-5.6-16.1-8-25.4-6.6c-9.4,1.4-19,1-27.5,7.3
		c-38.8,28.2-77.9,56-117,83.8C651,3099.5,646.7,3110.3,650.1,3126z M1406.6,2172.6c7.8-0.7,15.5-1.1,23-2.2
		c12.5-1.9,23.1-13.8,24.7-26.1c2.1-16.7,7.3-32.3,18-45.8c11-13.7,23.4-26.3,32.3-41.6c4.1-7.1,2.8-10.9-5.2-12.7
		c-12.7-3-23.5-0.6-32.5,9.5c-5.6,6.1-12,11.5-18.3,16.9c-12.4,10.4-25.9,18.4-42.2,21.3c-5.8,1-11.4,3.4-16.9,5.7
		c-6.5,2.7-13,5.4-18.9,8.9c-4.7,2.8-10.6,6.2-12.4,10.7c-6.2,15.7-12.1,31.8-15.4,48.2c-2.1,10.3-3.9,20.8-6.5,31
		c-0.4,1.6-0.9,3.2-1.2,4.8c-1.2,6.8,2.4,10.2,9.1,8.3c2.2-0.6,4.4-1.7,6.2-3.2c9.5-7.7,18.9-15.6,28.4-23.4
		C1386.7,2176.3,1394.2,2167.7,1406.6,2172.6z M1800.9,1890.2c-6-2-9.5-3.5-13.1-4.2c-9.2-1.5-18.6-2-27.6-4.1
		c-8.9-2.1-16.2,0-23.5,4.9c-15.8,10.5-31.6,20.9-47.7,30.9c-16,10-32.4,19.5-48.7,29c-5.6,3.3-10.3,7.3-13.3,13.1
		c-10.1,19.5-20.3,38.9-30,58.6c-1.8,3.7-2.3,8.3-2.2,12.5c0.2,4.9-1.2,8.2-4.9,11.3c-9.8,8.1-15.1,19.3-20.5,30.3
		c-2.4,4.9-0.2,8.5,5.2,9.5c6.6,1.2,13-0.1,17.9-4.4c11.2-10,20.2-22.1,26.8-35.5c2.8-5.7,5.1-11.6,9.3-16.2
		c11.7-12.6,22.4-26,36.1-36.9c10.5-8.3,20.9-16.2,32.5-22.8c4.3-2.4,7.5-6.5,11.5-9.5c2.8-2.2,5.8-4.3,9-6.1c4-2.2,8.5-3.7,12.5-6
		c13.8-8,27.5-16.1,41.2-24.2c5.9-3.5,11.8-6.9,17.8-10.5c-1.6-3.3-2.7-5.6-3.8-8C1790.1,1898.3,1794.5,1895,1800.9,1890.2z
		 M2029.5,2160.5c0.9-1,1.3-1.7,1.8-1.9c13.5-5.5,27.2-10.6,39.3-18.8c1.1-0.7,2.5-1,3.7-1.4c19.2-7.2,38.5-14.2,57.1-23
		c8.1-3.8,16.5-6.8,24.7-10.4c2-0.9,3.8-2.5,5.5-4c3.7-3.1,7.4-6.3,11-9.6c1.6-1.5,4.2-3.9,3.9-4.9c-0.7-2.1-3-4-5.1-5.2
		c-1.9-1-4.5-0.8-6.8-1.3c-9-2.1-18.6-3-27-6.6c-16.8-7.3-31.5-4.7-45.9,5.7c-9.1,6.6-19.2,11.9-28.3,18.4
		c-18.9,13.5-40.3,21.7-61.8,29.7c-7.5,2.8-15.9,6.1-17.9,14.6c-2.3,9.6-7.3,14.4-16.7,15.6c-0.9,0.1-1.9,0.7-2.7,1.3
		c-10.9,7.6-21.9,15.1-32.6,22.9c-2.2,1.6-3.5,4.5-4.9,6.4c0.9,1.6,1.1,2.4,1.6,2.7c11.5,6.8,24.1,10.8,37,12.2
		c11.6,1.3,23.2-1.8,33.2-8.6c7.9-5.4,15.7-11,23.8-16.2C2029.1,2173.6,2033.9,2168.6,2029.5,2160.5z M1274.7,2543.7
		c7.7,6.4,14.1,6.8,22.6,2.3c4.1-2.2,8-5.2,12.4-6.2c11.7-2.7,22.8-6.7,33.7-12c15.6-7.6,28.7-17.7,39.9-30.9c1.9-2.3,4.3-4.2,6.7-6
		c14-10.4,20-25.3,23.2-41.6c1.1-5.6-2.5-8-7.9-5.6c-2.1,0.9-3.9,2.5-5.8,3.8c-4.9,3.4-9.8,6.8-14.8,10.1c-0.7,0.4-1.9,0.1-2.9,0.1
		c-0.8-2.5-1.5-4.9-2.6-8.3c-4.6,1.2-8.7,2.2-12.8,3.2c-6.1,1.6-12.1,3.9-18.3,4.8c-9.5,1.4-19.2,2.3-28.8,2.6
		c-11.5,0.4-21.6,3.1-29.3,12.4c-2.7,3.3-6.2,6.1-9.6,8.7c-14.1,10.9-24.9,24.9-35.5,39c-1.6,2.1-2.9,6.4-1.8,7.9
		c1.6,2.2,5.7,4.1,8.2,3.6c4.6-0.9,9.7-2.8,13.2-5.9c9-7.9,17.2-16.7,25.8-25c3.7-3.5,7.3-7.5,15.1-7.2c-4.6,8.8-8.7,16.4-12.7,24.1
		c9.5,6,16.7-3.9,26-2.5c-3.3,5.9-5.6,10.1-11.8,9.4C1291.4,2523.2,1283,2533.1,1274.7,2543.7z M1162.2,2910.3
		c6.7,9.2,6.9,9.6,11.9,8.5c12.2-2.7,22-9.3,28.5-20.1c7.2-11.9,13.6-24.3,21.1-36.1c3.9-6.1,6.6-12.2,7.6-19.2
		c1.5-10.1,1-20.5,5-30.3c1.9-4.8-1.4-7.6-6.6-6.4c-3.5,0.8-7.4,1.9-10.1,4.1c-9.8,7.8-21.2,12.3-32.4,17.4
		c-11.2,5.1-22.4,10.2-33.8,14.8c-8,3.3-16.3,5.7-24.4,8.8c-5.9,2.3-11.9,4.6-14.8,11c-6.9,15.5-13.8,31-20.6,46.5
		c-1.5,3.6-2.9,7.5,1.3,12.2c2.7-2.5,5.5-4.6,7.7-7.1c7.8-9.1,15.2-18.5,23.1-27.5c8.5-9.6,19-16.6,30.3-22.4c2-1,4.7-2.1,6.5-1.5
		c7.8,2.4,12.5-1.2,16.8-7.1c3.1-4.2,6.7-8.7,13.7-10c-0.7,2.5-0.7,4.3-1.5,5.5c-7.4,11.4-14.9,22.8-22.6,33.9
		c-1.6,2.3-4.4,4.9-7,5.3c-10.7,1.5-15.4,9.6-20.5,17.3c-2,3-4.4,6.2-2.1,10.1c1.5,2.5,8.1,2.7,12.1,0.4c1.7-1,3.1-2.5,4.7-3.7
		C1158,2913.4,1159.8,2912.1,1162.2,2910.3z M1380.6,2817.9c-3.5,0.9-6.3,1.6-9.1,2.2c-2.6,0.5-5.5,0.4-7.8,1.4
		c-17.4,7.7-31.9,19.1-42.9,34.7c-1.1,1.5-1.4,4.9-0.5,6.1c1,1.2,4.1,1.2,6.2,1c1.9-0.1,3.8-1,5.7-1.8c15.5-6.8,31.2-13.3,46.5-20.5
		c4.3-2,8.2-5.7,11.4-9.4c2.9-3.3,5.8-4.8,10-5.5c6.8-1.1,13.9-2.3,20.1-5c16.7-7.4,33.1-15.5,49.5-23.6c4.1-2,7.9-5,11.5-7.9
		c4.7-3.9,4.6-6.1,0.4-10.7c-1.8-2-3.7-3.9-5.8-5.5c-5.8-4.4-9.4-10.1-11.8-16.9c-3.7-10.4-7.1-11.7-16.9-6.7
		c-2.6,1.4-5,3.2-7.4,5.1c-17,13.4-33.9,26.8-50.8,40.2C1381.7,2800.7,1375.9,2806.9,1380.6,2817.9z M1471,1883.3
		c-1.8,0.2-3.1,0.2-4.3,0.5c-6.5,1.6-9.3,7-12.6,12c-7,10.5-13,21.9-21.5,31c-11.8,12.5-24.8,24.1-40.6,31.9
		c-4.8,2.3-7.6,6.1-8.3,11.6c-1,7.9-2.8,15.7-3.4,23.7c-0.3,4.1,0.4,8.7,1.9,12.6c2.4,6,3.7,11.2-1.6,16.4c-1.7,1.7-2.4,4.7-2.9,7.3
		c-1.2,5.4,0.4,7.5,5.8,7.8c2.3,0.1,5.2,0.3,6.7-1c4.8-4,9.7-8.1,13.4-13.1c3.3-4.5,7.8-9.4,4.5-16.4c-0.7-1.5,0.7-4.6,2-6.2
		c8-9.8,16.2-19.4,24.5-28.9c8.2-9.4,14.9-19.7,19-31.3c4.2-11.9,9-23.4,15.8-34.1c1.8-2.9,2.8-6.7,3-10.1
		C1472.7,1892.8,1471.7,1888.6,1471,1883.3z M992.6,2752c1.7,3.5,2.4,7.8,4.6,8.8c2.3,1.1,6.3-0.4,9.1-1.7c2.9-1.4,5.5-3.8,7.7-6.2
		c5.7-6,11.2-12.2,16.7-18.5c21.9-25,43.7-50,65.5-75c5.7-6.5,11.8-12.7,16.8-19.7c3.6-5,6.5-10.9,8.3-16.8c1.6-5.1-2.8-8.3-7.8-6.2
		c-2.4,1-4.5,2.8-6.4,4.6c-5.3,5-10.7,10.1-15.6,15.5c-21.9,24.1-43.7,48.3-65.6,72.4c-9.1,10.1-18.4,20.1-27.1,30.6
		C996.2,2743.2,994.8,2747.7,992.6,2752z M1332.1,2322.3c2.6-4.3,5.3-8.4,7.7-12.7c3-5.1,6.4-10.2,8.5-15.7
		c2.5-6.6,0.2-10.2-6.5-9.8c-9.2,0.6-18.5,1.9-27.3,4.4c-7.2,2-12.3,7.5-15.1,14.8c-3.9,10.2-7.9,20.3-12,30.5
		c-3.1,7.7-6.6,15.2-9.5,22.9c-2.9,7.8,1.1,13,9.1,10.9c5.1-1.4,10.1-4.8,14.1-8.5c4.3-4,8.5-6.9,14.5-7.8c4.8-0.8,9.8-2.3,14-4.7
		C1340,2340.7,1341,2332.4,1332.1,2322.3z M1400.4,2723.5c1.2-0.5,3.5-1,5.3-2.3c4-2.9,8-5.9,11.6-9.4c9.7-9.5,19.2-19.3,28.8-28.9
		c10.9-10.8,21.6-21.6,34.8-29.6c4.2-2.6,8.1-5.8,11.6-9.4c1.5-1.6,2.7-5.1,1.9-6.9c-1.6-3.7-5.5-2.3-7.7-0.7
		c-5.4,3.7-10.5,8-15.5,12.2c-4.8,4-8.9,9.3-14.3,12.1c-15,7.8-30.5,14.7-45.8,21.7c-8.1,3.7-13.8,8.9-14.7,18.3
		c-0.5,4.9-1.8,9.8-2.8,14.6C1392.6,2720.3,1394.6,2723.2,1400.4,2723.5z M1240.6,2420.5c8.2,1.2,10.6,0.9,15.2-3
		c7.3-6.3,14.3-12.9,21.3-19.5c1.9-1.8,3.5-4,4.8-6.3c2.7-4.9,6.3-10,1.8-15.6c-2.9-3.6-11.6-2.5-17.2,2.8
		C1254.6,2390.2,1246.5,2404.1,1240.6,2420.5z M1266.5,2906.2c4,0.7,6.8,2,9.4,1.6c12.1-1.6,24.1-3.5,36.2-5.7
		c2.5-0.4,5.2-1.8,6.9-3.6c1.1-1.2,1.7-4.6,0.8-5.9c-6.4-9.1-19.6-12.4-29.2-6.9c-6.9,3.9-13.2,8.8-19.5,13.6
		C1269.4,2900.6,1268.6,2903,1266.5,2906.2z M1388.1,2736.3c0-2.3,0-3.3,0-4.3c-0.3-6.2-2.9-10.8-9-13c-5.7-2.1-10.5-0.6-14.9,4.7
		c-2.5,3-4.9,6.3-6.8,9.8c-3.9,7.2-3,9.4,5,10.5c4.9,0.7,7.6,2.8,9.7,7.1c1.1,2.3,4.8,5.7,5.9,5.2c3-1.2,6.4-3.8,7.5-6.7
		C1387.4,2745.1,1387.5,2740,1388.1,2736.3z M1305.3,2683.3c3.9,9.8,5.1,11.5,10.5,12.3c10.4,1.5,20.6,0.1,30-4.6
		c2.6-1.3,6.4-4.8,6-6.7c-0.5-2.9-3.5-6.6-6.4-7.7c-12.7-5-25.3-4.2-37,3.3C1307.2,2680.7,1306.3,2682.2,1305.3,2683.3z M806,2987.7
		c6.9,3.1,11.5,1.8,15.4-0.6c13.8-8.5,27.3-17.5,40.9-26.2c0.3-0.2,0.6-0.4,0.8-0.6c3.6-3.4,3.1-7.2-1.3-9.6
		c-4.8-2.7-9.5-2.4-13.9,1.1c-11.6,9.3-23.2,18.6-34.7,28.1C810.8,2981.7,809,2984.4,806,2987.7z M1042.8,2952.7
		c2.5,0.7,4.1,1.7,5.6,1.6c12.9-0.9,23.9-6,32-16.1c2-2.5,3.1-5.9,3.7-9.1c0.9-4.7-1.4-8.1-6.1-8.5c-2.7-0.3-6.4,0.3-8.3,2
		c-8.8,8.1-17.1,16.7-25.5,25.3C1043.5,2948.7,1043.5,2950.3,1042.8,2952.7z M1454,2424.3c-12.7,5.3-19.4,14.1-26.5,22.1
		c-1.4,1.5-0.8,4.7-1.2,7.1c2.5-0.1,5.5,0.8,7.3-0.3c7.9-4.5,14.6-10.6,18.6-18.9C1453.3,2431.8,1453.2,2428.9,1454,2424.3z
		 M1197.6,2539.3c9.5-4.3,15.8-11.2,21.4-18.7c1-1.3,2.2-2.9,2.2-4.3c0.1-2.1-0.1-5.1-1.4-6.2c-1.3-1.1-4.4-0.9-6.2-0.1
		C1206.5,2513.3,1198,2528.4,1197.6,2539.3z M1214.9,2573.9c14.1,2.9,23.1-3.1,25.1-16.2C1227.7,2555,1218.8,2560.5,1214.9,2573.9z
		 M1291.3,2381.7c3.1,5,7.1,4.3,10.6,2.3c4.2-2.4,8.3-5.4,11.8-8.7c1.5-1.5,2.9-5.2,2.1-6.6c-0.9-1.6-4.4-2.8-6.6-2.5
		C1299.5,2367.1,1294.3,2373.4,1291.3,2381.7z M2170.7,2027.2c-9.1-3.2-14.7,0-19.7,3.3c-4.5,3-11.5,4-12.1,11.5
		c4.6,3.2,9.1,3,12.7,0.5C2157.8,2038.2,2163.3,2033.2,2170.7,2027.2z M614.8,3186.8c10.7-0.4,15.2-7.4,20-13.4
		c1-1.3-0.5-5.7-2.1-7.5c-0.8-0.9-5.4-0.2-6.7,1.2C621.1,3172.4,617,3178.3,614.8,3186.8z M1219.7,2605c10.6,2.6,24.1-2.6,28.4-11
		C1239.1,2591,1224.9,2596.5,1219.7,2605z M1064.1,2871.5c9.5,5.2,18.3,2.7,22.2-6.4C1077.1,2860,1068,2862.6,1064.1,2871.5z
		 M1495.4,2360.3c11.7,1.2,18.9-3.8,21.2-14C1508.4,2345,1500.5,2350,1495.4,2360.3z M1167.3,2567.7c9.7,1.8,13.6-0.1,14-5.4
		c0.1-1.4-0.5-3.5-1.6-4.2c-1-0.7-3.5-0.7-4.3,0.1C1172.8,2560.6,1170.7,2563.6,1167.3,2567.7z M1301.5,2572c9,2.2,12,1,16.6-6
		C1310.1,2562.5,1306.5,2563.7,1301.5,2572z M1337.2,2416.6c-8.1-3.1-11.5-0.7-12.8,8.4C1330.9,2425.3,1334.7,2422.3,1337.2,2416.6z
		 M1566.1,2647c-6-4-9.5-2.3-12.6,0c-1,0.7-1.2,2.7-1.7,4.1c1.7,0.6,3.7,2.2,4.9,1.7C1559.5,2651.7,1562,2649.6,1566.1,2647z
		 M1325.3,2665.1c-7.8-4.1-9-3.8-14.3,3.2C1316.4,2670.8,1320.8,2670.6,1325.3,2665.1z M536.6,3186.2c-7.1-1.9-7.3-1.7-9.8,5
		C534.3,3191.8,534.3,3191.8,536.6,3186.2z M1179.8,2633.3c-7-0.4-10.7,1.1-12.3,7C1173.6,2639.6,1173.6,2639.6,1179.8,2633.3z"/>
	<path d="M66,3266c7.5-8.5,15.7-16.5,22.2-25.6c10.3-14.4,24.1-24.9,38.1-34.9c6.9-4.9,10.7-10.1,11.6-18.5
		c3.1-29.2,9.4-57.8,18.3-85.8c7.2-22.7,18.3-43.5,34.9-60.9c7.8-8.2,15.9-16.1,24.4-23.4c7.1-6,12.5-12.5,14.4-22
		c0.9-4.4,3.2-8.7,5.4-12.8c10.6-20.5,25.4-38.1,39.2-56.4c7.8-10.3,15.4-20.8,23.2-31.2c6.4-8.5,12.9-16.9,19.4-25.3
		c2.6-3.4,4.8-7.5,10.4-5.7c5.5,1.7,9.5,4.9,10.5,10.8c1.2,7.4,0.5,14.7-2.8,21.5c-9,18.9-18.2,37.8-27.4,56.7
		c-2.4,5-5,9.9-8.3,16.3c5.1,1.1,8.7,2.3,12.5,2.6c9.4,0.9,11.9,2.7,12.1,12.1c0.2,7.2-1.1,14.5-1.8,21.8c-0.2,2.2-0.5,4.4-1,7.7
		c6.6-2.7,11.2-5.9,15.4-10.4c25.3-27.8,50.9-55.5,76.3-83.2c4.4-4.8,8.8-9.7,12.9-14.2c1.8,0.6,2.7,0.6,3,1
		c6.4,8.8,8.9,9.4,17.3,2.6c4.9-3.9,9.2-8.6,13.4-13.3c6.8-7.7,13.2-15.9,20-23.6c5.2-5.9,5.3-13,3.9-19.8c-0.6-3.1-3.6-6.8-6.4-8
		c-2-0.8-6.3,1.4-8.3,3.5c-8.8,9.1-17,18.7-25.5,28.1c-2.1,2.3-4.4,4.6-6.6,6.9c-0.7-0.3-1.4-0.6-2.2-0.9c0.8-4.3,1.2-8.8,2.5-12.9
		c5.3-17,14.2-32.3,24.5-46.6c14.8-20.5,30-40.7,45.1-61c3.2-4.3,6.6-8.3,10.3-12.2c8.1-8.5,14-18.6,21.1-27.7
		c12-15.4,16.3-34.1,25.1-50.7c7-13.2,15.4-25.6,23.6-38.1c3.4-5.1,7-9.6,6.1-16.3c-0.7-5.3,3-7.2,7.1-7.9c5.4-0.9,9.3-3.5,11.8-8.3
		c2.4-4.6,1.7-7.3-2.8-10c-2-1.2-4.2-2-6.4-2.8c-9.6-3.9-12.8-10.4-10-20.6c4-14.4,8.5-28.7,15.3-42.1c2-4,3.6-8.8,3.7-13.3
		c0.3-22.2,4.2-43.9,10.8-64.8c5.9-18.8,15.2-36.3,28.1-51.3c8.4-9.9,17.6-19.1,26.7-28.4c2.8-2.8,6-5.3,9.3-7.5
		c6.9-4.5,10.6-2.9,13.6,4.7c4.9,12.2,4.1,24.9,3.1,37.5c-2.4,29.7-11.5,57.4-27.7,82.5c-1.6,2.5-3.2,5.1-4.6,7.7
		c-3.6,6.3-1.7,18,3.6,22.8c3,2.7,12.3,1,16.4-3.4c1.8-1.9,3.2-4.3,4.5-6.6c14.3-26.1,32.1-49.9,50.5-73c8.2-10.3,19-18.6,28.8-27.6
		c1.7-1.6,4.4-2.1,6.6-3c0.6,0.5,1.2,1,1.8,1.5c-1.5,3.8-2.5,8-4.6,11.4c-15,24.4-30.3,48.6-45.4,72.9c-1.8,2.9-3.3,5.9-5.6,10.1
		c9.7,0.5,16.9-1.8,23.7-5.1c8-3.9,16.5-5.7,25.2-4.7c14.3,1.6,25.4-3.9,34.2-14.7c12.8-15.7,25.1-32,38.3-47.4
		c11-12.9,23.1-24.8,34.8-37.1c1-1.1,2.7-1.4,4-2.1c3.4,4,0.7,6.8-0.9,9.5c-10.2,16.4-20.1,33-31,48.9
		c-29,42.7-58.5,85.1-87.8,127.5c-1.6,2.4-3.6,4.5-7.4,6.4c-0.3-2.3-0.5-4.6-0.9-6.9c-0.7-3.8-0.8-8-2.5-11.4
		c-2.3-4.8-6.1-5.3-9.6-1.3c-8.7,10.1-17.1,20.5-25.2,31c-1.5,2-2.1,6.1-1,8.2c2.9,5.4,0.4,8.9-2.7,12.5
		c-16.7,19.9-33.3,39.9-50.1,59.6c-6.4,7.5-9,6.9-15.2-2.9c-11.4,8.6-20.5,19.6-31.1,28.8c-10.5,9.1-19.8,19.5-28,30.6
		c6.2,7.7,6.8,7.7,14.4,4.8c10-3.8,16.9-11.7,25-18c7.6-6,14.9-12.2,22.5-18.2c1.5-1.2,3.5-1.9,5.3-2.7c11-4.7,22.1-9.1,32.9-14.3
		c5.3-2.6,10.4-6.1,14.8-10c3-2.7,5.7-6.7,6.7-10.7c3-11.2,9.9-19.8,18.1-27c9.9-8.8,20.9-16.5,31.7-24.2c8-5.7,8.2-5.4,9.5-15.2
		c12.6-0.8,23.3-6.4,33.4-13.8c3.1-2.2,7.1-3.7,10.9-4.2c14.6-2,24.2-10.2,30.6-22.9c10-20,21.9-38.4,37.5-54.9
		c15.9-16.9,34.1-30.2,55.3-38.3c24.2-9.3,49.3-16.8,76-10.9c1.9,0.4,3.7,1.1,6.6,2c-1.2,7.9-3.8,14.9-8,21.2
		c-17,25.8-39,46.1-66.3,60.8c-4.1,2.2-8.2,4.4-12.2,6.9c-2.6,1.6-5,3.6-3.1,8.6c5.5-0.5,11.3-1.1,17-1.7c10.3-1,20.5-2.4,30.8-3.1
		c10.1-0.7,19,3.3,27.2,8.6c9.5,6.2,10.3,13.1,3.3,21.4c-29.4,35.2-66.2,59.5-109.6,73.6c-13,4.2-26.3,7.1-40.1,2.9
		c-9.1-2.7-17.7-0.4-25.7,4.7c-6.2,3.9-12.6,7.6-19.2,10.6c-9.9,4.5-17.7,11.9-25.4,19.1c-9.4,8.8-20.6,14.8-32.2,19.8
		c-5,2.1-11,2.5-16.6,2.6c-7,0.1-11.8,3-16.3,8.1c-11,12.4-22.6,24.4-33.9,36.6c-2.4,2.5-4.6,5.2-8.5,9.7c6.1,0.9,9.8,1.7,13.5,2.1
		c12.6,1.3,25.2,2,37.7,3.8c8.5,1.2,9.5,4.8,3.5,11.1c-19.5,20.6-41.5,37.6-68.1,47.9c-11.6,4.5-22.2,10.5-32.5,17.3
		c-10.5,7-21.7,13.1-32.4,19.7c-2.9,1.8-5.6,4.1-9.4,7c4.3,2.3,7,3.8,10.6,5.7c-1.2,3.3-2.1,6.4-3.5,9.3
		c-14.6,28.9-30.6,57-50.9,82.2c-8,10-18,18.8-28.4,26.5c-16.8,12.5-34,24.6-52.1,35.1c-30.1,17.4-62.9,25-97.9,21.8
		c-5.6-0.5-11.3-1-17-1c-6,0-10.8,2.5-14.1,7.9c-10.6,17.7-21.3,35.3-32,53c-0.6,1.1-0.8,2.4-1.3,3.9c3.8,3.6,7.4,2.3,11,0.3
		c7.6-4.2,14.9-8.9,22.7-12.5c11.2-5.1,22.5-9.8,34.1-13.9c5.5-1.9,11.6-2.6,18.4,0.5c-2.8,9.3-7.7,17.2-13.7,24.1
		c-13.8,15.9-29.1,30.2-46,42.8c-15.5,11.6-30.5,23.8-48.6,31.2c-6.2,2.5-12.4,5-18.7,7c-6.8,2.2-11.5,6.4-14.4,12.8
		c-2.7,6.1-5.9,12-8.5,18.1c-1.3,3.2-1.8,6.7-2.7,10.2c5.6,2.4,8.8-0.1,11.8-2.6c9.6-7.8,18.9-15.9,28.7-23.3
		c23.4-17.6,46.6-35.6,72.9-48.9c1.7-0.9,3.6-1.4,6.2-2.5c0.6,6.2-3.3,9.3-6.4,12.1c-14.7,13.1-29.6,25.8-44.5,38.7
		c-20.1,17.4-40.4,34.8-60.3,52.4c-2.3,2-3.2,5.5-4.7,8.3c-10,0-20,0-30,0c5.3-3.6,10-7.4,11.9-14.1c2.9-10.5,6.4-20.9,9.3-31.5
		c1.1-3.9,2.5-8.4-3.1-12.5c-8.2,10-15.9,20.1-24.4,29.6c-8.8,9.8-18.4,19-27.7,28.5C146,3266,106,3266,66,3266z M607.5,2845.6
		c-0.3-0.7-0.6-1.4-0.9-2.1c-3.8-0.2-7.7-0.9-11.5-0.4c-12.2,1.6-23.9,0.4-35-5.3c-2.1-1.1-4.3-1.8-6.5-2.5
		c-11.4-3.6-16.2-1.9-22.4,8.5c-2.5,4.2-5.3,7.5-10.5,8.2c-3.1,0.4-5.8,1.6-5.9,6.9c7.2,0.3,14.3,0.5,21.4,0.9
		c7.4,0.4,8.8,0.9,10.2,8.2c1.4,7.1,5.7,8.5,11.7,6.8c2.9-0.8,5.9-1.3,8.5-2.7c11.4-6.2,22.7-12.6,33.7-19.3
		C603.2,2851.1,605.1,2848,607.5,2845.6z M258,3123.4c-1.5,0.7-2.9,1-3.8,1.8c-18.9,18.2-37.8,36.4-56.6,54.8c-1.3,1.3-1.3,3.9-2,6
		c9.8,1.1,24.6-3.2,32.4-9.3c5.5-4.3,10.9-8.7,16.3-13.1c8.7-7.1,16.4-27,14.8-38.4C259.2,3124.9,258.9,3124.7,258,3123.4z
		 M498.3,2842.8c1.7-0.9,4.8-1.8,6.9-3.7c9.1-8.2,18.2-16.5,26.7-25.3c5-5.2,9.1-11.4,13.2-17.5c3.6-5.4,3.1-9.3-0.5-12.5
		c-3.4-3-6.8-2.9-11.4,1.5c-12.6,11.9-25,23.9-37.1,36.2c-2.9,3-5.1,7-6.6,11C487.5,2837.2,492.1,2842.6,498.3,2842.8z
		 M643.9,2581.5c-8.4,0.7-18.4,9-19.8,16.6c-1,4.9,1.5,7.3,6.6,7.2C640.4,2605,648,2593.6,643.9,2581.5z M610.2,2641.6
		c8.7-2.2,16.1-1,19.3-8.5c2.4-5.7,2.7-11.5-2.9-16.7C615.9,2620.6,613.3,2629.8,610.2,2641.6z M670.4,2637.1
		c-0.3-0.5-0.5-1.4-0.8-1.4c-0.5-0.1-1.1,0.4-1.7,0.7c0.3,0.7,0.7,1.3,1,2C669.4,2638,669.9,2637.5,670.4,2637.1z"/>
	<path d="M0,2482c7-3.6,12.3-8.3,14.7-16.5c6.3-21.4,17.7-40.3,30.9-57.9c17.6-23.4,35.9-46.3,55.1-68.4
		c17.5-20.1,36.7-38.6,54.9-58c8-8.5,15.2-17.7,22.9-26.4c2.5-2.7,4.8-6.5,9.8-5.5c1.6,5.1-1.6,8.1-3.8,11.1
		c-7.1,9.6-14.9,18.7-21.9,28.4c-13.2,18.3-26.8,36.4-38.8,55.6c-9.9,15.8-15.5,33.8-19.5,52.2c-1.1,5.1-2.2,10.3-3.3,15.7
		c-5.3-0.2-7.3-4-9.9-6.7c-5.9-6.1-9.6-6.5-15.6,0c-5.2,5.6-10.2,11.5-14.5,17.8c-8.5,12.3-16.5,25-24.7,37.5
		c-0.9,1.4-2.1,2.9-2.2,4.4c-0.2,2.1,0,4.7,1.2,6.2c0.8,1,4,1.4,5.3,0.7c12.8-7.1,27.2-8.7,41.1-12.1c10.4-2.6,16-8.8,16.5-19.6
		c0.1-2.9,1-5.7,1.4-8.1c1.6-0.5,2.4-1,2.8-0.8c10.4,6.1,19,4.4,27.3-4.7c8.5-9.3,18.2-17.5,27.2-26.4c3.2-3.3,5.7-7.3,8.4-11.1
		c8-11.4,15.9-22.9,23.9-34.3c2.3-3.4,5.5-4.8,9.5-3.6c4.6,1.3,7.2-1.1,10.2-4.2c10.3-10.9,20.4-22,31.8-31.8
		c11.9-10.3,25.7-17.9,41.1-21.8c3.9-1,9.5,0.7,13.1,3.1c9.4,6.1,18.5,5.5,28.6,2.5c22-6.6,44.1-12.6,66.3-18.8
		c18.3-5.1,37-4.7,55.6-3.6c6.1,0.4,12.2,3.2,17.9,5.7c4.8,2,5.4,5.2,2,9.6c-4.7,6-9.9,11.7-15.2,17.2c-3.3,3.4-6.7,6-6.7,11.6
		c0,2.6-2.2,5.5-4,7.7c-19,22.2-40.5,41.4-65.3,56.9c-15.5,9.7-30.9,19.7-46.5,29.2c-20.1,12.2-42,20.1-64.7,25.7
		c-10.3,2.5-20.9,4.2-31.3,6.3c-11.4,2.3-22.6,0.5-33.7-1.5c-4.6-0.8-9.1-1.9-14.8,1.2c2.1,3.4,3.6,6.6,5.9,9.1
		c8.6,9.3,11.9,20.6,13.1,32.7c0.6,6.1-0.1,11.9-3.6,17.2c-3.3,5-5.9,10.4-9.1,15.5c-2.8,4.4-3.4,8.5-0.6,13.1
		c1.6,2.5,2.6,5.4,4.4,7.8c4.7,6.4,3.8,12.2-0.8,18.2c-13.8,18-27.8,35.9-46.4,49.2c-14.9,10.7-30.1,20.9-48.3,25.5
		c-9.7,2.4-19.1,6.1-28.8,7.8c-14.4,2.6-27.3-1-39.1-10.6c-10.8-8.9-20-18.4-25.3-31.5c-0.7-1.6-2.7-2.7-4.1-4C0,2558,0,2520,0,2482
		z"/>
	<path d="M2448,722c-1.3-3.7-2.9-7.4-3.7-11.2c-17.5-83.8-34.8-167.6-52.3-251.3c-14-66.8-27.8-133.7-42.5-200.3
		c-15-68.3-30.8-136.4-46.3-204.5c-0.4-1.9-1.1-3.8-1.9-5.6c-3.1-6.9-4.8-7.9-12.4-6.6c-16.1,2.7-32.1,5.9-48.3,8.1
		c-18.1,2.5-36.4,3.9-54.6,6c-3.9,0.4-7.6,1.9-11.5,2.9c-3.4,0.8-6.7,1.6-9.6,2.3c-1.1-1.6-1.6-2.1-1.9-2.7c-1.6-3.5-3.2-10-4.7-9.9
		c-6.2,0.1-13.4-2.3-18.5,4.1c-2,2.6-4.8,4.6-7.4,6.6c-5.2,3.9-9.7,4-12.3,0.7c-2.5-3-1.3-6.7,3.7-10.9c1.3-1.1,3-1.7,4-3
		c2-2.6,4.4-5.2,5.4-8.2c3-8.6-2.4-14.6-11.3-12.8c-2.5,0.5-4.7,2.6-7.3,3c-3.8,0.7-8.1,1.7-11.5,0.5c-14.7-4.9-29.2-10.6-43.8-15.7
		c-4.7-1.6-9.6-2.5-14.5-3.6c-4.1-1-8.1-2-6.8-7.7c136.5,0,273.1,0,410,0C2448,242,2448,482,2448,722z"/>
	<path d="M1004,3266c2.9-2.1,5.7-4.7,8.9-6.2c10.4-5.1,15.5-14,19.2-24.3c13.3-36.9,35.4-66.9,71.4-84.4c7.6-3.7,16.5-4.8,24.9-6.8
		c4.7-1.1,8.6,1,11.4,4.7c3,4,6.8,6.1,11.8,6.7c1.3,0.1,3.1,0.2,3.8,1.1c6.3,7.6,14,4.6,21.2,2.7c19.3-5.1,38.9-5.6,58.4-3.7
		c11.8,1.1,23.4,4.7,35.1,7.4c4.7,1.1,5.8,3.7,4.4,8.3c-0.3,0.9-1.1,1.7-1.3,2.7c-0.5,2.4-0.8,4.9-1.1,7.4c2.8,0.4,5.8,1.6,8.3,1
		c8.1-2,16.1-4.3,23.8-7.4c17.5-7,35.5-8.3,54-7.2c9,0.5,17.9,1,26.8,2.1c9.2,1.2,10.4,3.6,6.7,11.8c-12.3,27.5-26.2,53.9-49.1,74.3
		c-3.9,3.5-8.3,6.6-12.4,9.9C1221.3,3266,1112.7,3266,1004,3266z"/>
	<path d="M0,3112c6.7-3.7,12.9-9.2,20-10.9c15.4-3.7,26.4-12.8,36.9-23.9c4.2-4.5,8.4-10.3,18.1-11.6c-3.2,4.8-5,8.1-7.3,11
		c-6.6,8.3-13.4,16.5-20.2,24.7c-6.5,7.9-7.8,17.2-8.1,26.9c4.4,2.1,6.6-0.6,9-2.9c8.6-8.3,17.1-16.8,25.9-24.9
		c11-10.2,22.3-20.1,36.9-25c3.3-1.1,6.8-1.7,12.5-3.1c-10.4,22-21,41.1-35.7,59.7c4.3,1.1,6.7,1.9,9.1,2.3c2.9,0.5,6,0.4,8.8,1.2
		c9.4,2.8,10.9,5.8,7.9,15.1c-0.4,1.2-0.5,2.6-1.1,5.4c0.6,0.3,1.8,1,3,1.5c5.1,2.3,4.6,5.8,2.2,9.8c-3.6,6-6.9,12.2-10.9,17.9
		c-13.2,19.1-26.8,38.1-40,57.2c-5.3,7.6-10,15.6-15,23.5c-2,0-4,0-6,0c3.6-9.2,6.5-18.9,11-27.7c6.7-13,14.6-25.4,21.8-38.1
		c1-1.7,1.2-3.9,1.7-5.9c-0.6-0.5-1.1-1-1.7-1.5c-2.3,1.4-4.8,2.7-7,4.2c-11.9,8.6-23.5,17.5-35.6,25.7c-4,2.7-5.7,5.3-4.5,9.8
		c3.2,11.4,1.6,22.4-1.8,33.4c-10,0-20,0-30,0C0,3214.7,0,3163.3,0,3112z"/>
	<path class="st2" d="M0,2030c1.5-1.8,3.4-3.3,4.4-5.4c4.5-9.7,13-13.9,22.6-16.1c21.6-5,40.2-15.8,57.3-29.3
		c13.3-10.5,26.2-21.6,38.6-33.1c8-7.4,15.1-15.6,17.9-27c1-4.1,6-7.9,10.1-10.2c7.2-4,12.3-9.8,17.8-15.7
		c6.8-7.3,14.5-13.7,22.1-20.2c8.1-6.9,16.8-13.1,21.5-23.2c1.7-3.7,4.8-6.2,10.5-5.9c-4.3,8.1-3.9,17.7-12.3,23.1
		c-1.2,0.8-2,2.8-2.1,4.4c-0.4,5.7-3,9.8-7.5,13.4c-4.5,3.6-3.9,8.6-2.1,13.9c6.3-0.1,7-5.9,10.2-8.8c3-2.7,5-7.1,11.2-6.7
		c-0.4,2.7-0.2,5.2-1.2,6.8c-3.1,5.2-6,10.1-4.2,16.8c0.5,1.8-1.9,4.9-3.6,6.7c-11.4,12.1-22.5,24.5-34.5,36
		c-16.1,15.4-32.7,30.3-49.3,45.1c-6.4,5.8-13.8,10.5-20.2,16.2c-18.4,16.4-36.6,32.9-54.6,49.7c-5.9,5.5-12.1,10.2-19.8,13.1
		c-12.2,4.7-23.4,11.2-33,20.3c0-10,0-20,0-30c11.1-5.8,24.5-19.8,25.7-27.9c-8.9,2.7-17.3,5.3-25.7,7.9C0,2039.3,0,2034.7,0,2030z"
		/>
	<path d="M0,2044c8.4-2.6,16.8-5.2,25.7-7.9c-1.1,8.1-14.6,22.1-25.7,27.9C0,2057.3,0,2050.7,0,2044z"/>
	<path class="st2" d="M0,2140c13.7-11.7,27.1-23.9,42.8-33.1c-3.2,10.7-13.2,14.6-20.6,21.2c-7.4,6.6-14.8,13.2-22.2,19.9
		C0,2145.3,0,2142.7,0,2140z"/>
	<path d="M1287.8,1947.7c1.4-26.6,4.7-53,14.7-78c5.5-13.8,12.9-26.9,19.6-40.2c2.5-4.9,6.3-4.9,8.7,0.1
		c6.9,14.4,11.9,29.2,13.6,45.5c2.4,23.6-1.7,46.4-5.1,69.4c-2.8,19.1-5.4,38.2-7.5,57.3c-0.7,6.2,0.2,12.6,0.8,18.9
		c0.7,8-1.1,9.7-8.8,6.7c-12.5-4.8-21.1-13.7-26-26C1291,1984.1,1287.2,1966.3,1287.8,1947.7z"/>
	<path d="M1371.1,1825.7c-9.1-10.7-12.3-21-13-32.2c-1.3-22,3.2-42.6,12-63c9.9-22.8,25.1-41.4,41.6-59.2c9-9.8,18.7-18.8,28.4-27.9
		c3.2-3.1,6.7-6.6,12.5-5.4c1.2,5.7-0.7,10.7-2.8,15.4c-5,10.9-10.4,21.5-15.6,32.3c-4.4,9.2-8.6,18.6-13.1,27.7
		c-2.4,4.8-5.6,9.1-7.9,13.9c-11.2,23.3-22.5,46.7-33.3,70.2c-2.6,5.7-3.7,12.1-5.5,18.1C1373.6,1818.4,1372.7,1821.1,1371.1,1825.7
		z"/>
	<path d="M1917.5,2016.9c3.1,4.1,0.5,6.9-1.3,9.5c-17.4,25.2-35,50.2-52.2,75.5c-5.6,8.2-10.1,17.2-15.2,25.8
		c-10.1,16.7-20.7,33.2-30.4,50.2c-5.9,10.3-10.7,21.3-16.3,32.8c-1.5-1.3-3.2-2.3-4-3.7c-3.6-6.7-4.5-13.9-3.4-21.3
		c4.4-30.8,16.9-57.7,37.8-80.9c8.9-9.9,16-21.4,25.5-30.5c12.8-12.2,24.9-24.8,36.3-38.3c5.3-6.2,11.9-11.3,18.1-16.7
		C1913.8,2017.9,1915.9,2017.5,1917.5,2016.9z"/>
	<path d="M1825.3,1482.1c-0.5,3-0.6,6.2-1.7,9c-8.9,23.3-19.9,45.6-31.9,67.4c-5.1,9.3-10.7,18.4-15.4,27.9
		c-7.8,15.4-15,31.1-22.5,46.6c-1.4,2.8-3.1,5.4-5.1,9.1c-2.3-2.7-3.9-3.9-4.7-5.5c-7.6-13.9-9-28.1-3.2-43.1
		c6.2-16.1,11.8-32.3,21.8-46.7c9.3-13.3,16.5-28.2,28.4-39.6c8.6-8.2,17.8-15.9,26.9-23.7c1.4-1.2,3.4-1.6,5.2-2.4
		C1823.7,1481.3,1824.5,1481.7,1825.3,1482.1z"/>
	<path d="M199.1,2330c4.3-8.9,8.4-17.2,13.6-24.7c18.3-26.3,39.6-50.1,62.4-72.6c11.1-10.9,23.6-20.3,35.6-30.3
		c5.6-4.7,11-9.5,17-13.7c13.8-9.7,27.8-19.3,42-28.6c3.5-2.3,7.8-3.3,12.4-5.3c0.5,5.7-2.7,8-5.7,10.5
		c-13.9,11.9-27.8,23.7-41.7,35.6c-2.5,2.2-5.4,4.2-7.1,7c-9.7,15.3-24.1,25.4-38.4,35.8c-8,5.8-15.3,12.9-22.1,20.1
		c-18.7,19.9-37,40.1-55.4,60.3C208.7,2327.6,206.2,2331.7,199.1,2330z"/>
	<path d="M872.6,2479.4c-6,12.9-11.7,23.7-19.9,32.8c-10,11.1-20.7,21.5-30.8,32.6c-4,4.3-7.3,9.4-10.4,14.4c-2,3.3-4,5.8-8.1,6.6
		c-4.1,0.8-8.1,2.4-12.9,4c1.7-7.7,0.1-15.9,5.3-23c8-10.9,14.7-23.2,24.1-32.8c10.8-11.1,23.7-20.1,35.9-29.8
		C859.8,2480.8,864.9,2479.4,872.6,2479.4z"/>
	<path d="M1292.8,2122.8c-3.5,26.7-6.7,51.6-10,76.5c-0.2,1.5-1.3,2.8-2,4.4C1268.9,2192.7,1279.9,2137.4,1292.8,2122.8z"/>
	<path d="M1672.7,2291.2c6.8-18.6,14.7-34.3,26-48c3.6-4.4,5.6-11.6,13.8-12c0,2.3,0.6,4.4-0.1,5.9
		C1706.3,2250,1680.4,2286.1,1672.7,2291.2z"/>
	<path d="M1226.2,1149.6c4.9-19.2,13.6-36.5,28-53.2C1252.7,1108.1,1242.4,1127.7,1226.2,1149.6z"/>
	<path d="M1743.6,1730.4c-3.2,6.2-3.7,11.8-10.4,12.7C1733.1,1735.3,1733.9,1734.1,1743.6,1730.4z"/>
	<path d="M1697.2,1716.3c-2.2,2-3.6,4.2-4.8,4.2c-1.8-0.1-3.5-1.8-5.3-2.9c1.2-1.6,2.3-4.3,3.7-4.5
		C1692.5,1712.9,1694.5,1714.8,1697.2,1716.3z"/>
	<path class="st2" d="M839.4,514.1c5.6-4.8,10.9-9.2,16.2-13.7c7.9-6.7,15.6-13.5,23.6-20.1c9.3-7.7,11.5-7.6,20,0.6
		c1.2,1.1,2.4,2.4,3.7,3.3c6.8,4.5,10.7,2.8,10.9-5.4c0.5-17.3,8.5-31.2,19.2-43.9c1.8-2.2,5.5-3.9,8.3-4c4.5-0.1,7-1.9,8.3-5.7
		c2-5.5,6.2-8.5,10.9-11.2c11.1-6.2,22-12.6,30.8-21.9c2.3-2.4,5.2-4.2,8.1-5.8c13.9-7.5,25.6-17.9,37.6-27.9c4.8-4,10.1-8,15.9-10
		c13.5-4.6,27.4-8,41.1-12c3.2-0.9,6.3-2.1,9.4-3.1c10.7-3.2,21.5-6.4,34.4-10.3c-3.8,8.7-15.8,6.1-15.3,17c6.9-4.3,13.2-7.8,19-12
		c4.6-3.3,9.3-4.9,14.9-4.3c12.8,1.4,24.8-2.4,35.4-8.7c10.5-6.2,21.6-9.8,33-13.6c14.8-4.9,28.9-11.9,43.6-17.2
		c18.8-6.8,37.9-12.7,56.8-19c17.3-5.9,34.6-12.1,52-17.7c8.8-2.9,18-4.5,27.1-2.8c0.8,0.9,1.5,1.3,1.7,1.8
		c3.7,10.1,6.3,10.8,13,2.5c7.9-9.8,17.5-15.9,29.9-18.1c6.2-1.1,12.1-3.5,18.3-5.1c2.1-0.5,4.3-0.4,7.2,1.3
		c-3.2,1.9-6.3,4.1-9.6,5.5c-4.5,1.9-7.2,4.2-6.2,9.7c0.4,2.4,0,5.8-1.5,7.6c-6.5,7.9-10.7,17.5-20.4,22.9
		c-9.7,5.5-10.4,9.3-6.8,21.7c5-1,10.1-2.2,15.3-3c6.9-1.1,9.7,1.6,7.6,8.3c-2.4,7.7-5.9,14.8-13.5,19c-8.7,4.8-16.9,10.5-25.9,14.8
		c-5.8,2.7-12.5,3.5-18.7,5c-1.5-1.3-2.4-2.2-3.4-3.1c-5.8-5.2-9-5.1-12.4,1.5c-8.4,16-22,25.3-38.5,31c-2.8,1-7.5,1.4-9-0.2
		c-1.7-1.8-1.4-6.3-0.6-9.2c0.9-3.4,3.1-6.6,5.1-9.7c7.2-11.5,14.5-22.8,21.9-34.6c-4.4-3.2-6.9-0.2-9,2.6
		c-5.9,8-11.5,16.3-17.5,24.2c-4.4,5.8-9.3,11.2-14,16.7c-1.1,1.3-2.5,2.3-3.4,3.6c-14.2,19.3-28.5,38.5-42.3,58.1
		c-2.7,3.8-3.4,9-5.3,14.3c5.6,0.5,7-2.9,9-5.2c11-12.9,21.9-25.8,33-38.6c1.9-2.3,4.1-4.4,6.5-6.1c4.5-3.3,8.2-3.2,10.6,0
		c2.6,3.5,1.3,7.2-3.8,10.7c-0.8,0.6-1.8,0.9-2.7,1.4c-6,3-8.4,7.7-10.6,14.3c-3.2,9.5-9.9,17.8-15.5,26.5c-0.9,1.4-3.4,2.6-5.2,2.7
		c-15,1.1-23.4,11.6-31.7,22c-4.4,5.4-8.1,11.4-12.4,16.9c-2.6,3.4-5.6,6.5-8.4,9.7c-3.6,4.3-7,8.9-10.9,13
		c-4.4,4.4-8.9,8.8-14,12.4c-7.3,5.1-15.2,9.3-24.4,14.9c3.5,1.6,5.4,2,6.5,3.2c1.7,1.8,4.1,4.1,4,6.1c-0.2,6.6-1.3,13.4-6.4,18.2
		c-7.2,6.9-16.1,10.5-25.7,12.5c-3.5,0.7-7.6,0.6-8.6-3c-0.7-2.5,1-6.1,2.6-8.7c1.5-2.7,4.2-4.7,5.3-8.6c-1.4,0.2-3.2-0.1-4.3,0.6
		c-5.1,3.5-10.5,3.6-16.3,2.7c-8.4-1.2-9.8-0.5-13.7,6.5c-8.5,14.9-20.2,27-33.1,38.2c-6.9,6-12.1,14.1-17.8,21.4
		c-4.6,6-10.3,10.2-16.9,13.6c-3.2,1.6-6.1,2.4-9.3,0.2c-3.3-2.3-4-5.3-2.8-8.7c3.4-9.7,7-19.3,10.5-29c1-2.8,2.4-5.5,3-8.4
		c0.2-1.1-1.3-2.6-2.4-4.6c-7.7,5.8-11.4,13.7-16.5,20.4c-4.4,5.8-9.1,11.6-14.7,16.1c-9.5,7.6-15.7,5.8-21-4.9
		c-4.9,2.6-15.6,14.5-19,21.8C981.8,650,971,663.3,958,675c-4.2,3.8-8.2,7.8-12.2,11.7c-5.8,5.7-12,10.2-20.5,11.3
		c-4.8,0.6-9.5,2.9-13.8,5.2c-6.8,3.7-13.3,7.3-21.7,5.6c-2.6-0.6-6,0.6-8.5,1.9c-21.5,11.3-43.9,20.9-63.9,34.8
		c-11.7,8.2-22.8,17.3-34.1,26c-0.5,0.4-1,0.9-1.5,1.4c-7.7,9.4-15.3,18.9-23.1,28.3c-2.1,2.5-4.3,5.2-7,7c-3.7,2.4-7.7-0.3-7-4.7
		c0.5-2.8,2-5.6,3.5-8.2c6.9-11.4,13.8-22.7,21-34c2.1-3.3,5-6.2,7.5-9.3c2.9-3.6,5.6-7.4,8.7-10.8c3.8-4.1,7.7-8.2,12.3-11.4
		c2-1.4,6.2-1.6,8.4-0.5c5.8,3.1,10.3,1.4,14.7-2.2c10.5-8.7,21.3-17.2,31-26.6c7.4-7.2,15.4-11.9,25.5-14.4c17.2-4.2,33-12,47.8-22
		c19.7-13.4,36.4-30.1,52.6-47.3c12.6-13.4,22.3-29,31.6-44.8c1.1-1.9,1.6-4.2,2.7-7.1c-11.2-0.5-20.3,3.3-28.8,8.5
		c-16.5,10.1-32.6,20.6-49,30.9c-1.9,1.2-4,3-6.1,3.2c-14.8,1.2-26.9,9.5-39.9,15.2c-3,1.3-6.1,2.7-9.3,3.6c-3.7,1-5.6-1-6-4.6
		c-0.7-6.9-1.5-13.8-2-20.7c-0.2-2.2,0.4-4.6,1-6.8c0.4-1.5,1.7-2.8,2.4-4.3c5.4-11.1,13.2-16.5,26.6-16.5
		c17.8,0,34.8-6.3,50.3-14.8c30.9-17,60.6-36.2,88.1-58.4c7.4-6,14-13.1,21-19.7c-3.3-5.5-7.8-5.4-12-5.5
		c-17.2-0.7-33.7,3.4-49.9,8.7c-2.9,0.9-5.7,2-8.5,2.8c-3.4,0.9-6.6,1.1-9.1-3.5c1.6-2,3.4-4.3,5.3-6.4c3.9-4.1,8-8.1,11.7-12.3
		c6.4-7.1,6.4-8.4,1.9-16.5c-3-5.5-2.9-8.9,3.3-11.1c12-4.4,20.5-16.6,34.8-15.8c1.2,0.1,2.5-0.8,3.7-1.5c0.8-0.5,1.4-1.3,3-2.8
		c-4.4-3.1-8.5-6.1-13.1-9.4c-6.4,3.6-12.8,6.9-18,13.1c-4.3,5.1-10.9,8.4-16.9,11.7c-3.1,1.7-5.5,3.2-6.5,6.8
		c-2.3,8.2-8.1,13.6-15.6,17.1c-3.8,1.7-7.3,3.2-7.2,8.3c0,1.5-0.8,3.5-2,4.4c-7.1,5.5-13.7,12-21.7,15.7
		c-9.4,4.3-15.3,10.3-18.1,20.1c-0.8,2.8-2.9,5.2-4.5,7.6c-3.4,4.9-7.1,9.6-10.2,14.7c-7,11.3-13.3,23-20.7,34.1
		c-9.2,13.8-19.1,27.2-29,40.6c-5.9,7.9-13.5,13.6-22.9,17c-5,1.8-9.4,5.1-14.3,7c-2.8,1.1-6.9,2-9.1,0.8c-3.7-2-2.6-6.3-1.5-9.9
		c3.9-12,8.4-23.8,11.5-36c3.1-11.9,5.1-24,7-36.2c1-6.7,1.4-13.3,7.2-18C843.5,522.7,840.7,518.4,839.4,514.1z M1113.6,345.5
		c-8.1,4.4-16.6,7-22.3,12.6c-9.7,9.6-20.2,18-31.6,25.4c-6.2,4.1-11.6,9.4-17.4,14.1c5.3,0.6,10.4,1.1,13.1-4.1
		c3.4-6.4,9-9.6,15.7-11.2c4.3-1,6.6-3.3,8.9-7c2.3-3.8,5.8-7.2,9.5-9.6c6.7-4.1,14-7.3,21.1-10.8
		C1114.4,353.1,1116.6,350.9,1113.6,345.5z M1169.1,540.3c0.4,0.8,0.7,1.4,1,1.9c0.7-0.4,1.5-0.8,2.1-1.3c0.1-0.1-0.6-1.4-0.7-1.4
		C1170.7,539.5,1169.9,539.9,1169.1,540.3z M1178.4,504.6c-0.8-0.3-1.6-0.6-2.4-0.7c-0.2,0-0.7,1.4-0.6,1.5c0.6,0.5,1.4,0.8,2.2,1.2
		C1177.8,506.1,1178,505.5,1178.4,504.6z"/>
	<path class="st2" d="M700.5,833.7c0.7,18.2-13.7,27.5-23.1,39.5c-5.6,7.2-13.9,12.2-20.8,18.4c-13,11.9-26.1,23.7-38.8,35.9
		c-6.2,6-13.4,9.8-21.4,12.4c-5.4,1.7-7.9-0.3-6.9-5.7c1.3-7,4-12.9,10.6-17.2c19-12.5,35.2-28.4,50.4-45.2c2.1-2.3,3.2-5.4,4.8-8.1
		c-9.8-8-20.9,0.6-29.7-3.7c0.8-7.2,1.1-13.4,2.4-19.4c1-4.7-1-6.9-4.9-8.2c-1.6-0.5-3.2-1-4.7-1.7c-5.7-2.6-6.8-5-5.1-11.1
		c1.1-3.8,2.6-7.4,3.7-10.7c-3.3-3.8-6.3-2.1-8.7-0.7c-9.7,5.7-19.7,11.2-28.8,17.7c-7.7,5.5-15.5,10.3-24.7,12.6
		c-11.7,2.9-22.6,7.9-33.2,13.6c-3.1,1.7-6.3,4.2-10.3,0.3c2.9-6.9,7-12.1,14.7-14.7c11.9-4.1,24-8.2,35.2-13.8
		c11.3-5.6,22.2-12.3,32.2-19.8c11.5-8.6,23.6-16.1,36.7-22c5.1-2.3,9.9-5.5,14.3-9c19-14.7,37.5-29.9,51.3-49.9
		c0.7-1,1-2.3,1.7-3.9c-9.1-7.2-17.5,4.1-27.9,0.6c2.3-3.1,3.6-5.7,5.5-7.5c4.9-4.4,10-8.8,15.4-12.6c5.4-3.8,11.3-7,17-10.3
		c9.5-5.5,19.1-10.8,28.4-16.6c2.9-1.8,4.9-5,7.6-7.9c-4.7-5.6-10.2-6.8-15.8-6.5c-6.9,0.5-14,1.2-20.7,3.1
		c-17.7,4.8-34.8,11.1-50.2,21.4c-3.4,2.3-7.5,3.6-13,6.2c0.8-3.8,0.7-5.9,1.6-7.3c10.2-16,24.8-27.7,39.1-39.6
		c3.9-3.2,9.6-4.5,14.8-5.8c17-4.2,32.6-11.6,47.6-20.3c1.4-0.8,2.9-1.5,4.4-2.3c16.1-7.9,16.1-7.9,29.8,4.1
		c4.8,4.2,10,7.8,16.5,8.8c2.3,0.3,4.6,1,6.8,1.7c7.4,2.4,8.4,5.9,2.8,11.3c-4,3.9-9,7-12.9,11.1c-11.5,12-22.7,24.3-33.9,36.6
		c-3.1,3.4-4.1,7.2-3.1,12c0.9,4.5,0.7,9.2,0.5,13.9c-0.2,7,1,13.4,7.1,17.6c3.6,2.5,4.6,6.1,3.4,9.7c-2.5,7.5-4.7,15.3-8.7,22
		c-10.2,17.1-21.3,33.7-32.1,50.5c-2.3,3.6-5,7-7.7,10.4C712.6,832.8,712.5,832.8,700.5,833.7z M709.2,767.2
		c-0.8-0.4-1.6-0.9-2.4-1.3c-1.4,3.5-2.9,7-4.3,10.5c2.8-1.1,3.9-3,4.8-5C708,770.1,708.5,768.6,709.2,767.2z"/>
	<path class="st2" d="M805.4,828.9c-2.8,12.1-8.6,20.8-17.1,27.4c-8.1,6.2-17.1,11.3-25.4,17.3c-2.9,2.1-5.4,5-7.2,8.1
		c-5.6,9.3-14.1,15.6-23.9,18.8c-14.4,4.6-27.8,11-41.1,17.8c-4.9,2.5-8.6,2.9-11.2-3.2c-7.7,5-10.6,14.6-19.2,17
		c-0.9-0.7-1.8-1.2-1.8-1.5c2-14.5,4.5-28.9,15.8-39.6c2.5-2.4,6-4.3,9.3-5.2c12.8-3.3,24.3-8.7,34.1-17.8c2.7-2.5,6.9-3.8,10.7-4.7
		c9.3-2.3,19.3-2.6,27.8-6.4c8.2-3.7,14.7-11.1,22.4-16.3c5.7-3.9,12-7,18.2-10.1C799.1,829.2,801.8,829.4,805.4,828.9z"/>
	<path class="st2" d="M986,680.1c-4.3-12.8,3-20.1,9.9-27.4c4.3-4.6,8.9-9.1,13.8-12.9c6.7-5.2,12.5-2.5,12.6,5.9
		c0.1,6,1.7,9.4,7.8,12.1c4.8,2.1,8.3,7.5,11.8,11.8c1.2,1.5,1.5,4.7,0.7,6.5c-1.5,3.6-3.2,8-6.2,9.8c-10.1,6.1-18.7,13.7-26.2,22.6
		c-1.2,1.5-3.1,2.6-4.9,3.4c-7.3,3.4-13.5,7.7-19.3,13.6c-4.4,4.4-11.2,7.2-17.5,8.8c-7.5,2-11.5-3.5-7.9-10.4
		c6.1-11.4,12.9-22.4,19.4-33.6C982.2,686.8,984.3,683.1,986,680.1z"/>
	<path class="st2" d="M580.9,704c0.5-2.1,0.4-4.6,1.5-6.3c7.8-12.4,15.7-24.6,23.7-36.8c2.7-4.2,5.4-8.3,8.3-12.4
		c3.5-5,7.2-10,12.2-16.9c0-6.6,4.7-13.6,11-19.9c8.5-8.5,17.2-16,28.7-21c8.6-3.7,15.8-10.7,23-17c5.8-5.1,9.8-6.9,12.6-3.7
		c2.5,2.8,1.3,7.2-3.5,12.2c-7.4,7.6-14.2,16.1-22.5,22.5c-9.9,7.7-21.2,13.6-31.9,20.3c-3.9,2.4-7.8,4.9-12.5,7.8
		c3.9,4.7,7.8,7.9,13,9.4c2.5,0.8,5,1.7,7.3,3c3.2,1.8,3.4,4.8,1.6,7.7c-0.8,1.4-2.2,2.5-3.5,3.5c-20.1,15.3-40.3,30.5-60.5,45.7
		c-2,1.5-4.5,2.3-6.7,3.5C582.2,705,581.5,704.5,580.9,704z"/>
	<path class="st2" d="M1165.4,587.8c2.7-2.4,5.4-6.3,9-7.8c8-3.4,13.3-9.7,19.2-15.5c5.7-5.5,11.1-11.5,17.3-16.4
		c14.6-11.4,28.3-24.1,45.9-31.4c3.8-1.6,7-4.9,9.9-8c8.7-9.2,18.8-14.7,31.8-11.5c2.5,0.6,5.8,2.8,6.4,4.9c0.6,2.2-0.9,5.8-2.6,7.7
		c-1.8,2.1-5,3.2-7.6,4.6c-4.7,2.3-9.3,4.1-11.4,10.1c-1.1,3.1-5.8,5.2-9.1,7.4c-23.1,15-46.2,30-69.6,44.6
		c-6.2,3.9-11.7,8.4-17.3,13c-3.4,2.7-8.2,4.1-12.5,5.2C1170.3,595.8,1167,593.7,1165.4,587.8z"/>
	<path class="st2" d="M259.6,1517.6c3.5-6.2,7.7-10,13.5-12.6c11.8-5.4,23.3-11.4,35-17.1c1.8-0.9,3.6-2.1,5.5-2.3
		c2.1-0.3,5.1-0.4,6.3,0.8c1.1,1.2,1.1,4.4,0.3,6.2c-1.2,3.1-3.1,5.9-5.1,8.6c-3.7,5.2-9.9,9.3-6.5,17.3c0.5,1.1-0.6,3.3-1.6,4.6
		c-6.5,8.7-13.2,17.2-19.9,25.9c-7.4-4.9-0.5-8.7-0.3-13.6c-2.9,1-5.2,1.8-8.7,3.1C272.1,1531.7,265.8,1524.6,259.6,1517.6z"/>
	<path class="st2" d="M844.3,427.8c2.2-6.8,6.5-10.5,12.4-10.9c11.1-0.7,20.5-5.5,29.6-10.9c14.1-8.3,29-14.6,44.6-19.4
		c1.6-0.5,3.2-1.3,4.8-1.2c3.1,0.2,7.5,0,8.8,1.8c1.5,2,1,6.4,0.1,9.3c-1.9,5.8-6.2,8.9-12.6,9.6c-25.6,2.8-50.1,9.9-73.5,20.6
		C852.6,429.4,852.6,429.3,844.3,427.8z"/>
	<path class="st2" d="M554.3,956.4c-3.4,5.3-5.2,10.4-8.8,13.4c-16,13.6-33.5,25.1-51.7,35.6c-1.5,0.9-3.7,0.8-7.1,1.4
		c2.1-8.7,3.6-16.5,6.1-23.9c0.8-2.3,4.1-4.2,6.7-5.3c16.8-7.3,33.6-14.3,50.5-21.4C550.6,956,551.3,956.3,554.3,956.4z"/>
	<path class="st2" d="M737,578.8c-3.3,0-5-3-2.8-5.6c4-4.8,8.8-9,13.1-13.5c3.4-3.5,6.5-7.2,9.8-10.8c2.2-2.4,4.2-5.1,6.8-6.9
		c6.5-4.5,13.4-8.6,20.1-12.8c1.4-0.9,2.9-1.9,4.4-2.1c3.3-0.4,5.9,1.8,4.3,4.7c-5.8,9.8-10.7,21.1-19,28.1
		c-9.6,8.1-22.6,12.3-34.1,18.2C738.7,578.6,737.7,578.7,737,578.8z"/>
	<path class="st2" d="M600.6,1023.1c2.2-3.1,4.2-6.3,6.5-9.3c6-7.6,12.6-14.6,17.9-22.6c4.8-7.2,11.7-8.1,19.1-8.5
		c4.1-0.2,6.7,2.3,7.8,6.3c1.1,4.2,2.9,8.4-1.1,12c-0.7,0.7-1.5,1.4-2.4,1.8c-14.1,7.3-28.3,14.6-42.5,21.8c-1,0.5-2.5,0.2-3.7,0.2
		C601.7,1024.4,601.2,1023.7,600.6,1023.1z"/>
	<path class="st2" d="M513.7,741.9c15.7-19.5,34.1-36.1,51.2-53.9c1.9-2,4.5-3.3,6.7-5c0.7,0.5,1.4,0.9,2.1,1.4
		c-0.9,2.9-1.5,6-2.7,8.7c-3.5,7.5-7.7,14.7-10.9,22.2c-2.6,6.2-6.9,10.3-12.7,13.3c-6.5,3.3-12.9,6.8-19.2,10.3
		C523.8,741.5,519.5,743.7,513.7,741.9z"/>
	<path class="st2" d="M909.6,752c-2.9-4.5-1.4-9.1,0.9-13c3.4-5.6,7.6-10.8,11.7-16c2.2-2.9,5.1-5.2,7.5-8c6.5-7.2,11.5-7.9,21-2.9
		C949.1,727.4,925.5,750.4,909.6,752z"/>
	<path class="st2" d="M408.2,1125.2c-2.5,2-4.9,4.3-7.6,6c-16.4,9.5-32.6,19.4-49.4,28.1c-6.9,3.6-15.1,4.7-22.7,6.6
		c-1.3,0.3-3.8-0.5-4.2-1.4c-0.7-1.5-0.8-4.2,0.1-5.4c4.9-6.2,9.5-11.8,18.7-13.4c22.3-3.8,43.9-10.6,63.8-22
		C407.3,1124.1,407.7,1124.7,408.2,1125.2z"/>
	<path class="st2" d="M203,1487.4c5.2-3,10.2-6.1,15.4-8.9c5.6-3,11.1-6.2,17-8.3c3.8-1.4,8.5-1.8,12.4-1.1
		c5.8,1.1,11.3,3.7,18.1,6.1c-3,1.8-5,3.4-7.2,4.4c-11.2,5-22.5,9.8-33.8,14.6C215.5,1498.3,210.8,1496.9,203,1487.4z"/>
	<path class="st2" d="M347.8,1399.8c1.9-13.1,9.3-22.2,20.6-28.1c5.5-2.9,9-0.2,9.3,5.7C378.4,1391.1,362.1,1403.7,347.8,1399.8z"/>
	<path class="st2" d="M638.6,740.3c1.1,4-2.2,5.2-4.4,6.9c-11.6,8.5-22.5,18-36.6,24.3C599.3,758.2,625.1,739.3,638.6,740.3z"/>
	<path class="st2" d="M156,1863.6c10.7-15.6,19.2-19.9,33.1-16.5C184.7,1855,166.1,1864.3,156,1863.6z"/>
	<path class="st2" d="M604.7,711.6c-0.2,13.2-11.2,22.5-23.3,20.3C583,722.7,592.1,714.6,604.7,711.6z"/>
	<path class="st2" d="M566.4,1049.8c6-4.8,11.5-9.4,17.3-13.7c3.7-2.8,8-2.7,13-0.4c-1.1,1.8-1.6,3.8-2.9,4.7
		c-6.7,4.3-13.5,8.4-20.4,12.4C571.1,1054.1,568.3,1054.8,566.4,1049.8z"/>
	<path class="st2" d="M764.4,819c-8.1,11-9.3,11-22.7,0.9C746.8,811.7,756.3,811.1,764.4,819z"/>
	<path class="st2" d="M837.5,666.7c-3.1-0.1-4.9-2.4-4.9-6.3c0-5.2,4.3-10.4,8.6-10.5c4.2-0.1,8.1,3.9,8.1,8.3
		C849.2,662.2,843.6,666.6,837.5,666.7z"/>
	<path class="st2" d="M167.6,1514.7c3.2-10.3,10.4-14.7,18.4-19.3C188.4,1506.8,180.8,1514.7,167.6,1514.7z"/>
	<path class="st2" d="M1582,94.8c-0.1-5,2.1-8,5.6-7.8c3.7,0.3,9.8,6.7,9.5,10.3c-0.3,3.9-2.8,5.9-6.6,6.2
		C1585.7,104,1582.1,100.2,1582,94.8z"/>
	<path class="st2" d="M828.9,435.5c-4.9,8.8-15.7,16.8-26.1,19.3c0.7-2.5,0.5-5.2,1.8-6.2C811.5,442.7,818.6,437.1,828.9,435.5z"/>
	<path class="st2" d="M207.2,1465.9c2.4-3.1,4.6-6.3,7.3-9.1c5.6-5.7,6.8-5.5,13.6,1.9c-5.7,5.7-12.5,8.2-20,9.3
		C207.8,1467.3,207.5,1466.6,207.2,1465.9z"/>
	<path class="st2" d="M496,1019.9c-2.4,8.6-3.9,9.7-14.3,10.7C479.9,1020.1,483.4,1017.3,496,1019.9z"/>
	<path class="st2" d="M470.2,845.4c3.6-7.7,9.2-12.8,17.1-17.3C485.2,842.1,479.6,847.8,470.2,845.4z"/>
	<path class="st2" d="M579.2,520.4c1.4-12.3,5.6-16.3,16.6-16.5C591.9,511.3,585,518.4,579.2,520.4z"/>
	<path class="st2" d="M448,957.3c-0.7-1.3-2.5-3.2-2.6-5.2c-0.2-3.9,4.4-8.4,8.3-8c1.6,0.2,4,2.3,4.3,4
		C458.8,951.5,453.1,957.4,448,957.3z"/>
	<path class="st2" d="M489.7,932.3c-2.1,6.8-5.6,10.1-12,10C476.9,933.9,480.2,931,489.7,932.3z"/>
	<path class="st2" d="M71.4,2229.4c-1.4,8.1-7.9,9.7-12.6,13.8C58.2,2234.8,62.1,2230.4,71.4,2229.4z"/>
	<path class="st2" d="M482.4,873.4c-2.4,6.6-4.7,12.2-12.3,13.8C469.6,879.3,472.2,876.4,482.4,873.4z"/>
	<path class="st2" d="M682.2,501.7c-2.6,6.4-8,10.7-11.6,9.1c-0.7-0.3-1.5-1.5-1.5-2.3C669,504.9,675.7,501.5,682.2,501.7z"/>
	<path class="st2" d="M802.4,463.4c-3.6,5-7.1,7.6-12.7,4.9C793.3,459.8,795.3,459,802.4,463.4z"/>
	<path class="st2" d="M156.6,1558.5c-0.9,10.6-1.9,11.4-11.1,10.1C146.6,1562.8,151.7,1562,156.6,1558.5z"/>
	<path class="st2" d="M323.8,1593.2c-1.7,2.1-3.1,4.6-5.2,6.1c-1,0.8-3.3-0.2-5.1-0.3c0.4-2,0.2-4.7,1.4-5.7
		c1.7-1.5,4.5-1.7,6.8-2.5C322.4,1591.5,323.1,1592.3,323.8,1593.2z"/>
	<path class="st2" d="M119.5,1545.3c-1.7,7.9-6.2,8.9-12,9.8C108.6,1548.2,113.1,1547.1,119.5,1545.3z"/>
	<path class="st2" d="M416.7,1117.5c3.4-2.9,6.9-5.8,10.3-8.7c-0.2,6.4-2.9,10.2-8.1,11.4C418.2,1119.3,417.4,1118.4,416.7,1117.5z"
		/>
	<path class="st2" d="M407.3,1138.9c2.5,8.1,2.2,8.6-6.2,10.3C403.6,1145.1,405.4,1142,407.3,1138.9z"/>
	<path class="st2" d="M422.2,923.1c1.2-3.1,2.4-6.2,4.2-11.1c4,6.7,1,9.4-0.9,12.3C424.4,923.9,423.3,923.5,422.2,923.1z"/>
	<path class="st2" d="M577.1,982.2c1.2-4.7,3.1-7,8.3-6.3C583.9,980.3,581.8,982.3,577.1,982.2z"/>
	<path class="st2" d="M624.5,533.4c1.8-5,4.1-6.4,8.6-5.7C631.4,531.7,629.8,534.2,624.5,533.4z"/>
	<path class="st2" d="M1596.5,154.6c-2.8-3.5-4.3-5.5-6.7-8.4C1595.9,147.3,1595.9,147.3,1596.5,154.6z"/>
	<path class="st2" d="M531.8,676.2c-1.8,1.5-3.7,3-6.9,5.7c0.2-5.9,1.8-7.6,5.2-7.7C530.7,674.8,531.3,675.5,531.8,676.2z"/>
	<path class="st2" d="M912.4,1085.4c-0.9-1.9-1.9-3-1.7-3.9c0.2-0.9,1.5-1.6,2.3-2.4c0.7,0.9,1.9,1.8,1.9,2.6
		C914.9,1082.7,913.8,1083.6,912.4,1085.4z"/>
	<path class="st2" d="M532.5,526.9c1.5-1.1,2.5-1.7,3.4-2.3c0.4,0.7,1.2,1.5,1.1,1.9c-0.2,0.8-1.1,1.6-1.8,1.8
		C534.7,528.5,533.9,527.7,532.5,526.9z"/>
	<path class="st2" d="M514.4,563.5c1.5-0.8,3-1.6,4.6-2.4c0.2,0.4,0.4,0.9,0.7,1.3c-1.5,0.8-3.1,1.5-4.6,2.3
		C514.8,564.3,514.6,563.9,514.4,563.5z"/>
	<path class="st2" d="M522.6,552.3c0.8-1,1.2-2,1.9-2.2c0.4-0.1,1.8,0.9,1.8,1.4c0,0.7-0.7,1.8-1.3,2.1
		C524.5,553.8,523.6,552.9,522.6,552.3z"/>
	<path class="st2" d="M347.2,823.1c-0.9,1.5-1.8,2.9-2.6,4.4c-0.6-0.3-1.3-0.7-1.9-1c0.9-1.6,1.8-3.1,2.7-4.7
		C346,822.2,346.6,822.6,347.2,823.1z"/>
	<path class="st2" d="M670.4,2637.1c-0.5,0.4-0.9,0.8-1.4,1.3c-0.3-0.7-0.7-1.3-1-2c0.6-0.3,1.1-0.7,1.7-0.7
		C669.9,2635.7,670.1,2636.6,670.4,2637.1z"/>
	<path d="M1113.6,345.5c3,5.4,0.8,7.6-2.9,9.4c-7.1,3.5-14.4,6.7-21.1,10.8c-3.8,2.3-7.2,5.8-9.5,9.6c-2.3,3.7-4.6,6-8.9,7
		c-6.6,1.6-12.3,4.8-15.7,11.2c-2.7,5.2-7.8,4.8-13.1,4.1c5.8-4.7,11.2-10,17.4-14.1c11.4-7.5,21.8-15.8,31.6-25.4
		C1097,352.5,1105.5,349.9,1113.6,345.5z"/>
	<path d="M1169.1,540.3c0.8-0.3,1.6-0.7,2.3-0.8c0.2,0,0.8,1.3,0.7,1.4c-0.6,0.5-1.4,0.9-2.1,1.3
		C1169.8,541.6,1169.5,541.1,1169.1,540.3z"/>
	<path d="M1178.4,504.6c-0.4,0.9-0.6,1.4-0.8,2c-0.7-0.4-1.6-0.7-2.2-1.2c-0.1-0.1,0.4-1.5,0.6-1.5
		C1176.8,504,1177.6,504.4,1178.4,504.6z"/>
	<path d="M709.2,767.2c-0.6,1.4-1.1,2.9-1.8,4.3c-1,1.9-2.1,3.8-4.8,5c1.4-3.5,2.9-7,4.3-10.5C707.6,766.3,708.4,766.8,709.2,767.2z
		"/>
	<path d="M1325,2507.5c12.4-12.9,23.1-26,39.9-35.7c-2.4,8.1-3.3,14-8.4,18.6C1343.7,2501.9,1335.6,2506.6,1325,2507.5z"/>
</g>
</svg>
