<?xml version="1.0" encoding="utf-8"?>
<!-- Generator: Adobe Illustrator 16.0.0, SVG Export Plug-In . SVG Version: 6.00 Build 0)  -->
<!DOCTYPE svg PUBLIC "-//W3C//DTD SVG 1.1//EN" "http://www.w3.org/Graphics/SVG/1.1/DTD/svg11.dtd">
<svg version="1.1" id="Layer_1" xmlns="http://www.w3.org/2000/svg" xmlns:xlink="http://www.w3.org/1999/xlink" x="0px" y="0px"
	 width="200px" height="200px" viewBox="0 0 200 200" style="enable-background:new 0 0 200 200;" xml:space="preserve">
<style type="text/css">
<![CDATA[
	.st0{fill:none;stroke:#FFFFFF;stroke-width:2;stroke-miterlimit:10;}
	.st1{clip-path:url(#SVGID_2_);}
]]>
</style>
<g>
	<defs>
		<rect id="SVGID_1_" x="-974.4" y="-883" width="1440" height="4024"/>
	</defs>
	<clipPath id="SVGID_2_">
		<use xlink:href="#SVGID_1_"  style="overflow:visible;"/>
	</clipPath>
	<g class="st1">
		<path class="st0" d="M166.7,111.8V64.3c14.2,0.6,26.5,10.8,27.1,22.3C194.5,99.4,182.8,110.3,166.7,111.8z M166.7,11v149.4
			c-1.4-0.8-2.6-1.4-3.8-2c-20.3-11.7-40.5-23.4-60.9-34.9c-2.5-1.4-5.7-2.2-8.6-2.3c-11.1-0.3-22.2-0.1-33.2-0.1
			c-5.4,0-6.6,1.3-6.5,6.9c0.4,18.5,2.4,36.6,11.4,53.1c2.6,4.7,0.8,7.5-4.4,7.5c-6.1,0-12.1,0-18.5,0c0-1.7,0-3,0-4.3
			c0-18.8,0-37.7,0-56.5c0-5.4-0.8-6.6-5.8-7c-16.6-1.3-26.2-16.2-27.6-30.2c-0.9-9.3,0.9-17.8,6-25.6c6.3-9.7,15.2-13.7,26-13.6
			c17.3,0,34.6,0.1,51.9-0.1c2.1,0,4.4-0.8,6.3-1.8c22.2-12.7,44.4-25.4,66.5-38.2C165.9,11.1,166.2,11.1,166.7,11z"/>
	</g>
</g>
</svg>
