<?xml version="1.0" encoding="utf-8"?>
<!-- Generator: Adobe Illustrator 16.0.0, SVG Export Plug-In . SVG Version: 6.00 Build 0)  -->
<!DOCTYPE svg PUBLIC "-//W3C//DTD SVG 1.1//EN" "http://www.w3.org/Graphics/SVG/1.1/DTD/svg11.dtd">
<svg version="1.1" id="Layer_1" xmlns="http://www.w3.org/2000/svg" xmlns:xlink="http://www.w3.org/1999/xlink" x="0px" y="0px"
	 width="200px" height="200px" viewBox="0 0 200 200" style="enable-background:new 0 0 200 200;" xml:space="preserve">
<style type="text/css">
<![CDATA[
	.st0{clip-path:url(#SVGID_2_);fill:none;stroke:#ffffff;stroke-width:2;stroke-miterlimit:10;}
]]>
</style>
<g>
	<defs>
		<rect id="SVGID_1_" x="-194.5" y="-789.8" width="1440" height="4024"/>
	</defs>
	<clipPath id="SVGID_2_">
		<use xlink:href="#SVGID_1_"  style="overflow:visible;"/>
	</clipPath>
	<path class="st0" d="M122.4,143.7c-13.4,0.1-21-12.2-21.4-21.2c-0.5-10.7,8.1-23.1,21.3-23.2c11.5,0,21.3,9.9,21.3,21.7
		C143.7,133.6,134.3,143.6,122.4,143.7z M37.5,88c0,6.2,4.6,11.1,10.5,11.2c5.8,0.1,10.7-5,10.7-11.1c0-6.1-4.8-11.1-10.6-11.1
		C42.3,77.1,37.5,82,37.5,88z M164.7,121.5c0.1-24.1-18.4-44.4-42.4-44.4C99,77,79.9,97,79.9,121.3c0,24.5,18.9,44.4,42.4,44.5
		C145.8,165.9,164.7,146.1,164.7,121.5z M186,188H16.3v-2.1c0-36.5,0-73,0-109.5c0-10.8,9-21.1,19.3-21.3
		c13.9-0.3,27.8-0.2,41.7-0.2c2.1,0,3.1-0.7,4-2.6c5.3-11,10.7-22,16.2-32.9c1-2,2-4,3.3-5.7c1.9-2.5,4.7-3.2,7.7-3.3
		c9.5,0,19-0.1,28.5,0c5,0,8.3,2.7,10.4,7.5c5.5,12,11.2,23.9,16.9,35.8c0.3,0.6,1.2,1.1,1.9,1.2c10.4,0.6,17.8,9.1,19.6,18.4
		c0.2,0.8,0.2,1.7,0.2,2.6c0,36.8,0,73.7,0,110.5V188z"/>
</g>
</svg>
